M48
; DRILL file {KiCad (5.1.12)-1} date 12/15/21 08:08:54
; FORMAT={-:-/ absolute / metric / decimal}
; #@! TF.CreationDate,2021-12-15T08:08:54+10:00
; #@! TF.GenerationSoftware,Kicad,Pcbnew,(5.1.12)-1
; #@! TF.FileFunction,Plated,1,2,PTH
FMAT,2
METRIC
T1C0.300
T2C0.400
T3C0.800
T4C1.000
T5C1.520
%
G90
G05
T1
X86.5Y-77.6
X87.3Y-79.5
X87.9Y-71.3
X88.0Y-78.225
X88.9Y-70.4
X99.8Y-81.5
X100.3Y-80.2
X101.9Y-116.8
X103.0Y-107.7
X106.7Y-77.5
X106.7Y-82.5
X109.5Y-82.9
X110.4Y-64.6
X110.5Y-77.1
X110.7Y-67.0
X111.1Y-82.8
X120.5Y-62.5
X120.6Y-64.5
X131.1Y-78.6
X133.1Y-76.0
X135.7Y-82.6
X137.0Y-80.0
T2
X66.2Y-107.0
X69.2Y-94.53
X70.2Y-71.3
X76.6Y-94.4
X77.6Y-82.1
X78.3Y-66.3
X78.4Y-80.0
X80.662Y-117.8
X84.6Y-69.5
X85.4Y-71.2
X93.75Y-121.95
X94.1Y-72.6
X94.1Y-79.3
X94.1Y-96.1
X95.6Y-105.2
X97.0Y-105.2
X100.8Y-122.6
X100.925Y-121.175
X104.5Y-119.5
X104.575Y-121.175
X104.6Y-122.6
X104.862Y-67.8
X104.862Y-72.6
X104.9Y-103.8
X105.219Y-62.081
X108.0Y-102.8
X108.8Y-100.4
X110.5Y-106.5
X122.5Y-70.0
X129.2Y-81.2
T3
X84.737Y-131.53
X85.178Y-129.029
X85.619Y-126.528
X86.06Y-124.026
X86.502Y-121.525
X86.943Y-119.023
X87.239Y-131.971
X87.384Y-116.522
X87.68Y-129.47
X87.825Y-114.021
X88.121Y-126.969
X88.562Y-124.467
X89.003Y-121.966
X89.444Y-119.464
X89.885Y-116.963
X90.326Y-114.462
X104.749Y-135.059
X105.19Y-132.558
X105.631Y-130.056
X106.072Y-127.555
X106.513Y-125.053
X106.954Y-122.552
X107.25Y-135.5
X107.395Y-120.05
X107.691Y-132.999
X107.836Y-117.549
X108.132Y-130.497
X108.573Y-127.996
X109.014Y-125.494
X109.455Y-122.993
X109.896Y-120.492
X110.337Y-117.99
T4
X69.0Y-108.2
X114.5Y-61.0
T5
X59.75Y-92.0
X59.75Y-97.08
X64.5Y-114.25
X67.628Y-118.253
X68.966Y-67.734
X70.755Y-122.256
X72.558Y-64.142
X73.883Y-126.259
X76.15Y-60.55
X81.294Y-56.746
X85.8Y-54.4
X91.64Y-52.3
X96.6Y-51.2
X102.939Y-50.757
X108.0Y-51.2
X114.226Y-52.463
X116.0Y-135.0
X119.0Y-54.2
X120.399Y-132.46
X124.516Y-56.871
X124.799Y-129.92
X128.8Y-59.6
X129.198Y-127.38
X133.568Y-63.655
X134.25Y-122.5
X137.0Y-67.4
X137.017Y-118.24
X139.784Y-113.979
X140.653Y-72.796
X142.55Y-109.719
X142.8Y-77.4
T0
M30
