G04 #@! TF.GenerationSoftware,KiCad,Pcbnew,(5.1.12)-1*
G04 #@! TF.CreationDate,2021-12-15T08:08:51+10:00*
G04 #@! TF.ProjectId,Weather-Station,57656174-6865-4722-9d53-746174696f6e,rev?*
G04 #@! TF.SameCoordinates,Original*
G04 #@! TF.FileFunction,Soldermask,Bot*
G04 #@! TF.FilePolarity,Negative*
%FSLAX46Y46*%
G04 Gerber Fmt 4.6, Leading zero omitted, Abs format (unit mm)*
G04 Created by KiCad (PCBNEW (5.1.12)-1) date 2021-12-15 08:08:51*
%MOMM*%
%LPD*%
G01*
G04 APERTURE LIST*
%ADD10C,2.102000*%
%ADD11C,3.102000*%
%ADD12C,1.702000*%
%ADD13C,3.552000*%
%ADD14C,2.492000*%
%ADD15C,0.100000*%
G04 APERTURE END LIST*
D10*
X114500000Y-61000000D03*
X69000000Y-108200000D03*
D11*
X140653099Y-72795956D03*
G36*
G01*
X144814943Y-78171756D02*
X142096020Y-79439611D01*
G75*
G02*
X142028244Y-79414943I-21554J46222D01*
G01*
X140760389Y-76696020D01*
G75*
G02*
X140785057Y-76628244I46222J21554D01*
G01*
X143503980Y-75360389D01*
G75*
G02*
X143571756Y-75385057I21554J-46222D01*
G01*
X144839611Y-78103980D01*
G75*
G02*
X144814943Y-78171756I-46222J-21554D01*
G01*
G37*
X133568002Y-63654631D03*
G36*
G01*
X139153756Y-67530132D02*
X136941924Y-69556902D01*
G75*
G02*
X136869868Y-69553756I-34455J37601D01*
G01*
X134843098Y-67341924D01*
G75*
G02*
X134846244Y-67269868I37601J34455D01*
G01*
X137058076Y-65243098D01*
G75*
G02*
X137130132Y-65246244I34455J-37601D01*
G01*
X139156902Y-67458076D01*
G75*
G02*
X139153756Y-67530132I-37601J-34455D01*
G01*
G37*
X124515571Y-56870518D03*
G36*
G01*
X130914050Y-59168264D02*
X129302151Y-61698439D01*
G75*
G02*
X129231736Y-61714050I-43013J27402D01*
G01*
X126701561Y-60102151D01*
G75*
G02*
X126685950Y-60031736I27402J43013D01*
G01*
X128297849Y-57501561D01*
G75*
G02*
X128368264Y-57485950I43013J-27402D01*
G01*
X130898439Y-59097849D01*
G75*
G02*
X130914050Y-59168264I-27402J-43013D01*
G01*
G37*
X114226361Y-52462538D03*
G36*
G01*
X120970493Y-53320934D02*
X119944433Y-56140012D01*
G75*
G02*
X119879066Y-56170493I-47924J17443D01*
G01*
X117059988Y-55144433D01*
G75*
G02*
X117029507Y-55079066I17443J47924D01*
G01*
X118055567Y-52259988D01*
G75*
G02*
X118120934Y-52229507I47924J-17443D01*
G01*
X120940012Y-53255567D01*
G75*
G02*
X120970493Y-53320934I-17443J-47924D01*
G01*
G37*
X102939331Y-50757249D03*
G36*
G01*
X109675832Y-49840887D02*
X109414364Y-52829471D01*
G75*
G02*
X109359113Y-52875832I-50806J4445D01*
G01*
X106370529Y-52614364D01*
G75*
G02*
X106324168Y-52559113I4445J50806D01*
G01*
X106585636Y-49570529D01*
G75*
G02*
X106640887Y-49524168I50806J-4445D01*
G01*
X109629471Y-49785636D01*
G75*
G02*
X109675832Y-49840887I-4445J-50806D01*
G01*
G37*
X91640416Y-52299513D03*
G36*
G01*
X97789576Y-49399859D02*
X98438894Y-52328747D01*
G75*
G02*
X98400141Y-52389576I-49791J-11038D01*
G01*
X95471253Y-53038894D01*
G75*
G02*
X95410424Y-53000141I-11038J49791D01*
G01*
X94761106Y-50071253D01*
G75*
G02*
X94799859Y-50010424I49791J11038D01*
G01*
X97728747Y-49361106D01*
G75*
G02*
X97789576Y-49399859I11038J-49791D01*
G01*
G37*
D12*
X106071787Y-127554699D03*
X105630721Y-130056110D03*
X106512854Y-125053287D03*
X104748588Y-135058934D03*
X107836053Y-117549052D03*
X105189655Y-132557522D03*
X106953920Y-122551875D03*
X107394987Y-120050463D03*
X88561906Y-124467234D03*
X88120839Y-126968646D03*
X89002972Y-121965822D03*
X87238706Y-131971469D03*
X90326171Y-114461587D03*
X87679773Y-129470057D03*
X89444038Y-119464411D03*
X89885105Y-116962999D03*
X108573199Y-127995765D03*
X108132133Y-130497177D03*
X109014265Y-125494353D03*
X110337465Y-117990118D03*
X107691066Y-132998588D03*
X109455332Y-122992942D03*
X109896398Y-120491530D03*
X87824759Y-114020521D03*
X87383693Y-116521933D03*
X86942627Y-119023344D03*
X86501560Y-121524756D03*
X86060494Y-124026168D03*
X85619428Y-126527579D03*
X85178361Y-129028991D03*
G36*
G01*
X108226990Y-134859928D02*
X107949153Y-136435621D01*
G75*
G02*
X107890072Y-136476990I-50225J8856D01*
G01*
X106314379Y-136199153D01*
G75*
G02*
X106273010Y-136140072I8856J50225D01*
G01*
X106550847Y-134564379D01*
G75*
G02*
X106609928Y-134523010I50225J-8856D01*
G01*
X108185621Y-134800847D01*
G75*
G02*
X108226990Y-134859928I-8856J-50225D01*
G01*
G37*
X84737295Y-131530403D03*
D11*
X129198227Y-127380000D03*
G36*
G01*
X115406795Y-137074538D02*
X113906795Y-134476462D01*
G75*
G02*
X113925462Y-134406795I44167J25500D01*
G01*
X116523538Y-132906795D01*
G75*
G02*
X116593205Y-132925462I25500J-44167D01*
G01*
X118093205Y-135523538D01*
G75*
G02*
X118074538Y-135593205I-44167J-25500D01*
G01*
X115476462Y-137093205D01*
G75*
G02*
X115406795Y-137074538I-25500J44167D01*
G01*
G37*
X124798818Y-129920000D03*
X120399409Y-132460000D03*
X67627560Y-118253095D03*
X70755121Y-122256189D03*
G36*
G01*
X62363093Y-113951287D02*
X64727125Y-112104303D01*
G75*
G02*
X64798713Y-112113093I31399J-40189D01*
G01*
X66645697Y-114477125D01*
G75*
G02*
X66636907Y-114548713I-40189J-31399D01*
G01*
X64272875Y-116395697D01*
G75*
G02*
X64201287Y-116386907I-31399J40189D01*
G01*
X62354303Y-114022875D01*
G75*
G02*
X62363093Y-113951287I40189J31399D01*
G01*
G37*
X73882681Y-126259284D03*
X142550299Y-109718661D03*
G36*
G01*
X134663270Y-124617736D02*
X132147259Y-122983819D01*
G75*
G02*
X132132264Y-122913270I27777J42772D01*
G01*
X133766181Y-120397259D01*
G75*
G02*
X133836730Y-120382264I42772J-27777D01*
G01*
X136352741Y-122016181D01*
G75*
G02*
X136367736Y-122086730I-27777J-42772D01*
G01*
X134733819Y-124602741D01*
G75*
G02*
X134663270Y-124617736I-42772J27777D01*
G01*
G37*
X139783533Y-113979107D03*
X137016766Y-118239554D03*
X68965795Y-67734205D03*
X72557898Y-64142102D03*
G36*
G01*
X76186062Y-58392618D02*
X78307382Y-60513938D01*
G75*
G02*
X78307382Y-60586062I-36062J-36062D01*
G01*
X76186062Y-62707382D01*
G75*
G02*
X76113938Y-62707382I-36062J36062D01*
G01*
X73992618Y-60586062D01*
G75*
G02*
X73992618Y-60513938I36062J36062D01*
G01*
X76113938Y-58392618D01*
G75*
G02*
X76186062Y-58392618I36062J-36062D01*
G01*
G37*
X81293985Y-56745683D03*
G36*
G01*
X86483131Y-52353312D02*
X87868377Y-55014344D01*
G75*
G02*
X87846688Y-55083131I-45238J-23549D01*
G01*
X85185656Y-56468377D01*
G75*
G02*
X85116869Y-56446688I-23549J45238D01*
G01*
X83731623Y-53785656D01*
G75*
G02*
X83753312Y-53716869I45238J23549D01*
G01*
X86414344Y-52331623D01*
G75*
G02*
X86483131Y-52353312I23549J-45238D01*
G01*
G37*
X59750000Y-97080000D03*
G36*
G01*
X58250000Y-90449000D02*
X61250000Y-90449000D01*
G75*
G02*
X61301000Y-90500000I0J-51000D01*
G01*
X61301000Y-93500000D01*
G75*
G02*
X61250000Y-93551000I-51000J0D01*
G01*
X58250000Y-93551000D01*
G75*
G02*
X58199000Y-93500000I0J51000D01*
G01*
X58199000Y-90500000D01*
G75*
G02*
X58250000Y-90449000I51000J0D01*
G01*
G37*
D13*
X136100000Y-86500000D03*
X80900000Y-102500000D03*
D14*
X72570000Y-86500000D03*
D15*
G36*
X136396603Y-122042280D02*
G01*
X136397511Y-122044062D01*
X136397191Y-122045046D01*
X135804875Y-122957132D01*
X134707720Y-124646603D01*
X134704954Y-124647191D01*
X132103397Y-122957720D01*
X132102489Y-122955938D01*
X132102646Y-122955455D01*
X132107253Y-122955455D01*
X134705455Y-124642747D01*
X135801521Y-122954954D01*
X136392747Y-122044545D01*
X133794545Y-120357253D01*
X132698479Y-122045046D01*
X132107253Y-122955455D01*
X132102646Y-122955455D01*
X132102809Y-122954954D01*
X132695125Y-122042868D01*
X133792280Y-120353397D01*
X133795046Y-120352809D01*
X136396603Y-122042280D01*
G37*
G36*
X97230452Y-49470551D02*
G01*
X97230884Y-49472503D01*
X97229410Y-49473855D01*
X94750500Y-50023416D01*
X94748592Y-50022814D01*
X94748067Y-50021463D01*
X94748067Y-50021462D01*
X94749634Y-50019509D01*
X97228544Y-49469949D01*
X97230452Y-49470551D01*
G37*
M02*
