G04 #@! TF.GenerationSoftware,KiCad,Pcbnew,(5.1.12)-1*
G04 #@! TF.CreationDate,2021-12-15T08:08:51+10:00*
G04 #@! TF.ProjectId,Weather-Station,57656174-6865-4722-9d53-746174696f6e,rev?*
G04 #@! TF.SameCoordinates,Original*
G04 #@! TF.FileFunction,Legend,Top*
G04 #@! TF.FilePolarity,Positive*
%FSLAX46Y46*%
G04 Gerber Fmt 4.6, Leading zero omitted, Abs format (unit mm)*
G04 Created by KiCad (PCBNEW (5.1.12)-1) date 2021-12-15 08:08:51*
%MOMM*%
%LPD*%
G01*
G04 APERTURE LIST*
%ADD10C,0.300000*%
%ADD11C,0.150000*%
%ADD12C,0.127000*%
%ADD13C,0.200000*%
%ADD14C,0.120000*%
G04 APERTURE END LIST*
D10*
X120914285Y-108278571D02*
X121414285Y-109778571D01*
X121914285Y-108278571D01*
X123200000Y-109778571D02*
X122342857Y-109778571D01*
X122771428Y-109778571D02*
X122771428Y-108278571D01*
X122628571Y-108492857D01*
X122485714Y-108635714D01*
X122342857Y-108707142D01*
X123842857Y-109635714D02*
X123914285Y-109707142D01*
X123842857Y-109778571D01*
X123771428Y-109707142D01*
X123842857Y-109635714D01*
X123842857Y-109778571D01*
X124842857Y-108278571D02*
X124985714Y-108278571D01*
X125128571Y-108350000D01*
X125200000Y-108421428D01*
X125271428Y-108564285D01*
X125342857Y-108850000D01*
X125342857Y-109207142D01*
X125271428Y-109492857D01*
X125200000Y-109635714D01*
X125128571Y-109707142D01*
X124985714Y-109778571D01*
X124842857Y-109778571D01*
X124700000Y-109707142D01*
X124628571Y-109635714D01*
X124557142Y-109492857D01*
X124485714Y-109207142D01*
X124485714Y-108850000D01*
X124557142Y-108564285D01*
X124628571Y-108421428D01*
X124700000Y-108350000D01*
X124842857Y-108278571D01*
X111771428Y-110828571D02*
X112128571Y-112328571D01*
X112414285Y-111257142D01*
X112700000Y-112328571D01*
X113057142Y-110828571D01*
X114200000Y-112257142D02*
X114057142Y-112328571D01*
X113771428Y-112328571D01*
X113628571Y-112257142D01*
X113557142Y-112114285D01*
X113557142Y-111542857D01*
X113628571Y-111400000D01*
X113771428Y-111328571D01*
X114057142Y-111328571D01*
X114200000Y-111400000D01*
X114271428Y-111542857D01*
X114271428Y-111685714D01*
X113557142Y-111828571D01*
X115557142Y-112328571D02*
X115557142Y-111542857D01*
X115485714Y-111400000D01*
X115342857Y-111328571D01*
X115057142Y-111328571D01*
X114914285Y-111400000D01*
X115557142Y-112257142D02*
X115414285Y-112328571D01*
X115057142Y-112328571D01*
X114914285Y-112257142D01*
X114842857Y-112114285D01*
X114842857Y-111971428D01*
X114914285Y-111828571D01*
X115057142Y-111757142D01*
X115414285Y-111757142D01*
X115557142Y-111685714D01*
X116057142Y-111328571D02*
X116628571Y-111328571D01*
X116271428Y-110828571D02*
X116271428Y-112114285D01*
X116342857Y-112257142D01*
X116485714Y-112328571D01*
X116628571Y-112328571D01*
X117128571Y-112328571D02*
X117128571Y-110828571D01*
X117771428Y-112328571D02*
X117771428Y-111542857D01*
X117700000Y-111400000D01*
X117557142Y-111328571D01*
X117342857Y-111328571D01*
X117200000Y-111400000D01*
X117128571Y-111471428D01*
X119057142Y-112257142D02*
X118914285Y-112328571D01*
X118628571Y-112328571D01*
X118485714Y-112257142D01*
X118414285Y-112114285D01*
X118414285Y-111542857D01*
X118485714Y-111400000D01*
X118628571Y-111328571D01*
X118914285Y-111328571D01*
X119057142Y-111400000D01*
X119128571Y-111542857D01*
X119128571Y-111685714D01*
X118414285Y-111828571D01*
X119771428Y-112328571D02*
X119771428Y-111328571D01*
X119771428Y-111614285D02*
X119842857Y-111471428D01*
X119914285Y-111400000D01*
X120057142Y-111328571D01*
X120200000Y-111328571D01*
X121771428Y-112257142D02*
X121985714Y-112328571D01*
X122342857Y-112328571D01*
X122485714Y-112257142D01*
X122557142Y-112185714D01*
X122628571Y-112042857D01*
X122628571Y-111900000D01*
X122557142Y-111757142D01*
X122485714Y-111685714D01*
X122342857Y-111614285D01*
X122057142Y-111542857D01*
X121914285Y-111471428D01*
X121842857Y-111400000D01*
X121771428Y-111257142D01*
X121771428Y-111114285D01*
X121842857Y-110971428D01*
X121914285Y-110900000D01*
X122057142Y-110828571D01*
X122414285Y-110828571D01*
X122628571Y-110900000D01*
X123057142Y-111328571D02*
X123628571Y-111328571D01*
X123271428Y-110828571D02*
X123271428Y-112114285D01*
X123342857Y-112257142D01*
X123485714Y-112328571D01*
X123628571Y-112328571D01*
X124771428Y-112328571D02*
X124771428Y-111542857D01*
X124700000Y-111400000D01*
X124557142Y-111328571D01*
X124271428Y-111328571D01*
X124128571Y-111400000D01*
X124771428Y-112257142D02*
X124628571Y-112328571D01*
X124271428Y-112328571D01*
X124128571Y-112257142D01*
X124057142Y-112114285D01*
X124057142Y-111971428D01*
X124128571Y-111828571D01*
X124271428Y-111757142D01*
X124628571Y-111757142D01*
X124771428Y-111685714D01*
X125271428Y-111328571D02*
X125842857Y-111328571D01*
X125485714Y-110828571D02*
X125485714Y-112114285D01*
X125557142Y-112257142D01*
X125700000Y-112328571D01*
X125842857Y-112328571D01*
X126342857Y-112328571D02*
X126342857Y-111328571D01*
X126342857Y-110828571D02*
X126271428Y-110900000D01*
X126342857Y-110971428D01*
X126414285Y-110900000D01*
X126342857Y-110828571D01*
X126342857Y-110971428D01*
X127271428Y-112328571D02*
X127128571Y-112257142D01*
X127057142Y-112185714D01*
X126985714Y-112042857D01*
X126985714Y-111614285D01*
X127057142Y-111471428D01*
X127128571Y-111400000D01*
X127271428Y-111328571D01*
X127485714Y-111328571D01*
X127628571Y-111400000D01*
X127700000Y-111471428D01*
X127771428Y-111614285D01*
X127771428Y-112042857D01*
X127700000Y-112185714D01*
X127628571Y-112257142D01*
X127485714Y-112328571D01*
X127271428Y-112328571D01*
X128414285Y-111328571D02*
X128414285Y-112328571D01*
X128414285Y-111471428D02*
X128485714Y-111400000D01*
X128628571Y-111328571D01*
X128842857Y-111328571D01*
X128985714Y-111400000D01*
X129057142Y-111542857D01*
X129057142Y-112328571D01*
X130914285Y-112328571D02*
X130914285Y-110828571D01*
X131485714Y-110828571D01*
X131628571Y-110900000D01*
X131699999Y-110971428D01*
X131771428Y-111114285D01*
X131771428Y-111328571D01*
X131699999Y-111471428D01*
X131628571Y-111542857D01*
X131485714Y-111614285D01*
X130914285Y-111614285D01*
X133271428Y-112185714D02*
X133199999Y-112257142D01*
X132985714Y-112328571D01*
X132842857Y-112328571D01*
X132628571Y-112257142D01*
X132485714Y-112114285D01*
X132414285Y-111971428D01*
X132342857Y-111685714D01*
X132342857Y-111471428D01*
X132414285Y-111185714D01*
X132485714Y-111042857D01*
X132628571Y-110900000D01*
X132842857Y-110828571D01*
X132985714Y-110828571D01*
X133199999Y-110900000D01*
X133271428Y-110971428D01*
X133842857Y-111900000D02*
X134557142Y-111900000D01*
X133699999Y-112328571D02*
X134199999Y-110828571D01*
X134700000Y-112328571D01*
X116057142Y-114878571D02*
X116057142Y-113378571D01*
X116414285Y-113378571D01*
X116628571Y-113450000D01*
X116771428Y-113592857D01*
X116842857Y-113735714D01*
X116914285Y-114021428D01*
X116914285Y-114235714D01*
X116842857Y-114521428D01*
X116771428Y-114664285D01*
X116628571Y-114807142D01*
X116414285Y-114878571D01*
X116057142Y-114878571D01*
X118200000Y-114878571D02*
X118200000Y-114092857D01*
X118128571Y-113950000D01*
X117985714Y-113878571D01*
X117700000Y-113878571D01*
X117557142Y-113950000D01*
X118200000Y-114807142D02*
X118057142Y-114878571D01*
X117700000Y-114878571D01*
X117557142Y-114807142D01*
X117485714Y-114664285D01*
X117485714Y-114521428D01*
X117557142Y-114378571D01*
X117700000Y-114307142D01*
X118057142Y-114307142D01*
X118200000Y-114235714D01*
X118914285Y-113878571D02*
X118914285Y-114878571D01*
X118914285Y-114021428D02*
X118985714Y-113950000D01*
X119128571Y-113878571D01*
X119342857Y-113878571D01*
X119485714Y-113950000D01*
X119557142Y-114092857D01*
X119557142Y-114878571D01*
X121200000Y-113378571D02*
X121700000Y-114878571D01*
X122200000Y-113378571D01*
X122700000Y-114878571D02*
X122700000Y-113878571D01*
X122700000Y-113378571D02*
X122628571Y-113450000D01*
X122700000Y-113521428D01*
X122771428Y-113450000D01*
X122700000Y-113378571D01*
X122700000Y-113521428D01*
X123342857Y-114807142D02*
X123485714Y-114878571D01*
X123771428Y-114878571D01*
X123914285Y-114807142D01*
X123985714Y-114664285D01*
X123985714Y-114592857D01*
X123914285Y-114450000D01*
X123771428Y-114378571D01*
X123557142Y-114378571D01*
X123414285Y-114307142D01*
X123342857Y-114164285D01*
X123342857Y-114092857D01*
X123414285Y-113950000D01*
X123557142Y-113878571D01*
X123771428Y-113878571D01*
X123914285Y-113950000D01*
X124557142Y-114807142D02*
X124700000Y-114878571D01*
X124985714Y-114878571D01*
X125128571Y-114807142D01*
X125200000Y-114664285D01*
X125200000Y-114592857D01*
X125128571Y-114450000D01*
X124985714Y-114378571D01*
X124771428Y-114378571D01*
X124628571Y-114307142D01*
X124557142Y-114164285D01*
X124557142Y-114092857D01*
X124628571Y-113950000D01*
X124771428Y-113878571D01*
X124985714Y-113878571D01*
X125128571Y-113950000D01*
X126414285Y-114807142D02*
X126271428Y-114878571D01*
X125985714Y-114878571D01*
X125842857Y-114807142D01*
X125771428Y-114664285D01*
X125771428Y-114092857D01*
X125842857Y-113950000D01*
X125985714Y-113878571D01*
X126271428Y-113878571D01*
X126414285Y-113950000D01*
X126485714Y-114092857D01*
X126485714Y-114235714D01*
X125771428Y-114378571D01*
X127128571Y-114878571D02*
X127128571Y-113878571D01*
X127128571Y-114164285D02*
X127200000Y-114021428D01*
X127271428Y-113950000D01*
X127414285Y-113878571D01*
X127557142Y-113878571D01*
X130414285Y-114878571D02*
X130342857Y-114878571D01*
X130200000Y-114807142D01*
X129985714Y-114592857D01*
X129628571Y-114164285D01*
X129485714Y-113950000D01*
X129414285Y-113735714D01*
X129414285Y-113592857D01*
X129485714Y-113450000D01*
X129628571Y-113378571D01*
X129700000Y-113378571D01*
X129842857Y-113450000D01*
X129914285Y-113592857D01*
X129914285Y-113664285D01*
X129842857Y-113807142D01*
X129771428Y-113878571D01*
X129342857Y-114164285D01*
X129271428Y-114235714D01*
X129200000Y-114378571D01*
X129200000Y-114592857D01*
X129271428Y-114735714D01*
X129342857Y-114807142D01*
X129485714Y-114878571D01*
X129700000Y-114878571D01*
X129842857Y-114807142D01*
X129914285Y-114735714D01*
X130128571Y-114450000D01*
X130200000Y-114235714D01*
X130200000Y-114092857D01*
X116557142Y-117428571D02*
X116057142Y-116714285D01*
X115700000Y-117428571D02*
X115700000Y-115928571D01*
X116271428Y-115928571D01*
X116414285Y-116000000D01*
X116485714Y-116071428D01*
X116557142Y-116214285D01*
X116557142Y-116428571D01*
X116485714Y-116571428D01*
X116414285Y-116642857D01*
X116271428Y-116714285D01*
X115700000Y-116714285D01*
X117414285Y-117428571D02*
X117271428Y-117357142D01*
X117200000Y-117285714D01*
X117128571Y-117142857D01*
X117128571Y-116714285D01*
X117200000Y-116571428D01*
X117271428Y-116500000D01*
X117414285Y-116428571D01*
X117628571Y-116428571D01*
X117771428Y-116500000D01*
X117842857Y-116571428D01*
X117914285Y-116714285D01*
X117914285Y-117142857D01*
X117842857Y-117285714D01*
X117771428Y-117357142D01*
X117628571Y-117428571D01*
X117414285Y-117428571D01*
X118557142Y-117428571D02*
X118557142Y-115928571D01*
X118557142Y-116500000D02*
X118700000Y-116428571D01*
X118985714Y-116428571D01*
X119128571Y-116500000D01*
X119200000Y-116571428D01*
X119271428Y-116714285D01*
X119271428Y-117142857D01*
X119200000Y-117285714D01*
X119128571Y-117357142D01*
X118985714Y-117428571D01*
X118700000Y-117428571D01*
X118557142Y-117357142D01*
X121057142Y-117428571D02*
X121057142Y-115928571D01*
X121557142Y-117000000D01*
X122057142Y-115928571D01*
X122057142Y-117428571D01*
X123414285Y-117357142D02*
X123271428Y-117428571D01*
X122985714Y-117428571D01*
X122842857Y-117357142D01*
X122771428Y-117285714D01*
X122700000Y-117142857D01*
X122700000Y-116714285D01*
X122771428Y-116571428D01*
X122842857Y-116500000D01*
X122985714Y-116428571D01*
X123271428Y-116428571D01*
X123414285Y-116500000D01*
X124057142Y-117428571D02*
X124057142Y-115928571D01*
X124914285Y-117428571D02*
X124271428Y-116571428D01*
X124914285Y-115928571D02*
X124057142Y-116785714D01*
X126128571Y-117357142D02*
X125985714Y-117428571D01*
X125700000Y-117428571D01*
X125557142Y-117357142D01*
X125485714Y-117214285D01*
X125485714Y-116642857D01*
X125557142Y-116500000D01*
X125700000Y-116428571D01*
X125985714Y-116428571D01*
X126128571Y-116500000D01*
X126200000Y-116642857D01*
X126200000Y-116785714D01*
X125485714Y-116928571D01*
X126842857Y-116428571D02*
X126842857Y-117428571D01*
X126842857Y-116571428D02*
X126914285Y-116500000D01*
X127057142Y-116428571D01*
X127271428Y-116428571D01*
X127414285Y-116500000D01*
X127485714Y-116642857D01*
X127485714Y-117428571D01*
X128057142Y-116428571D02*
X128842857Y-116428571D01*
X128057142Y-117428571D01*
X128842857Y-117428571D01*
X129414285Y-117428571D02*
X129414285Y-116428571D01*
X129414285Y-115928571D02*
X129342857Y-116000000D01*
X129414285Y-116071428D01*
X129485714Y-116000000D01*
X129414285Y-115928571D01*
X129414285Y-116071428D01*
X130700000Y-117357142D02*
X130557142Y-117428571D01*
X130271428Y-117428571D01*
X130128571Y-117357142D01*
X130057142Y-117214285D01*
X130057142Y-116642857D01*
X130128571Y-116500000D01*
X130271428Y-116428571D01*
X130557142Y-116428571D01*
X130700000Y-116500000D01*
X130771428Y-116642857D01*
X130771428Y-116785714D01*
X130057142Y-116928571D01*
X120628571Y-118621428D02*
X120700000Y-118550000D01*
X120842857Y-118478571D01*
X121200000Y-118478571D01*
X121342857Y-118550000D01*
X121414285Y-118621428D01*
X121485714Y-118764285D01*
X121485714Y-118907142D01*
X121414285Y-119121428D01*
X120557142Y-119978571D01*
X121485714Y-119978571D01*
X122414285Y-118478571D02*
X122557142Y-118478571D01*
X122700000Y-118550000D01*
X122771428Y-118621428D01*
X122842857Y-118764285D01*
X122914285Y-119050000D01*
X122914285Y-119407142D01*
X122842857Y-119692857D01*
X122771428Y-119835714D01*
X122700000Y-119907142D01*
X122557142Y-119978571D01*
X122414285Y-119978571D01*
X122271428Y-119907142D01*
X122200000Y-119835714D01*
X122128571Y-119692857D01*
X122057142Y-119407142D01*
X122057142Y-119050000D01*
X122128571Y-118764285D01*
X122200000Y-118621428D01*
X122271428Y-118550000D01*
X122414285Y-118478571D01*
X123485714Y-118621428D02*
X123557142Y-118550000D01*
X123700000Y-118478571D01*
X124057142Y-118478571D01*
X124200000Y-118550000D01*
X124271428Y-118621428D01*
X124342857Y-118764285D01*
X124342857Y-118907142D01*
X124271428Y-119121428D01*
X123414285Y-119978571D01*
X124342857Y-119978571D01*
X125771428Y-119978571D02*
X124914285Y-119978571D01*
X125342857Y-119978571D02*
X125342857Y-118478571D01*
X125200000Y-118692857D01*
X125057142Y-118835714D01*
X124914285Y-118907142D01*
D11*
X147652739Y-73358280D02*
X147362036Y-73861630D01*
X147894235Y-73876171D02*
X146987927Y-74298789D01*
X146826930Y-73953529D01*
X146829838Y-73847089D01*
X146852871Y-73783807D01*
X146919061Y-73700400D01*
X147048534Y-73640026D01*
X147154973Y-73642934D01*
X147218256Y-73665967D01*
X147301662Y-73732157D01*
X147462660Y-74077417D01*
X146625683Y-73521954D02*
X146384187Y-73004063D01*
X147411243Y-72840390D02*
X146504935Y-73263008D01*
X147149622Y-72279343D02*
X146243314Y-72701961D01*
X146142691Y-72486173D01*
X146125474Y-72336576D01*
X146171540Y-72210012D01*
X146237730Y-72126605D01*
X146390236Y-72002948D01*
X146519708Y-71942574D01*
X146712463Y-71905233D01*
X146818903Y-71908141D01*
X146945467Y-71954207D01*
X147048998Y-72063555D01*
X147149622Y-72279343D01*
X145927136Y-71798561D02*
X145863853Y-71775528D01*
X145780446Y-71709338D01*
X145679823Y-71493550D01*
X145682731Y-71387111D01*
X145705764Y-71323828D01*
X145771954Y-71240422D01*
X145858269Y-71200172D01*
X146007867Y-71182956D01*
X146767253Y-71459350D01*
X146505632Y-70898302D01*
X140441291Y-61866761D02*
X140315403Y-62434230D01*
X140827342Y-62288062D02*
X140090065Y-62963653D01*
X139832697Y-62682785D01*
X139803464Y-62580397D01*
X139806401Y-62513118D01*
X139844447Y-62413667D01*
X139949773Y-62317155D01*
X140052161Y-62287921D01*
X140119440Y-62290859D01*
X140218890Y-62328905D01*
X140476258Y-62609772D01*
X139510988Y-62331701D02*
X139124936Y-61910399D01*
X140055239Y-61445460D02*
X139317962Y-62121050D01*
X139637017Y-60989050D02*
X138899740Y-61664640D01*
X138738885Y-61489098D01*
X138677480Y-61351602D01*
X138683355Y-61217043D01*
X138721401Y-61117593D01*
X138829664Y-60953800D01*
X138934989Y-60857287D01*
X139107594Y-60763712D01*
X139209982Y-60734478D01*
X139344541Y-60740353D01*
X139476162Y-60813508D01*
X139637017Y-60989050D01*
X138607546Y-59865580D02*
X138993598Y-60286881D01*
X138800572Y-60076230D02*
X138063294Y-60751821D01*
X138232962Y-60725525D01*
X138367521Y-60731400D01*
X138466971Y-60769446D01*
X131759670Y-55344443D02*
X131117086Y-54935072D01*
X131643064Y-54818465D02*
X131233692Y-55461049D01*
X127359670Y-52744443D02*
X126717086Y-52335072D01*
X130585244Y-52963872D02*
X130610517Y-53544587D01*
X131067182Y-53270901D02*
X130529882Y-54114292D01*
X130208590Y-53909606D01*
X130153853Y-53818274D01*
X130139277Y-53752526D01*
X130150287Y-53646618D01*
X130227044Y-53526133D01*
X130318377Y-53471396D01*
X130384124Y-53456820D01*
X130490033Y-53467830D01*
X130811325Y-53672515D01*
X129766814Y-53628164D02*
X129741852Y-52426573D01*
X129204553Y-53269964D02*
X130304113Y-52784772D01*
X128974594Y-53010541D02*
X128908846Y-53025117D01*
X128802938Y-53014107D01*
X128602130Y-52886179D01*
X128547393Y-52794846D01*
X128532817Y-52729098D01*
X128543827Y-52623190D01*
X128594998Y-52542867D01*
X128711917Y-52447968D01*
X129500883Y-52273058D01*
X128978784Y-51940444D01*
X120982408Y-49463172D02*
X120266451Y-49202585D01*
X120754723Y-48974900D02*
X120494136Y-49690857D01*
X119158811Y-47394771D02*
X119309175Y-47956250D01*
X119695778Y-47590211D02*
X119353758Y-48529903D01*
X118995780Y-48399610D01*
X118922572Y-48322289D01*
X118894111Y-48261255D01*
X118881938Y-48155474D01*
X118930798Y-48021232D01*
X119008118Y-47948024D01*
X119069152Y-47919564D01*
X119174933Y-47907390D01*
X119532911Y-48037683D01*
X118503560Y-48220456D02*
X118219118Y-47052750D01*
X117877098Y-47992443D02*
X118845580Y-47280764D01*
X117368920Y-46743304D02*
X117905888Y-46938744D01*
X117637404Y-46841024D02*
X117295384Y-47780716D01*
X117433738Y-47679048D01*
X117555806Y-47622127D01*
X117661587Y-47609953D01*
X115782408Y-47863172D02*
X115066451Y-47602585D01*
X106985655Y-45853442D02*
X106416401Y-45803639D01*
X106788184Y-44832345D02*
X106701028Y-45828540D01*
X106179212Y-45782887D02*
X105602238Y-44728589D01*
X105515082Y-45724783D02*
X106266368Y-44786692D01*
X105191318Y-45600856D02*
X105139730Y-45644143D01*
X105040704Y-45683281D01*
X104803514Y-45662529D01*
X104712789Y-45606791D01*
X104669502Y-45555203D01*
X104630364Y-45456177D01*
X104638665Y-45361301D01*
X104698553Y-45223138D01*
X105317611Y-44703687D01*
X104700919Y-44649733D01*
X108785728Y-46362045D02*
X108026722Y-46295641D01*
X108439427Y-45949340D02*
X108373023Y-46708345D01*
X103385728Y-45762045D02*
X102626722Y-45695641D01*
X90756462Y-47647811D02*
X90012617Y-47812717D01*
X93927273Y-46466665D02*
X93369390Y-46590345D01*
X93431892Y-45552209D02*
X93648332Y-46528505D01*
X93136939Y-46641878D02*
X92269635Y-45809875D01*
X92486075Y-46786171D02*
X92920499Y-45665582D01*
X91386319Y-46005701D02*
X91944203Y-45882022D01*
X91665261Y-45943861D02*
X91881701Y-46920157D01*
X91943761Y-46760073D01*
X92016129Y-46646479D01*
X92098803Y-46579376D01*
X95956462Y-46247811D02*
X95212617Y-46412717D01*
X95502086Y-45958342D02*
X95666993Y-46702186D01*
X141191082Y-122218866D02*
X141308824Y-122124991D01*
X141438500Y-121925308D01*
X141450434Y-121819499D01*
X141436432Y-121753627D01*
X141382494Y-121661820D01*
X141302620Y-121609950D01*
X141196812Y-121598016D01*
X141130940Y-121612018D01*
X141039133Y-121665956D01*
X140895455Y-121799767D01*
X140803648Y-121853705D01*
X140737776Y-121867707D01*
X140631968Y-121855773D01*
X140552094Y-121803903D01*
X140498156Y-121712096D01*
X140484155Y-121646224D01*
X140496088Y-121540415D01*
X140625764Y-121340732D01*
X140743507Y-121246857D01*
X142007006Y-120875020D02*
X142021008Y-120940892D01*
X141983139Y-121086637D01*
X141931268Y-121166510D01*
X141813526Y-121260385D01*
X141681782Y-121288388D01*
X141575974Y-121276455D01*
X141390292Y-121212651D01*
X141270482Y-121134845D01*
X141136670Y-120991168D01*
X141082732Y-120899360D01*
X141054729Y-120767617D01*
X141092598Y-120621871D01*
X141144468Y-120541998D01*
X141262211Y-120448123D01*
X141328082Y-120434122D01*
X142579648Y-120168093D02*
X142320296Y-120567460D01*
X141481626Y-120022821D01*
X143928114Y-117988834D02*
X144045856Y-117894959D01*
X144175532Y-117695276D01*
X144187466Y-117589467D01*
X144173464Y-117523595D01*
X144119526Y-117431788D01*
X144039653Y-117379918D01*
X143933844Y-117367984D01*
X143867972Y-117381986D01*
X143776165Y-117435924D01*
X143632488Y-117569736D01*
X143540681Y-117623674D01*
X143474809Y-117637675D01*
X143369000Y-117625742D01*
X143289127Y-117573871D01*
X143235189Y-117482064D01*
X143221187Y-117416192D01*
X143233121Y-117310384D01*
X143362797Y-117110700D01*
X143480539Y-117016825D01*
X144512690Y-117176099D02*
X143674019Y-116631460D01*
X143803695Y-116431776D01*
X143921437Y-116337902D01*
X144053181Y-116309899D01*
X144158990Y-116321832D01*
X144344672Y-116385636D01*
X144464482Y-116463442D01*
X144598293Y-116607119D01*
X144652232Y-116698926D01*
X144680235Y-116830670D01*
X144642366Y-116976415D01*
X144512690Y-117176099D01*
X144791773Y-116221754D02*
X145051125Y-115822387D01*
X144979523Y-116457238D02*
X144322399Y-115633043D01*
X145342616Y-115898125D01*
X146602423Y-112358396D02*
X147017386Y-111719409D01*
X143180643Y-122862237D02*
X142921291Y-123261604D01*
X142082621Y-122716965D01*
X143362189Y-122582680D02*
X142523519Y-122038041D01*
X143108095Y-121225306D02*
X143016287Y-121279244D01*
X142938482Y-121399054D01*
X142900613Y-121544800D01*
X142928616Y-121676543D01*
X142982554Y-121768350D01*
X143116366Y-121912028D01*
X143236176Y-121989833D01*
X143421858Y-122053638D01*
X143527666Y-122065571D01*
X143659410Y-122037568D01*
X143777152Y-121943693D01*
X143829023Y-121863820D01*
X143866892Y-121718075D01*
X143852890Y-121652203D01*
X143573333Y-121470656D01*
X143469593Y-121630403D01*
X144166180Y-121344643D02*
X143327510Y-120800004D01*
X143726877Y-121059356D02*
X144038099Y-120580115D01*
X144477403Y-120865403D02*
X143638732Y-120320764D01*
X143820278Y-120041207D02*
X144131501Y-119561966D01*
X144814560Y-120346226D02*
X143975890Y-119801587D01*
X145151718Y-119827049D02*
X144313047Y-119282410D01*
X145462940Y-119347808D01*
X144624269Y-118803169D01*
X145722292Y-118948441D02*
X144883621Y-118403802D01*
X145981644Y-118549074D02*
X145142973Y-118004435D01*
X146292866Y-118069834D01*
X145454195Y-117525195D01*
X146038771Y-116712460D02*
X145946964Y-116766398D01*
X145869159Y-116886208D01*
X145831290Y-117031953D01*
X145859293Y-117163697D01*
X145913231Y-117255504D01*
X146047042Y-117399181D01*
X146166853Y-117476987D01*
X146352535Y-117540791D01*
X146458343Y-117552725D01*
X146590087Y-117524722D01*
X146707829Y-117430847D01*
X146759700Y-117350974D01*
X146797568Y-117205228D01*
X146783567Y-117139356D01*
X146504010Y-116957810D01*
X146400269Y-117117557D01*
X138602423Y-125358396D02*
X139017386Y-124719409D01*
X139129398Y-125246384D02*
X138490411Y-124831421D01*
X126650778Y-135457676D02*
X126798306Y-135427487D01*
X127004502Y-135308440D01*
X127063171Y-135219581D01*
X127080601Y-135154532D01*
X127074221Y-135048244D01*
X127026602Y-134965766D01*
X126937744Y-134907097D01*
X126872695Y-134889667D01*
X126766407Y-134896047D01*
X126577640Y-134950045D01*
X126471352Y-134956425D01*
X126406303Y-134938995D01*
X126317445Y-134880326D01*
X126269826Y-134797848D01*
X126263446Y-134691559D01*
X126280876Y-134626511D01*
X126339545Y-134537652D01*
X126545741Y-134418605D01*
X126693269Y-134388415D01*
X127540613Y-134998916D02*
X127040613Y-134132890D01*
X127246810Y-134013843D01*
X127394337Y-133983653D01*
X127524435Y-134018513D01*
X127613293Y-134077182D01*
X127749770Y-134218330D01*
X127821199Y-134342048D01*
X127875198Y-134530814D01*
X127881578Y-134637103D01*
X127846718Y-134767200D01*
X127746810Y-134879868D01*
X127540613Y-134998916D01*
X128222542Y-134275289D02*
X128634935Y-134037194D01*
X128282921Y-134570344D02*
X128071596Y-133537652D01*
X128860271Y-134237011D01*
X121921398Y-137945772D02*
X122068925Y-137915582D01*
X122275122Y-137796535D01*
X122333791Y-137707676D01*
X122351221Y-137642628D01*
X122344841Y-137536339D01*
X122297222Y-137453861D01*
X122208364Y-137395192D01*
X122143315Y-137377762D01*
X122037027Y-137384142D01*
X121848260Y-137438141D01*
X121741972Y-137444520D01*
X121676923Y-137427091D01*
X121588064Y-137368421D01*
X121540445Y-137285943D01*
X121534066Y-137179655D01*
X121551495Y-137114606D01*
X121610165Y-137025747D01*
X121816361Y-136906700D01*
X121963889Y-136876511D01*
X123258485Y-137118818D02*
X123241056Y-137183867D01*
X123141147Y-137296535D01*
X123058669Y-137344154D01*
X122911141Y-137374343D01*
X122781043Y-137339484D01*
X122692185Y-137280814D01*
X122555708Y-137139667D01*
X122484279Y-137015949D01*
X122430280Y-136827182D01*
X122423901Y-136720894D01*
X122458760Y-136590796D01*
X122558669Y-136478128D01*
X122641147Y-136430509D01*
X122788675Y-136400320D01*
X122853723Y-136417750D01*
X124089651Y-136748916D02*
X123677258Y-136987011D01*
X123177258Y-136120986D01*
X131455799Y-132002335D02*
X132115628Y-131621382D01*
X124152320Y-138378617D02*
X124299847Y-138348427D01*
X124364896Y-138365857D01*
X124453755Y-138424526D01*
X124525183Y-138548244D01*
X124531563Y-138654532D01*
X124514133Y-138719581D01*
X124455464Y-138808440D01*
X124125550Y-138998916D01*
X123625550Y-138132890D01*
X123914225Y-137966224D01*
X124020513Y-137959844D01*
X124085562Y-137977274D01*
X124174420Y-138035943D01*
X124222039Y-138118421D01*
X124228419Y-138224710D01*
X124210989Y-138289758D01*
X124152320Y-138378617D01*
X123863645Y-138545283D01*
X124991575Y-138498916D02*
X124491575Y-137632890D01*
X125137393Y-138084813D01*
X125068925Y-137299557D01*
X125568925Y-138165582D01*
X125719414Y-137473855D02*
X126008089Y-137307188D01*
X126393711Y-137689392D02*
X125981318Y-137927487D01*
X125481318Y-137061462D01*
X125893711Y-136823367D01*
X126271245Y-136715369D02*
X126288675Y-136650320D01*
X126347344Y-136561462D01*
X126553540Y-136442414D01*
X126659828Y-136436034D01*
X126724877Y-136453464D01*
X126813736Y-136512133D01*
X126861355Y-136594612D01*
X126891544Y-136742139D01*
X126682387Y-137522725D01*
X127218497Y-137213201D01*
X127427655Y-136432616D02*
X127321367Y-136438995D01*
X127256318Y-136421565D01*
X127167460Y-136362896D01*
X127143650Y-136321657D01*
X127137270Y-136215369D01*
X127154700Y-136150320D01*
X127213369Y-136061462D01*
X127378326Y-135966224D01*
X127484614Y-135959844D01*
X127549663Y-135977274D01*
X127638522Y-136035943D01*
X127662331Y-136077182D01*
X127668711Y-136183470D01*
X127651281Y-136248519D01*
X127592612Y-136337377D01*
X127427655Y-136432616D01*
X127368986Y-136521474D01*
X127351556Y-136586523D01*
X127357936Y-136692811D01*
X127453174Y-136857768D01*
X127542032Y-136916437D01*
X127607081Y-136933867D01*
X127713369Y-136927487D01*
X127878326Y-136832249D01*
X127936995Y-136743391D01*
X127954425Y-136678342D01*
X127948045Y-136572054D01*
X127852807Y-136407097D01*
X127763949Y-136348427D01*
X127698900Y-136330998D01*
X127592612Y-136337377D01*
X128079395Y-135561462D02*
X128161873Y-135513843D01*
X128268161Y-135507463D01*
X128333210Y-135524893D01*
X128422068Y-135583562D01*
X128558546Y-135724710D01*
X128677593Y-135930906D01*
X128731592Y-136119673D01*
X128737972Y-136225961D01*
X128720542Y-136291010D01*
X128661873Y-136379868D01*
X128579395Y-136427487D01*
X128473106Y-136433867D01*
X128408058Y-136416437D01*
X128319199Y-136357768D01*
X128182722Y-136216620D01*
X128063674Y-136010424D01*
X128009675Y-135821657D01*
X128003296Y-135715369D01*
X128020725Y-135650320D01*
X128079395Y-135561462D01*
X118205799Y-139752335D02*
X118865628Y-139371382D01*
X118726190Y-139891773D02*
X118345238Y-139231944D01*
X66540908Y-125897178D02*
X66710931Y-125341336D01*
X66189102Y-125446886D02*
X66977112Y-124831225D01*
X67211650Y-125131419D01*
X67232760Y-125235785D01*
X67224553Y-125302627D01*
X67178822Y-125398785D01*
X67066249Y-125486737D01*
X66961883Y-125507847D01*
X66895041Y-125499640D01*
X66798883Y-125453908D01*
X66564345Y-125153714D01*
X67534139Y-125544187D02*
X67156570Y-126685189D01*
X67944580Y-126069527D02*
X66746129Y-126159848D01*
X63462454Y-120312462D02*
X63814260Y-120762754D01*
X62850346Y-121153270D02*
X63638357Y-120537608D01*
X63960846Y-120950376D02*
X63583277Y-122091378D01*
X64371287Y-121475716D02*
X63172836Y-121566037D01*
X60459175Y-116993781D02*
X60928251Y-117594170D01*
X60393518Y-117528513D02*
X60993908Y-117059438D01*
X69709175Y-129243781D02*
X70178251Y-129844170D01*
X63189905Y-123627929D02*
X63359928Y-123072087D01*
X62838099Y-123177637D02*
X63626110Y-122561976D01*
X63860647Y-122862171D01*
X63881757Y-122966536D01*
X63873550Y-123033378D01*
X63827819Y-123129537D01*
X63715246Y-123217488D01*
X63610880Y-123238598D01*
X63544038Y-123230391D01*
X63447880Y-123184660D01*
X63213342Y-122884465D01*
X64526736Y-123792071D02*
X64505626Y-123687706D01*
X64417674Y-123575133D01*
X64292198Y-123491877D01*
X64158515Y-123475463D01*
X64054149Y-123496573D01*
X63874735Y-123576317D01*
X63762162Y-123664269D01*
X63641382Y-123819062D01*
X63595650Y-123915221D01*
X63579236Y-124048904D01*
X63629664Y-124190794D01*
X63688298Y-124265843D01*
X63813774Y-124349099D01*
X63880615Y-124357306D01*
X64143286Y-124152085D01*
X64026017Y-124001988D01*
X64391911Y-125166426D02*
X64040105Y-124716135D01*
X64216008Y-124941281D02*
X65004019Y-124325619D01*
X64832811Y-124338522D01*
X64699128Y-124322108D01*
X64602969Y-124276376D01*
X65736949Y-125263727D02*
X65443777Y-124888484D01*
X65039216Y-125144132D01*
X65106058Y-125152339D01*
X65202217Y-125198070D01*
X65348803Y-125385692D01*
X65369913Y-125490058D01*
X65361706Y-125556899D01*
X65315974Y-125653058D01*
X65128353Y-125799644D01*
X65023987Y-125820754D01*
X64957145Y-125812547D01*
X64860986Y-125766816D01*
X64714400Y-125579194D01*
X64693290Y-125474828D01*
X64701497Y-125407987D01*
X73368866Y-56480118D02*
X72830118Y-57018866D01*
X70220305Y-58354145D02*
X69816244Y-58758206D01*
X69311167Y-57849068D02*
X70018274Y-58556175D01*
X68873435Y-58286801D02*
X69580541Y-58993908D01*
X68839763Y-58724534D01*
X69109137Y-59465312D01*
X68402030Y-58758206D01*
X68065312Y-59094923D02*
X68772419Y-59802030D01*
X68503045Y-60071404D01*
X68402030Y-60105076D01*
X68334687Y-60105076D01*
X68233671Y-60071404D01*
X68132656Y-59970389D01*
X68098984Y-59869374D01*
X68098984Y-59802030D01*
X68132656Y-59701015D01*
X68402030Y-59431641D01*
X68132656Y-60441793D02*
X67694923Y-60879526D01*
X67661251Y-60374450D01*
X67560236Y-60475465D01*
X67459221Y-60509137D01*
X67391877Y-60509137D01*
X67290862Y-60475465D01*
X67122503Y-60307106D01*
X67088832Y-60206091D01*
X67088832Y-60138748D01*
X67122503Y-60037732D01*
X67324534Y-59835702D01*
X67425549Y-59802030D01*
X67492893Y-59802030D01*
X67088832Y-61485618D02*
X67223519Y-61350931D01*
X67257190Y-61249915D01*
X67257190Y-61182572D01*
X67223519Y-61014213D01*
X67122503Y-60845854D01*
X66853129Y-60576480D01*
X66752114Y-60542809D01*
X66684771Y-60542809D01*
X66583755Y-60576480D01*
X66449068Y-60711167D01*
X66415397Y-60812183D01*
X66415397Y-60879526D01*
X66449068Y-60980541D01*
X66617427Y-61148900D01*
X66718442Y-61182572D01*
X66785786Y-61182572D01*
X66886801Y-61148900D01*
X67021488Y-61014213D01*
X67055160Y-60913198D01*
X67055160Y-60845854D01*
X67021488Y-60744839D01*
X65818866Y-63880118D02*
X65280118Y-64418866D01*
X65280118Y-63880118D02*
X65818866Y-64418866D01*
X83904926Y-49960737D02*
X83229109Y-50312546D01*
X83391113Y-49798733D02*
X83742922Y-50474550D01*
X79504926Y-52160737D02*
X78829109Y-52512546D01*
X81710436Y-49416050D02*
X82172185Y-50303061D01*
X81834276Y-50478965D01*
X81727811Y-50480702D01*
X81663584Y-50460452D01*
X81577370Y-50397963D01*
X81511405Y-50271247D01*
X81509668Y-50164782D01*
X81529919Y-50100555D01*
X81592408Y-50014340D01*
X81930317Y-49838436D01*
X80823426Y-49877799D02*
X81285174Y-50764809D01*
X81073981Y-50874750D01*
X80925277Y-50898475D01*
X80796824Y-50857974D01*
X80710609Y-50795485D01*
X80580419Y-50648518D01*
X80514455Y-50521802D01*
X80468741Y-50330860D01*
X80467004Y-50224395D01*
X80507505Y-50095941D01*
X80612233Y-49987739D01*
X80823426Y-49877799D01*
X79882613Y-50958088D02*
X79733909Y-50981814D01*
X79669682Y-50961563D01*
X79583468Y-50899074D01*
X79517504Y-50772358D01*
X79515766Y-50665893D01*
X79536017Y-50601666D01*
X79598506Y-50515451D01*
X79936415Y-50339547D01*
X80398163Y-51226558D01*
X80102493Y-51380474D01*
X79996028Y-51382212D01*
X79931801Y-51361961D01*
X79845587Y-51299472D01*
X79801610Y-51214995D01*
X79799873Y-51108529D01*
X79820124Y-51044303D01*
X79882613Y-50958088D01*
X80178283Y-50804172D01*
X53347619Y-92666666D02*
X54347619Y-92666666D01*
X54347619Y-93047619D01*
X54300000Y-93142857D01*
X54252380Y-93190476D01*
X54157142Y-93238095D01*
X54014285Y-93238095D01*
X53919047Y-93190476D01*
X53871428Y-93142857D01*
X53823809Y-93047619D01*
X53823809Y-92666666D01*
X54347619Y-93523809D02*
X53347619Y-93857142D01*
X54347619Y-94190476D01*
X53347619Y-95285714D02*
X54347619Y-95285714D01*
X53347619Y-95761904D02*
X54347619Y-95761904D01*
X53347619Y-96333333D01*
X54347619Y-96333333D01*
X54871428Y-97580952D02*
X54871428Y-96819047D01*
X55071428Y-92380952D02*
X55071428Y-91619047D01*
X55452380Y-92000000D02*
X54690476Y-92000000D01*
D12*
X118400000Y-79100000D02*
X122800000Y-79100000D01*
X118400000Y-74100000D02*
X122800000Y-74100000D01*
D13*
X116460000Y-74340000D02*
G75*
G03*
X116460000Y-74340000I-100000J0D01*
G01*
D12*
X92000000Y-82100000D02*
X96400000Y-82100000D01*
X92000000Y-72400000D02*
X96400000Y-72400000D01*
D13*
X89860000Y-72615000D02*
G75*
G03*
X89860000Y-72615000I-100000J0D01*
G01*
D11*
X115900000Y-61000000D02*
G75*
G03*
X115900000Y-61000000I-1400000J0D01*
G01*
D14*
X101690000Y-57858578D02*
X101690000Y-57341422D01*
X103110000Y-57858578D02*
X103110000Y-57341422D01*
X104690000Y-57858578D02*
X104690000Y-57341422D01*
X106110000Y-57858578D02*
X106110000Y-57341422D01*
D11*
X70400000Y-108200000D02*
G75*
G03*
X70400000Y-108200000I-1400000J0D01*
G01*
D14*
X141881671Y-69420484D02*
X146175472Y-78628571D01*
X143032682Y-68883759D02*
X136126616Y-72104110D01*
X136126616Y-72104110D02*
X140420418Y-81312197D01*
X140420418Y-81312197D02*
X147326483Y-78091846D01*
X147326483Y-78091846D02*
X143032682Y-68883759D01*
X133724687Y-60065948D02*
X140588684Y-67556685D01*
X134661029Y-59207948D02*
X129042976Y-64355945D01*
X129042976Y-64355945D02*
X135906972Y-71846683D01*
X135906972Y-71846683D02*
X141525026Y-66698686D01*
X141525026Y-66698686D02*
X134661029Y-59207948D01*
X123738098Y-53363563D02*
X132306955Y-58822527D01*
X124420469Y-52292456D02*
X120326246Y-58719098D01*
X120326246Y-58719098D02*
X128895103Y-64178062D01*
X128895103Y-64178062D02*
X132989326Y-57751420D01*
X132989326Y-57751420D02*
X124420469Y-52292456D01*
X112708273Y-49206987D02*
X122255550Y-52681912D01*
X113142639Y-48013578D02*
X110536445Y-55174035D01*
X110536445Y-55174035D02*
X120083723Y-58648960D01*
X120083723Y-58648960D02*
X122689916Y-51488502D01*
X122689916Y-51488502D02*
X113142639Y-48013578D01*
X100630372Y-48005539D02*
X110751710Y-48891041D01*
X100741060Y-46740371D02*
X100076933Y-54331375D01*
X100076933Y-54331375D02*
X110198271Y-55216877D01*
X110198271Y-55216877D02*
X110862398Y-47625874D01*
X110862398Y-47625874D02*
X100741060Y-46740371D01*
X88610868Y-50369478D02*
X98530035Y-48170452D01*
X88335989Y-49129582D02*
X89985259Y-56568958D01*
X89985259Y-56568958D02*
X99904427Y-54369931D01*
X99904427Y-54369931D02*
X98255157Y-46930556D01*
X98255157Y-46930556D02*
X88335989Y-49129582D01*
D11*
X81198097Y-67050000D02*
X81074353Y-66926256D01*
X78900000Y-69348097D02*
X78705546Y-69153643D01*
X76601903Y-67050000D02*
X76796357Y-67244454D01*
X78900000Y-64751903D02*
X79094454Y-64946357D01*
X81198097Y-67050000D02*
X78900000Y-69348097D01*
X78900000Y-64751903D02*
X76601903Y-67050000D01*
X81074353Y-66926256D02*
X81834493Y-66166117D01*
D14*
X112064730Y-116832467D02*
X109563318Y-116391401D01*
D11*
G36*
X109641145Y-136566419D02*
G01*
X109861678Y-135315713D01*
X109126059Y-135830800D01*
X109641145Y-136566419D01*
G37*
X109641145Y-136566419D02*
X109861678Y-135315713D01*
X109126059Y-135830800D01*
X109641145Y-136566419D01*
D14*
X83899650Y-139851361D02*
X105181345Y-143603898D01*
X110761490Y-109596227D02*
X87795774Y-105546752D01*
X87795774Y-105546752D02*
X82181728Y-137385587D01*
X109563318Y-116391401D02*
X110761490Y-109596227D01*
X112064730Y-116832467D02*
X107648856Y-141876128D01*
X107648856Y-141876129D02*
G75*
G02*
X105181345Y-143603898I-2097640J369871D01*
G01*
X83909498Y-139853097D02*
G75*
G02*
X82181728Y-137385587I369870J2097640D01*
G01*
X65635000Y-75075000D02*
X65635000Y-73275000D01*
X62415000Y-73275000D02*
X62415000Y-75725000D01*
X108250000Y-63000000D02*
X108250000Y-64140000D01*
X60710000Y-84175000D02*
X60710000Y-82375000D01*
X57490000Y-82375000D02*
X57490000Y-84825000D01*
X86458578Y-62160000D02*
X85941422Y-62160000D01*
X86458578Y-60740000D02*
X85941422Y-60740000D01*
X81341422Y-117090000D02*
X81858578Y-117090000D01*
X81341422Y-118510000D02*
X81858578Y-118510000D01*
X80741422Y-120490000D02*
X81258578Y-120490000D01*
X80741422Y-121910000D02*
X81258578Y-121910000D01*
X112341422Y-105790000D02*
X112858578Y-105790000D01*
X112341422Y-107210000D02*
X112858578Y-107210000D01*
X108658578Y-107210000D02*
X108141422Y-107210000D01*
X108658578Y-105790000D02*
X108141422Y-105790000D01*
X130458578Y-79310000D02*
X129941422Y-79310000D01*
X130458578Y-77890000D02*
X129941422Y-77890000D01*
X132458578Y-81910000D02*
X131941422Y-81910000D01*
X132458578Y-80490000D02*
X131941422Y-80490000D01*
X130641422Y-72690000D02*
X131158578Y-72690000D01*
X130641422Y-74110000D02*
X131158578Y-74110000D01*
X127941422Y-70090000D02*
X128458578Y-70090000D01*
X127941422Y-71510000D02*
X128458578Y-71510000D01*
X131941422Y-75290000D02*
X132458578Y-75290000D01*
X131941422Y-76710000D02*
X132458578Y-76710000D01*
X66790000Y-80658578D02*
X66790000Y-80141422D01*
X68210000Y-80658578D02*
X68210000Y-80141422D01*
X66765000Y-84883578D02*
X66765000Y-84366422D01*
X68185000Y-84883578D02*
X68185000Y-84366422D01*
X105910000Y-62741422D02*
X105910000Y-63258578D01*
X104490000Y-62741422D02*
X104490000Y-63258578D01*
X83658578Y-83110000D02*
X83141422Y-83110000D01*
X83658578Y-81690000D02*
X83141422Y-81690000D01*
X57710000Y-107991422D02*
X57710000Y-108508578D01*
X56290000Y-107991422D02*
X56290000Y-108508578D01*
X108008578Y-75710000D02*
X107491422Y-75710000D01*
X108008578Y-74290000D02*
X107491422Y-74290000D01*
X87141422Y-65090000D02*
X87658578Y-65090000D01*
X87141422Y-66510000D02*
X87658578Y-66510000D01*
X85266422Y-68790000D02*
X85783578Y-68790000D01*
X85266422Y-70210000D02*
X85783578Y-70210000D01*
X83658578Y-80710000D02*
X83141422Y-80710000D01*
X83658578Y-79290000D02*
X83141422Y-79290000D01*
X79658578Y-78310000D02*
X79141422Y-78310000D01*
X79658578Y-76890000D02*
X79141422Y-76890000D01*
X105491422Y-76790000D02*
X106008578Y-76790000D01*
X105491422Y-78210000D02*
X106008578Y-78210000D01*
X58741422Y-79040000D02*
X59258578Y-79040000D01*
X58741422Y-80460000D02*
X59258578Y-80460000D01*
X107491422Y-79290000D02*
X108008578Y-79290000D01*
X107491422Y-80710000D02*
X108008578Y-80710000D01*
X105491422Y-81790000D02*
X106008578Y-81790000D01*
X105491422Y-83210000D02*
X106008578Y-83210000D01*
X58258578Y-104710000D02*
X57741422Y-104710000D01*
X58258578Y-103290000D02*
X57741422Y-103290000D01*
X62508578Y-104710000D02*
X61991422Y-104710000D01*
X62508578Y-103290000D02*
X61991422Y-103290000D01*
X66758578Y-104710000D02*
X66241422Y-104710000D01*
X66758578Y-103290000D02*
X66241422Y-103290000D01*
X111895295Y-132970443D02*
X115705295Y-139569557D01*
X133302932Y-129409557D02*
X129492932Y-122810443D01*
X132667932Y-128309705D02*
X115070295Y-138469705D01*
X111895295Y-132970443D02*
X129492932Y-122810443D01*
X115705295Y-139569557D02*
X133302932Y-129409557D01*
X59933899Y-114594123D02*
X72444140Y-130606501D01*
X65938541Y-109902782D02*
X78448782Y-125915161D01*
X73444914Y-129824611D02*
X60934673Y-113812233D01*
X72444140Y-130606501D02*
X78448782Y-125915161D01*
X65938541Y-109902782D02*
X59933899Y-114594123D01*
X129671282Y-122555149D02*
X136061952Y-126705298D01*
X147129017Y-109663512D02*
X140738347Y-105513363D01*
X146063905Y-108971820D02*
X134996840Y-126013606D01*
X129671282Y-122555149D02*
X140738347Y-105513363D01*
X136061952Y-126705298D02*
X147129017Y-109663512D01*
X75251974Y-56059872D02*
X80640128Y-61448026D01*
X64475667Y-66836179D02*
X69863821Y-72224333D01*
X76150000Y-56957898D02*
X65373693Y-67734205D01*
X80640128Y-61448026D02*
X69863821Y-72224333D01*
X75251974Y-56059872D02*
X64475667Y-66836179D01*
X77868136Y-55665517D02*
X86880166Y-50974151D01*
X77281715Y-54539013D02*
X80800240Y-61298036D01*
X80800240Y-61298036D02*
X89812270Y-56606670D01*
X89812270Y-56606670D02*
X86293745Y-49847647D01*
X86293745Y-49847647D02*
X77281715Y-54539013D01*
X57210000Y-99620000D02*
X57210000Y-89460000D01*
X55940000Y-99620000D02*
X63560000Y-99620000D01*
X63560000Y-99620000D02*
X63560000Y-89460000D01*
X63560000Y-89460000D02*
X55940000Y-89460000D01*
X55940000Y-89460000D02*
X55940000Y-99620000D01*
X63105000Y-105715000D02*
X61345000Y-105715000D01*
X61345000Y-108785000D02*
X63775000Y-108785000D01*
X74380796Y-71184888D02*
X74015112Y-70819204D01*
X75384888Y-70180796D02*
X75019204Y-69815112D01*
X126941422Y-67490000D02*
X127458578Y-67490000D01*
X126941422Y-68910000D02*
X127458578Y-68910000D01*
X121858578Y-70710000D02*
X121341422Y-70710000D01*
X121858578Y-69290000D02*
X121341422Y-69290000D01*
X65041422Y-69390000D02*
X65558578Y-69390000D01*
X65041422Y-70810000D02*
X65558578Y-70810000D01*
X60610000Y-74841422D02*
X60610000Y-75358578D01*
X59190000Y-74841422D02*
X59190000Y-75358578D01*
X68310000Y-73941422D02*
X68310000Y-74458578D01*
X66890000Y-73941422D02*
X66890000Y-74458578D01*
X109341422Y-57890000D02*
X109858578Y-57890000D01*
X109341422Y-59310000D02*
X109858578Y-59310000D01*
X105541422Y-67090000D02*
X106058578Y-67090000D01*
X105541422Y-68510000D02*
X106058578Y-68510000D01*
X63958578Y-79110000D02*
X63441422Y-79110000D01*
X63958578Y-77690000D02*
X63441422Y-77690000D01*
X105541422Y-69490000D02*
X106058578Y-69490000D01*
X105541422Y-70910000D02*
X106058578Y-70910000D01*
X105541422Y-71890000D02*
X106058578Y-71890000D01*
X105541422Y-73310000D02*
X106058578Y-73310000D01*
X81658578Y-72960000D02*
X81141422Y-72960000D01*
X81658578Y-71540000D02*
X81141422Y-71540000D01*
X61790000Y-84958578D02*
X61790000Y-84441422D01*
X63210000Y-84958578D02*
X63210000Y-84441422D01*
X83658578Y-78310000D02*
X83141422Y-78310000D01*
X83658578Y-76890000D02*
X83141422Y-76890000D01*
X83658578Y-75710000D02*
X83141422Y-75710000D01*
X83658578Y-74290000D02*
X83141422Y-74290000D01*
X79141422Y-79290000D02*
X79658578Y-79290000D01*
X79141422Y-80710000D02*
X79658578Y-80710000D01*
X58791422Y-86690000D02*
X59308578Y-86690000D01*
X58791422Y-88110000D02*
X59308578Y-88110000D01*
X121341422Y-63790000D02*
X121858578Y-63790000D01*
X121341422Y-65210000D02*
X121858578Y-65210000D01*
X119790000Y-61758578D02*
X119790000Y-61241422D01*
X121210000Y-61758578D02*
X121210000Y-61241422D01*
X66000000Y-89750000D02*
X66000000Y-87250000D01*
X64750000Y-88500000D02*
X67250000Y-88500000D01*
X152250000Y-88500000D02*
X149750000Y-88500000D01*
X147140000Y-91060000D02*
X147140000Y-84080000D01*
X147140000Y-84060000D02*
X69860000Y-84060000D01*
X69860000Y-84060000D02*
X69860000Y-91060000D01*
X147140000Y-97940000D02*
X147140000Y-104940000D01*
X147140000Y-104940000D02*
X69860000Y-104940000D01*
X69860000Y-104940000D02*
X69860000Y-97940000D01*
X69860000Y-91060000D02*
X65500000Y-91060000D01*
D11*
X119243095Y-72617380D02*
X119243095Y-73426904D01*
X119290714Y-73522142D01*
X119338333Y-73569761D01*
X119433571Y-73617380D01*
X119624047Y-73617380D01*
X119719285Y-73569761D01*
X119766904Y-73522142D01*
X119814523Y-73426904D01*
X119814523Y-72617380D01*
X120719285Y-72617380D02*
X120528809Y-72617380D01*
X120433571Y-72665000D01*
X120385952Y-72712619D01*
X120290714Y-72855476D01*
X120243095Y-73045952D01*
X120243095Y-73426904D01*
X120290714Y-73522142D01*
X120338333Y-73569761D01*
X120433571Y-73617380D01*
X120624047Y-73617380D01*
X120719285Y-73569761D01*
X120766904Y-73522142D01*
X120814523Y-73426904D01*
X120814523Y-73188809D01*
X120766904Y-73093571D01*
X120719285Y-73045952D01*
X120624047Y-72998333D01*
X120433571Y-72998333D01*
X120338333Y-73045952D01*
X120290714Y-73093571D01*
X120243095Y-73188809D01*
X92793095Y-70790380D02*
X92793095Y-71599904D01*
X92840714Y-71695142D01*
X92888333Y-71742761D01*
X92983571Y-71790380D01*
X93174047Y-71790380D01*
X93269285Y-71742761D01*
X93316904Y-71695142D01*
X93364523Y-71599904D01*
X93364523Y-70790380D01*
X93745476Y-70790380D02*
X94364523Y-70790380D01*
X94031190Y-71171333D01*
X94174047Y-71171333D01*
X94269285Y-71218952D01*
X94316904Y-71266571D01*
X94364523Y-71361809D01*
X94364523Y-71599904D01*
X94316904Y-71695142D01*
X94269285Y-71742761D01*
X94174047Y-71790380D01*
X93888333Y-71790380D01*
X93793095Y-71742761D01*
X93745476Y-71695142D01*
X113238095Y-58352380D02*
X113809523Y-58352380D01*
X113523809Y-59352380D02*
X113523809Y-58352380D01*
X114142857Y-59352380D02*
X114142857Y-58352380D01*
X114523809Y-58352380D01*
X114619047Y-58400000D01*
X114666666Y-58447619D01*
X114714285Y-58542857D01*
X114714285Y-58685714D01*
X114666666Y-58780952D01*
X114619047Y-58828571D01*
X114523809Y-58876190D01*
X114142857Y-58876190D01*
X115095238Y-58447619D02*
X115142857Y-58400000D01*
X115238095Y-58352380D01*
X115476190Y-58352380D01*
X115571428Y-58400000D01*
X115619047Y-58447619D01*
X115666666Y-58542857D01*
X115666666Y-58638095D01*
X115619047Y-58780952D01*
X115047619Y-59352380D01*
X115666666Y-59352380D01*
X101252380Y-57766666D02*
X100776190Y-58100000D01*
X101252380Y-58338095D02*
X100252380Y-58338095D01*
X100252380Y-57957142D01*
X100300000Y-57861904D01*
X100347619Y-57814285D01*
X100442857Y-57766666D01*
X100585714Y-57766666D01*
X100680952Y-57814285D01*
X100728571Y-57861904D01*
X100776190Y-57957142D01*
X100776190Y-58338095D01*
X100252380Y-57433333D02*
X100252380Y-56766666D01*
X101252380Y-57195238D01*
X107452380Y-57766666D02*
X106976190Y-58100000D01*
X107452380Y-58338095D02*
X106452380Y-58338095D01*
X106452380Y-57957142D01*
X106500000Y-57861904D01*
X106547619Y-57814285D01*
X106642857Y-57766666D01*
X106785714Y-57766666D01*
X106880952Y-57814285D01*
X106928571Y-57861904D01*
X106976190Y-57957142D01*
X106976190Y-58338095D01*
X106452380Y-56861904D02*
X106452380Y-57338095D01*
X106928571Y-57385714D01*
X106880952Y-57338095D01*
X106833333Y-57242857D01*
X106833333Y-57004761D01*
X106880952Y-56909523D01*
X106928571Y-56861904D01*
X107023809Y-56814285D01*
X107261904Y-56814285D01*
X107357142Y-56861904D01*
X107404761Y-56909523D01*
X107452380Y-57004761D01*
X107452380Y-57242857D01*
X107404761Y-57338095D01*
X107357142Y-57385714D01*
X67738095Y-105552380D02*
X68309523Y-105552380D01*
X68023809Y-106552380D02*
X68023809Y-105552380D01*
X68642857Y-106552380D02*
X68642857Y-105552380D01*
X69023809Y-105552380D01*
X69119047Y-105600000D01*
X69166666Y-105647619D01*
X69214285Y-105742857D01*
X69214285Y-105885714D01*
X69166666Y-105980952D01*
X69119047Y-106028571D01*
X69023809Y-106076190D01*
X68642857Y-106076190D01*
X70166666Y-106552380D02*
X69595238Y-106552380D01*
X69880952Y-106552380D02*
X69880952Y-105552380D01*
X69785714Y-105695238D01*
X69690476Y-105790476D01*
X69595238Y-105838095D01*
X142533536Y-68755438D02*
X142231666Y-68108075D01*
X142214449Y-67958478D01*
X142260515Y-67831914D01*
X142369863Y-67728382D01*
X142456178Y-67688133D01*
X142188276Y-68916436D02*
X141584071Y-69198181D01*
X141549870Y-68110751D01*
X134215725Y-59178550D02*
X133733160Y-58651923D01*
X133671756Y-58514427D01*
X133677631Y-58379868D01*
X133750785Y-58248247D01*
X133821002Y-58183905D01*
X133548664Y-59789798D02*
X133689098Y-59661114D01*
X133727144Y-59561664D01*
X133730081Y-59494385D01*
X133703785Y-59324717D01*
X133610210Y-59152113D01*
X133352842Y-58871245D01*
X133253392Y-58833199D01*
X133186113Y-58830262D01*
X133083725Y-58859495D01*
X132943291Y-58988179D01*
X132905245Y-59087629D01*
X132902308Y-59154909D01*
X132931541Y-59257297D01*
X133092396Y-59432839D01*
X133191846Y-59470885D01*
X133259126Y-59473822D01*
X133361513Y-59444589D01*
X133501947Y-59315905D01*
X133539993Y-59216454D01*
X133542931Y-59149175D01*
X133513697Y-59046787D01*
X123956228Y-52429948D02*
X123353805Y-52046162D01*
X123258906Y-51929243D01*
X123229755Y-51797749D01*
X123266350Y-51651679D01*
X123317522Y-51571356D01*
X123444514Y-53233177D02*
X123700371Y-52831562D01*
X123324341Y-52535544D01*
X123338917Y-52601291D01*
X123327907Y-52707200D01*
X123199979Y-52908007D01*
X123108646Y-52962745D01*
X123042899Y-52977321D01*
X122936990Y-52966311D01*
X122736183Y-52838382D01*
X122681445Y-52747049D01*
X122666869Y-52681302D01*
X122677879Y-52575393D01*
X122805808Y-52374586D01*
X122897141Y-52319849D01*
X122962888Y-52305273D01*
X112695157Y-48256216D02*
X112023948Y-48011916D01*
X111905993Y-47918309D01*
X111849071Y-47796241D01*
X111853184Y-47645713D01*
X111885758Y-47556218D01*
X112072479Y-48992408D02*
X111446017Y-48764394D01*
X112511891Y-48898965D02*
X111922115Y-48430928D01*
X111710388Y-49012643D01*
X100384039Y-47079660D02*
X99672471Y-47017406D01*
X99534308Y-46957517D01*
X99447733Y-46854341D01*
X99412746Y-46707877D01*
X99421046Y-46613001D01*
X100350836Y-47459162D02*
X100296883Y-48075854D01*
X99946432Y-47710587D01*
X99933981Y-47852901D01*
X99878243Y-47943626D01*
X99826655Y-47986914D01*
X99727629Y-48026051D01*
X99490440Y-48005300D01*
X99399714Y-47949561D01*
X99356427Y-47897973D01*
X99317289Y-47798947D01*
X99342191Y-47514320D01*
X99397929Y-47423595D01*
X99449517Y-47380307D01*
X88103834Y-49618075D02*
X87406480Y-49772675D01*
X87256702Y-49757104D01*
X87143109Y-49684737D01*
X87065698Y-49555573D01*
X87045085Y-49462592D01*
X88103614Y-50057101D02*
X88160410Y-50093285D01*
X88227514Y-50175958D01*
X88279047Y-50408410D01*
X88253170Y-50511697D01*
X88216987Y-50568494D01*
X88134313Y-50635598D01*
X88041332Y-50656211D01*
X87891555Y-50640641D01*
X87209991Y-50206437D01*
X87343978Y-50810811D01*
X79777148Y-69004644D02*
X80349568Y-69577064D01*
X80450583Y-69610736D01*
X80517927Y-69610736D01*
X80618942Y-69577064D01*
X80753629Y-69442377D01*
X80787301Y-69341362D01*
X80787301Y-69274018D01*
X80753629Y-69173003D01*
X80181209Y-68600583D01*
X80921988Y-68465896D02*
X80820973Y-68499568D01*
X80753629Y-68499568D01*
X80652614Y-68465896D01*
X80618942Y-68432225D01*
X80585270Y-68331209D01*
X80585270Y-68263866D01*
X80618942Y-68162851D01*
X80753629Y-68028164D01*
X80854644Y-67994492D01*
X80921988Y-67994492D01*
X81023003Y-68028164D01*
X81056675Y-68061835D01*
X81090347Y-68162851D01*
X81090347Y-68230194D01*
X81056675Y-68331209D01*
X80921988Y-68465896D01*
X80888316Y-68566912D01*
X80888316Y-68634255D01*
X80921988Y-68735270D01*
X81056675Y-68869957D01*
X81157690Y-68903629D01*
X81225034Y-68903629D01*
X81326049Y-68869957D01*
X81460736Y-68735270D01*
X81494408Y-68634255D01*
X81494408Y-68566912D01*
X81460736Y-68465896D01*
X81326049Y-68331209D01*
X81225034Y-68297538D01*
X81157690Y-68297538D01*
X81056675Y-68331209D01*
X110344763Y-115078397D02*
X110204190Y-115875622D01*
X110234548Y-115977682D01*
X110273175Y-116032847D01*
X110358697Y-116096280D01*
X110546280Y-116129356D01*
X110648340Y-116098998D01*
X110703504Y-116060372D01*
X110766938Y-115974849D01*
X110907510Y-115177624D01*
X111282675Y-115243776D02*
X111939213Y-115359541D01*
X111343505Y-116269928D01*
X61252380Y-75461904D02*
X62061904Y-75461904D01*
X62157142Y-75414285D01*
X62204761Y-75366666D01*
X62252380Y-75271428D01*
X62252380Y-75080952D01*
X62204761Y-74985714D01*
X62157142Y-74938095D01*
X62061904Y-74890476D01*
X61252380Y-74890476D01*
X61252380Y-73938095D02*
X61252380Y-74414285D01*
X61728571Y-74461904D01*
X61680952Y-74414285D01*
X61633333Y-74319047D01*
X61633333Y-74080952D01*
X61680952Y-73985714D01*
X61728571Y-73938095D01*
X61823809Y-73890476D01*
X62061904Y-73890476D01*
X62157142Y-73938095D01*
X62204761Y-73985714D01*
X62252380Y-74080952D01*
X62252380Y-74319047D01*
X62204761Y-74414285D01*
X62157142Y-74461904D01*
X108838095Y-64652380D02*
X108838095Y-65461904D01*
X108885714Y-65557142D01*
X108933333Y-65604761D01*
X109028571Y-65652380D01*
X109219047Y-65652380D01*
X109314285Y-65604761D01*
X109361904Y-65557142D01*
X109409523Y-65461904D01*
X109409523Y-64652380D01*
X110314285Y-64985714D02*
X110314285Y-65652380D01*
X110076190Y-64604761D02*
X109838095Y-65319047D01*
X110457142Y-65319047D01*
X56202380Y-84261904D02*
X57011904Y-84261904D01*
X57107142Y-84214285D01*
X57154761Y-84166666D01*
X57202380Y-84071428D01*
X57202380Y-83880952D01*
X57154761Y-83785714D01*
X57107142Y-83738095D01*
X57011904Y-83690476D01*
X56202380Y-83690476D01*
X57202380Y-82690476D02*
X57202380Y-83261904D01*
X57202380Y-82976190D02*
X56202380Y-82976190D01*
X56345238Y-83071428D01*
X56440476Y-83166666D01*
X56488095Y-83261904D01*
X88649034Y-61954393D02*
X88315701Y-61478203D01*
X88077606Y-61954393D02*
X88077606Y-60954393D01*
X88458558Y-60954393D01*
X88553796Y-61002013D01*
X88601415Y-61049632D01*
X88649034Y-61144870D01*
X88649034Y-61287727D01*
X88601415Y-61382965D01*
X88553796Y-61430584D01*
X88458558Y-61478203D01*
X88077606Y-61478203D01*
X89029987Y-61049632D02*
X89077606Y-61002013D01*
X89172844Y-60954393D01*
X89410939Y-60954393D01*
X89506177Y-61002013D01*
X89553796Y-61049632D01*
X89601415Y-61144870D01*
X89601415Y-61240108D01*
X89553796Y-61382965D01*
X88982368Y-61954393D01*
X89601415Y-61954393D01*
X90077606Y-61954393D02*
X90268082Y-61954393D01*
X90363320Y-61906774D01*
X90410939Y-61859155D01*
X90506177Y-61716298D01*
X90553796Y-61525822D01*
X90553796Y-61144870D01*
X90506177Y-61049632D01*
X90458558Y-61002013D01*
X90363320Y-60954393D01*
X90172844Y-60954393D01*
X90077606Y-61002013D01*
X90029987Y-61049632D01*
X89982368Y-61144870D01*
X89982368Y-61382965D01*
X90029987Y-61478203D01*
X90077606Y-61525822D01*
X90172844Y-61573441D01*
X90363320Y-61573441D01*
X90458558Y-61525822D01*
X90506177Y-61478203D01*
X90553796Y-61382965D01*
X80957142Y-116602380D02*
X80623809Y-116126190D01*
X80385714Y-116602380D02*
X80385714Y-115602380D01*
X80766666Y-115602380D01*
X80861904Y-115650000D01*
X80909523Y-115697619D01*
X80957142Y-115792857D01*
X80957142Y-115935714D01*
X80909523Y-116030952D01*
X80861904Y-116078571D01*
X80766666Y-116126190D01*
X80385714Y-116126190D01*
X81338095Y-115697619D02*
X81385714Y-115650000D01*
X81480952Y-115602380D01*
X81719047Y-115602380D01*
X81814285Y-115650000D01*
X81861904Y-115697619D01*
X81909523Y-115792857D01*
X81909523Y-115888095D01*
X81861904Y-116030952D01*
X81290476Y-116602380D01*
X81909523Y-116602380D01*
X82480952Y-116030952D02*
X82385714Y-115983333D01*
X82338095Y-115935714D01*
X82290476Y-115840476D01*
X82290476Y-115792857D01*
X82338095Y-115697619D01*
X82385714Y-115650000D01*
X82480952Y-115602380D01*
X82671428Y-115602380D01*
X82766666Y-115650000D01*
X82814285Y-115697619D01*
X82861904Y-115792857D01*
X82861904Y-115840476D01*
X82814285Y-115935714D01*
X82766666Y-115983333D01*
X82671428Y-116030952D01*
X82480952Y-116030952D01*
X82385714Y-116078571D01*
X82338095Y-116126190D01*
X82290476Y-116221428D01*
X82290476Y-116411904D01*
X82338095Y-116507142D01*
X82385714Y-116554761D01*
X82480952Y-116602380D01*
X82671428Y-116602380D01*
X82766666Y-116554761D01*
X82814285Y-116507142D01*
X82861904Y-116411904D01*
X82861904Y-116221428D01*
X82814285Y-116126190D01*
X82766666Y-116078571D01*
X82671428Y-116030952D01*
X80357142Y-120002380D02*
X80023809Y-119526190D01*
X79785714Y-120002380D02*
X79785714Y-119002380D01*
X80166666Y-119002380D01*
X80261904Y-119050000D01*
X80309523Y-119097619D01*
X80357142Y-119192857D01*
X80357142Y-119335714D01*
X80309523Y-119430952D01*
X80261904Y-119478571D01*
X80166666Y-119526190D01*
X79785714Y-119526190D01*
X80738095Y-119097619D02*
X80785714Y-119050000D01*
X80880952Y-119002380D01*
X81119047Y-119002380D01*
X81214285Y-119050000D01*
X81261904Y-119097619D01*
X81309523Y-119192857D01*
X81309523Y-119288095D01*
X81261904Y-119430952D01*
X80690476Y-120002380D01*
X81309523Y-120002380D01*
X81642857Y-119002380D02*
X82309523Y-119002380D01*
X81880952Y-120002380D01*
X111957142Y-108652380D02*
X111623809Y-108176190D01*
X111385714Y-108652380D02*
X111385714Y-107652380D01*
X111766666Y-107652380D01*
X111861904Y-107700000D01*
X111909523Y-107747619D01*
X111957142Y-107842857D01*
X111957142Y-107985714D01*
X111909523Y-108080952D01*
X111861904Y-108128571D01*
X111766666Y-108176190D01*
X111385714Y-108176190D01*
X112338095Y-107747619D02*
X112385714Y-107700000D01*
X112480952Y-107652380D01*
X112719047Y-107652380D01*
X112814285Y-107700000D01*
X112861904Y-107747619D01*
X112909523Y-107842857D01*
X112909523Y-107938095D01*
X112861904Y-108080952D01*
X112290476Y-108652380D01*
X112909523Y-108652380D01*
X113766666Y-107652380D02*
X113576190Y-107652380D01*
X113480952Y-107700000D01*
X113433333Y-107747619D01*
X113338095Y-107890476D01*
X113290476Y-108080952D01*
X113290476Y-108461904D01*
X113338095Y-108557142D01*
X113385714Y-108604761D01*
X113480952Y-108652380D01*
X113671428Y-108652380D01*
X113766666Y-108604761D01*
X113814285Y-108557142D01*
X113861904Y-108461904D01*
X113861904Y-108223809D01*
X113814285Y-108128571D01*
X113766666Y-108080952D01*
X113671428Y-108033333D01*
X113480952Y-108033333D01*
X113385714Y-108080952D01*
X113338095Y-108128571D01*
X113290476Y-108223809D01*
X107757142Y-108602380D02*
X107423809Y-108126190D01*
X107185714Y-108602380D02*
X107185714Y-107602380D01*
X107566666Y-107602380D01*
X107661904Y-107650000D01*
X107709523Y-107697619D01*
X107757142Y-107792857D01*
X107757142Y-107935714D01*
X107709523Y-108030952D01*
X107661904Y-108078571D01*
X107566666Y-108126190D01*
X107185714Y-108126190D01*
X108138095Y-107697619D02*
X108185714Y-107650000D01*
X108280952Y-107602380D01*
X108519047Y-107602380D01*
X108614285Y-107650000D01*
X108661904Y-107697619D01*
X108709523Y-107792857D01*
X108709523Y-107888095D01*
X108661904Y-108030952D01*
X108090476Y-108602380D01*
X108709523Y-108602380D01*
X109614285Y-107602380D02*
X109138095Y-107602380D01*
X109090476Y-108078571D01*
X109138095Y-108030952D01*
X109233333Y-107983333D01*
X109471428Y-107983333D01*
X109566666Y-108030952D01*
X109614285Y-108078571D01*
X109661904Y-108173809D01*
X109661904Y-108411904D01*
X109614285Y-108507142D01*
X109566666Y-108554761D01*
X109471428Y-108602380D01*
X109233333Y-108602380D01*
X109138095Y-108554761D01*
X109090476Y-108507142D01*
X132557142Y-79052380D02*
X132223809Y-78576190D01*
X131985714Y-79052380D02*
X131985714Y-78052380D01*
X132366666Y-78052380D01*
X132461904Y-78100000D01*
X132509523Y-78147619D01*
X132557142Y-78242857D01*
X132557142Y-78385714D01*
X132509523Y-78480952D01*
X132461904Y-78528571D01*
X132366666Y-78576190D01*
X131985714Y-78576190D01*
X132938095Y-78147619D02*
X132985714Y-78100000D01*
X133080952Y-78052380D01*
X133319047Y-78052380D01*
X133414285Y-78100000D01*
X133461904Y-78147619D01*
X133509523Y-78242857D01*
X133509523Y-78338095D01*
X133461904Y-78480952D01*
X132890476Y-79052380D01*
X133509523Y-79052380D01*
X134366666Y-78385714D02*
X134366666Y-79052380D01*
X134128571Y-78004761D02*
X133890476Y-78719047D01*
X134509523Y-78719047D01*
X134557142Y-81652380D02*
X134223809Y-81176190D01*
X133985714Y-81652380D02*
X133985714Y-80652380D01*
X134366666Y-80652380D01*
X134461904Y-80700000D01*
X134509523Y-80747619D01*
X134557142Y-80842857D01*
X134557142Y-80985714D01*
X134509523Y-81080952D01*
X134461904Y-81128571D01*
X134366666Y-81176190D01*
X133985714Y-81176190D01*
X134938095Y-80747619D02*
X134985714Y-80700000D01*
X135080952Y-80652380D01*
X135319047Y-80652380D01*
X135414285Y-80700000D01*
X135461904Y-80747619D01*
X135509523Y-80842857D01*
X135509523Y-80938095D01*
X135461904Y-81080952D01*
X134890476Y-81652380D01*
X135509523Y-81652380D01*
X135842857Y-80652380D02*
X136461904Y-80652380D01*
X136128571Y-81033333D01*
X136271428Y-81033333D01*
X136366666Y-81080952D01*
X136414285Y-81128571D01*
X136461904Y-81223809D01*
X136461904Y-81461904D01*
X136414285Y-81557142D01*
X136366666Y-81604761D01*
X136271428Y-81652380D01*
X135985714Y-81652380D01*
X135890476Y-81604761D01*
X135842857Y-81557142D01*
X133257142Y-73852380D02*
X132923809Y-73376190D01*
X132685714Y-73852380D02*
X132685714Y-72852380D01*
X133066666Y-72852380D01*
X133161904Y-72900000D01*
X133209523Y-72947619D01*
X133257142Y-73042857D01*
X133257142Y-73185714D01*
X133209523Y-73280952D01*
X133161904Y-73328571D01*
X133066666Y-73376190D01*
X132685714Y-73376190D01*
X133638095Y-72947619D02*
X133685714Y-72900000D01*
X133780952Y-72852380D01*
X134019047Y-72852380D01*
X134114285Y-72900000D01*
X134161904Y-72947619D01*
X134209523Y-73042857D01*
X134209523Y-73138095D01*
X134161904Y-73280952D01*
X133590476Y-73852380D01*
X134209523Y-73852380D01*
X134590476Y-72947619D02*
X134638095Y-72900000D01*
X134733333Y-72852380D01*
X134971428Y-72852380D01*
X135066666Y-72900000D01*
X135114285Y-72947619D01*
X135161904Y-73042857D01*
X135161904Y-73138095D01*
X135114285Y-73280952D01*
X134542857Y-73852380D01*
X135161904Y-73852380D01*
X130657142Y-71252380D02*
X130323809Y-70776190D01*
X130085714Y-71252380D02*
X130085714Y-70252380D01*
X130466666Y-70252380D01*
X130561904Y-70300000D01*
X130609523Y-70347619D01*
X130657142Y-70442857D01*
X130657142Y-70585714D01*
X130609523Y-70680952D01*
X130561904Y-70728571D01*
X130466666Y-70776190D01*
X130085714Y-70776190D01*
X131038095Y-70347619D02*
X131085714Y-70300000D01*
X131180952Y-70252380D01*
X131419047Y-70252380D01*
X131514285Y-70300000D01*
X131561904Y-70347619D01*
X131609523Y-70442857D01*
X131609523Y-70538095D01*
X131561904Y-70680952D01*
X130990476Y-71252380D01*
X131609523Y-71252380D01*
X132561904Y-71252380D02*
X131990476Y-71252380D01*
X132276190Y-71252380D02*
X132276190Y-70252380D01*
X132180952Y-70395238D01*
X132085714Y-70490476D01*
X131990476Y-70538095D01*
X134557142Y-76452380D02*
X134223809Y-75976190D01*
X133985714Y-76452380D02*
X133985714Y-75452380D01*
X134366666Y-75452380D01*
X134461904Y-75500000D01*
X134509523Y-75547619D01*
X134557142Y-75642857D01*
X134557142Y-75785714D01*
X134509523Y-75880952D01*
X134461904Y-75928571D01*
X134366666Y-75976190D01*
X133985714Y-75976190D01*
X134938095Y-75547619D02*
X134985714Y-75500000D01*
X135080952Y-75452380D01*
X135319047Y-75452380D01*
X135414285Y-75500000D01*
X135461904Y-75547619D01*
X135509523Y-75642857D01*
X135509523Y-75738095D01*
X135461904Y-75880952D01*
X134890476Y-76452380D01*
X135509523Y-76452380D01*
X136128571Y-75452380D02*
X136223809Y-75452380D01*
X136319047Y-75500000D01*
X136366666Y-75547619D01*
X136414285Y-75642857D01*
X136461904Y-75833333D01*
X136461904Y-76071428D01*
X136414285Y-76261904D01*
X136366666Y-76357142D01*
X136319047Y-76404761D01*
X136223809Y-76452380D01*
X136128571Y-76452380D01*
X136033333Y-76404761D01*
X135985714Y-76357142D01*
X135938095Y-76261904D01*
X135890476Y-76071428D01*
X135890476Y-75833333D01*
X135938095Y-75642857D01*
X135985714Y-75547619D01*
X136033333Y-75500000D01*
X136128571Y-75452380D01*
X66302380Y-81042857D02*
X65826190Y-81376190D01*
X66302380Y-81614285D02*
X65302380Y-81614285D01*
X65302380Y-81233333D01*
X65350000Y-81138095D01*
X65397619Y-81090476D01*
X65492857Y-81042857D01*
X65635714Y-81042857D01*
X65730952Y-81090476D01*
X65778571Y-81138095D01*
X65826190Y-81233333D01*
X65826190Y-81614285D01*
X66302380Y-80090476D02*
X66302380Y-80661904D01*
X66302380Y-80376190D02*
X65302380Y-80376190D01*
X65445238Y-80471428D01*
X65540476Y-80566666D01*
X65588095Y-80661904D01*
X66302380Y-79614285D02*
X66302380Y-79423809D01*
X66254761Y-79328571D01*
X66207142Y-79280952D01*
X66064285Y-79185714D01*
X65873809Y-79138095D01*
X65492857Y-79138095D01*
X65397619Y-79185714D01*
X65350000Y-79233333D01*
X65302380Y-79328571D01*
X65302380Y-79519047D01*
X65350000Y-79614285D01*
X65397619Y-79661904D01*
X65492857Y-79709523D01*
X65730952Y-79709523D01*
X65826190Y-79661904D01*
X65873809Y-79614285D01*
X65921428Y-79519047D01*
X65921428Y-79328571D01*
X65873809Y-79233333D01*
X65826190Y-79185714D01*
X65730952Y-79138095D01*
X66277380Y-85267857D02*
X65801190Y-85601190D01*
X66277380Y-85839285D02*
X65277380Y-85839285D01*
X65277380Y-85458333D01*
X65325000Y-85363095D01*
X65372619Y-85315476D01*
X65467857Y-85267857D01*
X65610714Y-85267857D01*
X65705952Y-85315476D01*
X65753571Y-85363095D01*
X65801190Y-85458333D01*
X65801190Y-85839285D01*
X66277380Y-84315476D02*
X66277380Y-84886904D01*
X66277380Y-84601190D02*
X65277380Y-84601190D01*
X65420238Y-84696428D01*
X65515476Y-84791666D01*
X65563095Y-84886904D01*
X65705952Y-83744047D02*
X65658333Y-83839285D01*
X65610714Y-83886904D01*
X65515476Y-83934523D01*
X65467857Y-83934523D01*
X65372619Y-83886904D01*
X65325000Y-83839285D01*
X65277380Y-83744047D01*
X65277380Y-83553571D01*
X65325000Y-83458333D01*
X65372619Y-83410714D01*
X65467857Y-83363095D01*
X65515476Y-83363095D01*
X65610714Y-83410714D01*
X65658333Y-83458333D01*
X65705952Y-83553571D01*
X65705952Y-83744047D01*
X65753571Y-83839285D01*
X65801190Y-83886904D01*
X65896428Y-83934523D01*
X66086904Y-83934523D01*
X66182142Y-83886904D01*
X66229761Y-83839285D01*
X66277380Y-83744047D01*
X66277380Y-83553571D01*
X66229761Y-83458333D01*
X66182142Y-83410714D01*
X66086904Y-83363095D01*
X65896428Y-83363095D01*
X65801190Y-83410714D01*
X65753571Y-83458333D01*
X65705952Y-83553571D01*
X107302380Y-63642857D02*
X106826190Y-63976190D01*
X107302380Y-64214285D02*
X106302380Y-64214285D01*
X106302380Y-63833333D01*
X106350000Y-63738095D01*
X106397619Y-63690476D01*
X106492857Y-63642857D01*
X106635714Y-63642857D01*
X106730952Y-63690476D01*
X106778571Y-63738095D01*
X106826190Y-63833333D01*
X106826190Y-64214285D01*
X107302380Y-62690476D02*
X107302380Y-63261904D01*
X107302380Y-62976190D02*
X106302380Y-62976190D01*
X106445238Y-63071428D01*
X106540476Y-63166666D01*
X106588095Y-63261904D01*
X106302380Y-62357142D02*
X106302380Y-61690476D01*
X107302380Y-62119047D01*
X79757142Y-82852380D02*
X79423809Y-82376190D01*
X79185714Y-82852380D02*
X79185714Y-81852380D01*
X79566666Y-81852380D01*
X79661904Y-81900000D01*
X79709523Y-81947619D01*
X79757142Y-82042857D01*
X79757142Y-82185714D01*
X79709523Y-82280952D01*
X79661904Y-82328571D01*
X79566666Y-82376190D01*
X79185714Y-82376190D01*
X80709523Y-82852380D02*
X80138095Y-82852380D01*
X80423809Y-82852380D02*
X80423809Y-81852380D01*
X80328571Y-81995238D01*
X80233333Y-82090476D01*
X80138095Y-82138095D01*
X81566666Y-81852380D02*
X81376190Y-81852380D01*
X81280952Y-81900000D01*
X81233333Y-81947619D01*
X81138095Y-82090476D01*
X81090476Y-82280952D01*
X81090476Y-82661904D01*
X81138095Y-82757142D01*
X81185714Y-82804761D01*
X81280952Y-82852380D01*
X81471428Y-82852380D01*
X81566666Y-82804761D01*
X81614285Y-82757142D01*
X81661904Y-82661904D01*
X81661904Y-82423809D01*
X81614285Y-82328571D01*
X81566666Y-82280952D01*
X81471428Y-82233333D01*
X81280952Y-82233333D01*
X81185714Y-82280952D01*
X81138095Y-82328571D01*
X81090476Y-82423809D01*
X59102380Y-108892857D02*
X58626190Y-109226190D01*
X59102380Y-109464285D02*
X58102380Y-109464285D01*
X58102380Y-109083333D01*
X58150000Y-108988095D01*
X58197619Y-108940476D01*
X58292857Y-108892857D01*
X58435714Y-108892857D01*
X58530952Y-108940476D01*
X58578571Y-108988095D01*
X58626190Y-109083333D01*
X58626190Y-109464285D01*
X59102380Y-107940476D02*
X59102380Y-108511904D01*
X59102380Y-108226190D02*
X58102380Y-108226190D01*
X58245238Y-108321428D01*
X58340476Y-108416666D01*
X58388095Y-108511904D01*
X58102380Y-107035714D02*
X58102380Y-107511904D01*
X58578571Y-107559523D01*
X58530952Y-107511904D01*
X58483333Y-107416666D01*
X58483333Y-107178571D01*
X58530952Y-107083333D01*
X58578571Y-107035714D01*
X58673809Y-106988095D01*
X58911904Y-106988095D01*
X59007142Y-107035714D01*
X59054761Y-107083333D01*
X59102380Y-107178571D01*
X59102380Y-107416666D01*
X59054761Y-107511904D01*
X59007142Y-107559523D01*
X110107142Y-75452380D02*
X109773809Y-74976190D01*
X109535714Y-75452380D02*
X109535714Y-74452380D01*
X109916666Y-74452380D01*
X110011904Y-74500000D01*
X110059523Y-74547619D01*
X110107142Y-74642857D01*
X110107142Y-74785714D01*
X110059523Y-74880952D01*
X110011904Y-74928571D01*
X109916666Y-74976190D01*
X109535714Y-74976190D01*
X111059523Y-75452380D02*
X110488095Y-75452380D01*
X110773809Y-75452380D02*
X110773809Y-74452380D01*
X110678571Y-74595238D01*
X110583333Y-74690476D01*
X110488095Y-74738095D01*
X111916666Y-74785714D02*
X111916666Y-75452380D01*
X111678571Y-74404761D02*
X111440476Y-75119047D01*
X112059523Y-75119047D01*
X86757142Y-64627380D02*
X86423809Y-64151190D01*
X86185714Y-64627380D02*
X86185714Y-63627380D01*
X86566666Y-63627380D01*
X86661904Y-63675000D01*
X86709523Y-63722619D01*
X86757142Y-63817857D01*
X86757142Y-63960714D01*
X86709523Y-64055952D01*
X86661904Y-64103571D01*
X86566666Y-64151190D01*
X86185714Y-64151190D01*
X87709523Y-64627380D02*
X87138095Y-64627380D01*
X87423809Y-64627380D02*
X87423809Y-63627380D01*
X87328571Y-63770238D01*
X87233333Y-63865476D01*
X87138095Y-63913095D01*
X88042857Y-63627380D02*
X88661904Y-63627380D01*
X88328571Y-64008333D01*
X88471428Y-64008333D01*
X88566666Y-64055952D01*
X88614285Y-64103571D01*
X88661904Y-64198809D01*
X88661904Y-64436904D01*
X88614285Y-64532142D01*
X88566666Y-64579761D01*
X88471428Y-64627380D01*
X88185714Y-64627380D01*
X88090476Y-64579761D01*
X88042857Y-64532142D01*
X84907142Y-68302380D02*
X84573809Y-67826190D01*
X84335714Y-68302380D02*
X84335714Y-67302380D01*
X84716666Y-67302380D01*
X84811904Y-67350000D01*
X84859523Y-67397619D01*
X84907142Y-67492857D01*
X84907142Y-67635714D01*
X84859523Y-67730952D01*
X84811904Y-67778571D01*
X84716666Y-67826190D01*
X84335714Y-67826190D01*
X85859523Y-68302380D02*
X85288095Y-68302380D01*
X85573809Y-68302380D02*
X85573809Y-67302380D01*
X85478571Y-67445238D01*
X85383333Y-67540476D01*
X85288095Y-67588095D01*
X86240476Y-67397619D02*
X86288095Y-67350000D01*
X86383333Y-67302380D01*
X86621428Y-67302380D01*
X86716666Y-67350000D01*
X86764285Y-67397619D01*
X86811904Y-67492857D01*
X86811904Y-67588095D01*
X86764285Y-67730952D01*
X86192857Y-68302380D01*
X86811904Y-68302380D01*
X85757142Y-80452380D02*
X85423809Y-79976190D01*
X85185714Y-80452380D02*
X85185714Y-79452380D01*
X85566666Y-79452380D01*
X85661904Y-79500000D01*
X85709523Y-79547619D01*
X85757142Y-79642857D01*
X85757142Y-79785714D01*
X85709523Y-79880952D01*
X85661904Y-79928571D01*
X85566666Y-79976190D01*
X85185714Y-79976190D01*
X86709523Y-80452380D02*
X86138095Y-80452380D01*
X86423809Y-80452380D02*
X86423809Y-79452380D01*
X86328571Y-79595238D01*
X86233333Y-79690476D01*
X86138095Y-79738095D01*
X87661904Y-80452380D02*
X87090476Y-80452380D01*
X87376190Y-80452380D02*
X87376190Y-79452380D01*
X87280952Y-79595238D01*
X87185714Y-79690476D01*
X87090476Y-79738095D01*
X75757142Y-78052380D02*
X75423809Y-77576190D01*
X75185714Y-78052380D02*
X75185714Y-77052380D01*
X75566666Y-77052380D01*
X75661904Y-77100000D01*
X75709523Y-77147619D01*
X75757142Y-77242857D01*
X75757142Y-77385714D01*
X75709523Y-77480952D01*
X75661904Y-77528571D01*
X75566666Y-77576190D01*
X75185714Y-77576190D01*
X76709523Y-78052380D02*
X76138095Y-78052380D01*
X76423809Y-78052380D02*
X76423809Y-77052380D01*
X76328571Y-77195238D01*
X76233333Y-77290476D01*
X76138095Y-77338095D01*
X77328571Y-77052380D02*
X77423809Y-77052380D01*
X77519047Y-77100000D01*
X77566666Y-77147619D01*
X77614285Y-77242857D01*
X77661904Y-77433333D01*
X77661904Y-77671428D01*
X77614285Y-77861904D01*
X77566666Y-77957142D01*
X77519047Y-78004761D01*
X77423809Y-78052380D01*
X77328571Y-78052380D01*
X77233333Y-78004761D01*
X77185714Y-77957142D01*
X77138095Y-77861904D01*
X77090476Y-77671428D01*
X77090476Y-77433333D01*
X77138095Y-77242857D01*
X77185714Y-77147619D01*
X77233333Y-77100000D01*
X77328571Y-77052380D01*
X108083333Y-77952380D02*
X107750000Y-77476190D01*
X107511904Y-77952380D02*
X107511904Y-76952380D01*
X107892857Y-76952380D01*
X107988095Y-77000000D01*
X108035714Y-77047619D01*
X108083333Y-77142857D01*
X108083333Y-77285714D01*
X108035714Y-77380952D01*
X107988095Y-77428571D01*
X107892857Y-77476190D01*
X107511904Y-77476190D01*
X108559523Y-77952380D02*
X108750000Y-77952380D01*
X108845238Y-77904761D01*
X108892857Y-77857142D01*
X108988095Y-77714285D01*
X109035714Y-77523809D01*
X109035714Y-77142857D01*
X108988095Y-77047619D01*
X108940476Y-77000000D01*
X108845238Y-76952380D01*
X108654761Y-76952380D01*
X108559523Y-77000000D01*
X108511904Y-77047619D01*
X108464285Y-77142857D01*
X108464285Y-77380952D01*
X108511904Y-77476190D01*
X108559523Y-77523809D01*
X108654761Y-77571428D01*
X108845238Y-77571428D01*
X108940476Y-77523809D01*
X108988095Y-77476190D01*
X109035714Y-77380952D01*
X58808333Y-78702380D02*
X58475000Y-78226190D01*
X58236904Y-78702380D02*
X58236904Y-77702380D01*
X58617857Y-77702380D01*
X58713095Y-77750000D01*
X58760714Y-77797619D01*
X58808333Y-77892857D01*
X58808333Y-78035714D01*
X58760714Y-78130952D01*
X58713095Y-78178571D01*
X58617857Y-78226190D01*
X58236904Y-78226190D01*
X59379761Y-78130952D02*
X59284523Y-78083333D01*
X59236904Y-78035714D01*
X59189285Y-77940476D01*
X59189285Y-77892857D01*
X59236904Y-77797619D01*
X59284523Y-77750000D01*
X59379761Y-77702380D01*
X59570238Y-77702380D01*
X59665476Y-77750000D01*
X59713095Y-77797619D01*
X59760714Y-77892857D01*
X59760714Y-77940476D01*
X59713095Y-78035714D01*
X59665476Y-78083333D01*
X59570238Y-78130952D01*
X59379761Y-78130952D01*
X59284523Y-78178571D01*
X59236904Y-78226190D01*
X59189285Y-78321428D01*
X59189285Y-78511904D01*
X59236904Y-78607142D01*
X59284523Y-78654761D01*
X59379761Y-78702380D01*
X59570238Y-78702380D01*
X59665476Y-78654761D01*
X59713095Y-78607142D01*
X59760714Y-78511904D01*
X59760714Y-78321428D01*
X59713095Y-78226190D01*
X59665476Y-78178571D01*
X59570238Y-78130952D01*
X110083333Y-80452380D02*
X109750000Y-79976190D01*
X109511904Y-80452380D02*
X109511904Y-79452380D01*
X109892857Y-79452380D01*
X109988095Y-79500000D01*
X110035714Y-79547619D01*
X110083333Y-79642857D01*
X110083333Y-79785714D01*
X110035714Y-79880952D01*
X109988095Y-79928571D01*
X109892857Y-79976190D01*
X109511904Y-79976190D01*
X110940476Y-79452380D02*
X110750000Y-79452380D01*
X110654761Y-79500000D01*
X110607142Y-79547619D01*
X110511904Y-79690476D01*
X110464285Y-79880952D01*
X110464285Y-80261904D01*
X110511904Y-80357142D01*
X110559523Y-80404761D01*
X110654761Y-80452380D01*
X110845238Y-80452380D01*
X110940476Y-80404761D01*
X110988095Y-80357142D01*
X111035714Y-80261904D01*
X111035714Y-80023809D01*
X110988095Y-79928571D01*
X110940476Y-79880952D01*
X110845238Y-79833333D01*
X110654761Y-79833333D01*
X110559523Y-79880952D01*
X110511904Y-79928571D01*
X110464285Y-80023809D01*
X108083333Y-82952380D02*
X107750000Y-82476190D01*
X107511904Y-82952380D02*
X107511904Y-81952380D01*
X107892857Y-81952380D01*
X107988095Y-82000000D01*
X108035714Y-82047619D01*
X108083333Y-82142857D01*
X108083333Y-82285714D01*
X108035714Y-82380952D01*
X107988095Y-82428571D01*
X107892857Y-82476190D01*
X107511904Y-82476190D01*
X108940476Y-82285714D02*
X108940476Y-82952380D01*
X108702380Y-81904761D02*
X108464285Y-82619047D01*
X109083333Y-82619047D01*
X57833333Y-102952380D02*
X57500000Y-102476190D01*
X57261904Y-102952380D02*
X57261904Y-101952380D01*
X57642857Y-101952380D01*
X57738095Y-102000000D01*
X57785714Y-102047619D01*
X57833333Y-102142857D01*
X57833333Y-102285714D01*
X57785714Y-102380952D01*
X57738095Y-102428571D01*
X57642857Y-102476190D01*
X57261904Y-102476190D01*
X58166666Y-101952380D02*
X58785714Y-101952380D01*
X58452380Y-102333333D01*
X58595238Y-102333333D01*
X58690476Y-102380952D01*
X58738095Y-102428571D01*
X58785714Y-102523809D01*
X58785714Y-102761904D01*
X58738095Y-102857142D01*
X58690476Y-102904761D01*
X58595238Y-102952380D01*
X58309523Y-102952380D01*
X58214285Y-102904761D01*
X58166666Y-102857142D01*
X62083333Y-102952380D02*
X61750000Y-102476190D01*
X61511904Y-102952380D02*
X61511904Y-101952380D01*
X61892857Y-101952380D01*
X61988095Y-102000000D01*
X62035714Y-102047619D01*
X62083333Y-102142857D01*
X62083333Y-102285714D01*
X62035714Y-102380952D01*
X61988095Y-102428571D01*
X61892857Y-102476190D01*
X61511904Y-102476190D01*
X62464285Y-102047619D02*
X62511904Y-102000000D01*
X62607142Y-101952380D01*
X62845238Y-101952380D01*
X62940476Y-102000000D01*
X62988095Y-102047619D01*
X63035714Y-102142857D01*
X63035714Y-102238095D01*
X62988095Y-102380952D01*
X62416666Y-102952380D01*
X63035714Y-102952380D01*
X66333333Y-102952380D02*
X66000000Y-102476190D01*
X65761904Y-102952380D02*
X65761904Y-101952380D01*
X66142857Y-101952380D01*
X66238095Y-102000000D01*
X66285714Y-102047619D01*
X66333333Y-102142857D01*
X66333333Y-102285714D01*
X66285714Y-102380952D01*
X66238095Y-102428571D01*
X66142857Y-102476190D01*
X65761904Y-102476190D01*
X67285714Y-102952380D02*
X66714285Y-102952380D01*
X67000000Y-102952380D02*
X67000000Y-101952380D01*
X66904761Y-102095238D01*
X66809523Y-102190476D01*
X66714285Y-102238095D01*
X133430509Y-128974877D02*
X134049099Y-128617734D01*
X134196626Y-128587545D01*
X134326724Y-128622405D01*
X134439392Y-128722313D01*
X134487011Y-128804792D01*
X133796535Y-127608852D02*
X134082249Y-128103723D01*
X133939392Y-127856288D02*
X133073367Y-128356288D01*
X133244704Y-128367338D01*
X133374801Y-128402197D01*
X133463660Y-128460866D01*
X132822512Y-127731318D02*
X132757463Y-127713889D01*
X132668605Y-127655219D01*
X132549557Y-127449023D01*
X132543177Y-127342735D01*
X132560607Y-127277686D01*
X132619276Y-127188828D01*
X132701755Y-127141209D01*
X132849282Y-127111019D01*
X133629868Y-127320177D01*
X133320344Y-126784066D01*
X73274938Y-130566862D02*
X73714696Y-131129727D01*
X73765124Y-131271617D01*
X73748709Y-131405300D01*
X73665454Y-131530776D01*
X73590405Y-131589411D01*
X74678610Y-130739212D02*
X74228318Y-131091018D01*
X74453464Y-130915115D02*
X73837803Y-130127104D01*
X73850706Y-130298312D01*
X73834292Y-130431995D01*
X73788560Y-130528153D01*
X75429097Y-130152867D02*
X74978805Y-130504674D01*
X75203951Y-130328771D02*
X74588289Y-129540760D01*
X74601192Y-129711967D01*
X74584778Y-129845650D01*
X74539047Y-129941809D01*
X147130669Y-109150170D02*
X147519696Y-108551119D01*
X147637439Y-108457244D01*
X147769183Y-108429241D01*
X147914928Y-108467110D01*
X147994801Y-108518981D01*
X146836637Y-107766860D02*
X147315877Y-108078082D01*
X147076257Y-107922471D02*
X146531618Y-108761142D01*
X146689297Y-108693202D01*
X146821041Y-108665199D01*
X146926849Y-108677133D01*
X145772821Y-108268373D02*
X145692948Y-108216503D01*
X145639009Y-108124696D01*
X145625008Y-108058824D01*
X145636942Y-107953015D01*
X145700746Y-107767333D01*
X145830422Y-107567650D01*
X145974099Y-107433838D01*
X146065906Y-107379900D01*
X146131778Y-107365899D01*
X146237587Y-107377832D01*
X146317460Y-107429703D01*
X146371398Y-107521510D01*
X146385400Y-107587382D01*
X146373466Y-107693190D01*
X146309662Y-107878872D01*
X146179986Y-108078556D01*
X146036309Y-108212367D01*
X145944501Y-108266305D01*
X145878630Y-108280307D01*
X145772821Y-108268373D01*
X64475850Y-67395571D02*
X63970774Y-67900647D01*
X63836087Y-67967991D01*
X63701400Y-67967991D01*
X63566713Y-67900647D01*
X63499370Y-67833304D01*
X64139133Y-68473067D02*
X64273820Y-68607754D01*
X64374835Y-68641426D01*
X64442179Y-68641426D01*
X64610537Y-68607754D01*
X64778896Y-68506739D01*
X65048270Y-68237365D01*
X65081942Y-68136350D01*
X65081942Y-68069006D01*
X65048270Y-67967991D01*
X64913583Y-67833304D01*
X64812568Y-67799632D01*
X64745224Y-67799632D01*
X64644209Y-67833304D01*
X64475850Y-68001663D01*
X64442179Y-68102678D01*
X64442179Y-68170021D01*
X64475850Y-68271037D01*
X64610537Y-68405724D01*
X64711553Y-68439395D01*
X64778896Y-68439395D01*
X64879911Y-68405724D01*
X77236943Y-55311276D02*
X76603364Y-55641096D01*
X76454660Y-55664822D01*
X76326207Y-55624321D01*
X76218004Y-55519593D01*
X76174028Y-55435116D01*
X77142640Y-56058270D02*
X77140903Y-55951805D01*
X77161153Y-55887578D01*
X77223643Y-55801364D01*
X77265881Y-55779376D01*
X77372346Y-55777638D01*
X77436573Y-55797889D01*
X77522788Y-55860378D01*
X77610740Y-56029332D01*
X77612477Y-56135798D01*
X77592227Y-56200024D01*
X77529737Y-56286239D01*
X77487499Y-56308227D01*
X77381034Y-56309964D01*
X77316807Y-56289714D01*
X77230592Y-56227225D01*
X77142640Y-56058270D01*
X77056426Y-55995781D01*
X76992199Y-55975530D01*
X76885734Y-55977268D01*
X76716779Y-56065220D01*
X76654290Y-56151435D01*
X76634039Y-56215661D01*
X76635777Y-56322126D01*
X76723729Y-56491081D01*
X76809944Y-56553570D01*
X76874170Y-56573821D01*
X76980636Y-56572083D01*
X77149590Y-56484131D01*
X77212079Y-56397916D01*
X77232330Y-56333690D01*
X77230592Y-56227225D01*
X56416666Y-99952380D02*
X56416666Y-100666666D01*
X56369047Y-100809523D01*
X56273809Y-100904761D01*
X56130952Y-100952380D01*
X56035714Y-100952380D01*
X57416666Y-100952380D02*
X56845238Y-100952380D01*
X57130952Y-100952380D02*
X57130952Y-99952380D01*
X57035714Y-100095238D01*
X56940476Y-100190476D01*
X56845238Y-100238095D01*
X61463095Y-109177380D02*
X61463095Y-109986904D01*
X61510714Y-110082142D01*
X61558333Y-110129761D01*
X61653571Y-110177380D01*
X61844047Y-110177380D01*
X61939285Y-110129761D01*
X61986904Y-110082142D01*
X62034523Y-109986904D01*
X62034523Y-109177380D01*
X62463095Y-109272619D02*
X62510714Y-109225000D01*
X62605952Y-109177380D01*
X62844047Y-109177380D01*
X62939285Y-109225000D01*
X62986904Y-109272619D01*
X63034523Y-109367857D01*
X63034523Y-109463095D01*
X62986904Y-109605952D01*
X62415476Y-110177380D01*
X63034523Y-110177380D01*
X72826167Y-71464695D02*
X72758823Y-71464695D01*
X72624136Y-71397351D01*
X72556793Y-71330008D01*
X72489449Y-71195321D01*
X72489449Y-71060634D01*
X72523121Y-70959619D01*
X72624136Y-70791260D01*
X72725151Y-70690245D01*
X72893510Y-70589229D01*
X72994525Y-70555558D01*
X73129212Y-70555558D01*
X73263899Y-70622901D01*
X73331243Y-70690245D01*
X73398586Y-70824932D01*
X73398586Y-70892275D01*
X73432258Y-72205474D02*
X73028197Y-71801413D01*
X73230228Y-72003443D02*
X73937335Y-71296336D01*
X73768976Y-71330008D01*
X73634289Y-71330008D01*
X73533274Y-71296336D01*
X73768976Y-72542191D02*
X73903663Y-72676878D01*
X74004678Y-72710550D01*
X74072022Y-72710550D01*
X74240380Y-72676878D01*
X74408739Y-72575863D01*
X74678113Y-72306489D01*
X74711785Y-72205474D01*
X74711785Y-72138130D01*
X74678113Y-72037115D01*
X74543426Y-71902428D01*
X74442411Y-71868756D01*
X74375067Y-71868756D01*
X74274052Y-71902428D01*
X74105693Y-72070787D01*
X74072022Y-72171802D01*
X74072022Y-72239145D01*
X74105693Y-72340161D01*
X74240380Y-72474848D01*
X74341396Y-72508519D01*
X74408739Y-72508519D01*
X74509754Y-72474848D01*
X123457142Y-68557142D02*
X123409523Y-68604761D01*
X123266666Y-68652380D01*
X123171428Y-68652380D01*
X123028571Y-68604761D01*
X122933333Y-68509523D01*
X122885714Y-68414285D01*
X122838095Y-68223809D01*
X122838095Y-68080952D01*
X122885714Y-67890476D01*
X122933333Y-67795238D01*
X123028571Y-67700000D01*
X123171428Y-67652380D01*
X123266666Y-67652380D01*
X123409523Y-67700000D01*
X123457142Y-67747619D01*
X124409523Y-68652380D02*
X123838095Y-68652380D01*
X124123809Y-68652380D02*
X124123809Y-67652380D01*
X124028571Y-67795238D01*
X123933333Y-67890476D01*
X123838095Y-67938095D01*
X124980952Y-68080952D02*
X124885714Y-68033333D01*
X124838095Y-67985714D01*
X124790476Y-67890476D01*
X124790476Y-67842857D01*
X124838095Y-67747619D01*
X124885714Y-67700000D01*
X124980952Y-67652380D01*
X125171428Y-67652380D01*
X125266666Y-67700000D01*
X125314285Y-67747619D01*
X125361904Y-67842857D01*
X125361904Y-67890476D01*
X125314285Y-67985714D01*
X125266666Y-68033333D01*
X125171428Y-68080952D01*
X124980952Y-68080952D01*
X124885714Y-68128571D01*
X124838095Y-68176190D01*
X124790476Y-68271428D01*
X124790476Y-68461904D01*
X124838095Y-68557142D01*
X124885714Y-68604761D01*
X124980952Y-68652380D01*
X125171428Y-68652380D01*
X125266666Y-68604761D01*
X125314285Y-68557142D01*
X125361904Y-68461904D01*
X125361904Y-68271428D01*
X125314285Y-68176190D01*
X125266666Y-68128571D01*
X125171428Y-68080952D01*
X120957142Y-68757142D02*
X120909523Y-68804761D01*
X120766666Y-68852380D01*
X120671428Y-68852380D01*
X120528571Y-68804761D01*
X120433333Y-68709523D01*
X120385714Y-68614285D01*
X120338095Y-68423809D01*
X120338095Y-68280952D01*
X120385714Y-68090476D01*
X120433333Y-67995238D01*
X120528571Y-67900000D01*
X120671428Y-67852380D01*
X120766666Y-67852380D01*
X120909523Y-67900000D01*
X120957142Y-67947619D01*
X121909523Y-68852380D02*
X121338095Y-68852380D01*
X121623809Y-68852380D02*
X121623809Y-67852380D01*
X121528571Y-67995238D01*
X121433333Y-68090476D01*
X121338095Y-68138095D01*
X122242857Y-67852380D02*
X122909523Y-67852380D01*
X122480952Y-68852380D01*
X61657142Y-70457142D02*
X61609523Y-70504761D01*
X61466666Y-70552380D01*
X61371428Y-70552380D01*
X61228571Y-70504761D01*
X61133333Y-70409523D01*
X61085714Y-70314285D01*
X61038095Y-70123809D01*
X61038095Y-69980952D01*
X61085714Y-69790476D01*
X61133333Y-69695238D01*
X61228571Y-69600000D01*
X61371428Y-69552380D01*
X61466666Y-69552380D01*
X61609523Y-69600000D01*
X61657142Y-69647619D01*
X62609523Y-70552380D02*
X62038095Y-70552380D01*
X62323809Y-70552380D02*
X62323809Y-69552380D01*
X62228571Y-69695238D01*
X62133333Y-69790476D01*
X62038095Y-69838095D01*
X63466666Y-69552380D02*
X63276190Y-69552380D01*
X63180952Y-69600000D01*
X63133333Y-69647619D01*
X63038095Y-69790476D01*
X62990476Y-69980952D01*
X62990476Y-70361904D01*
X63038095Y-70457142D01*
X63085714Y-70504761D01*
X63180952Y-70552380D01*
X63371428Y-70552380D01*
X63466666Y-70504761D01*
X63514285Y-70457142D01*
X63561904Y-70361904D01*
X63561904Y-70123809D01*
X63514285Y-70028571D01*
X63466666Y-69980952D01*
X63371428Y-69933333D01*
X63180952Y-69933333D01*
X63085714Y-69980952D01*
X63038095Y-70028571D01*
X62990476Y-70123809D01*
X58757142Y-75742857D02*
X58804761Y-75790476D01*
X58852380Y-75933333D01*
X58852380Y-76028571D01*
X58804761Y-76171428D01*
X58709523Y-76266666D01*
X58614285Y-76314285D01*
X58423809Y-76361904D01*
X58280952Y-76361904D01*
X58090476Y-76314285D01*
X57995238Y-76266666D01*
X57900000Y-76171428D01*
X57852380Y-76028571D01*
X57852380Y-75933333D01*
X57900000Y-75790476D01*
X57947619Y-75742857D01*
X58852380Y-74790476D02*
X58852380Y-75361904D01*
X58852380Y-75076190D02*
X57852380Y-75076190D01*
X57995238Y-75171428D01*
X58090476Y-75266666D01*
X58138095Y-75361904D01*
X57852380Y-73885714D02*
X57852380Y-74361904D01*
X58328571Y-74409523D01*
X58280952Y-74361904D01*
X58233333Y-74266666D01*
X58233333Y-74028571D01*
X58280952Y-73933333D01*
X58328571Y-73885714D01*
X58423809Y-73838095D01*
X58661904Y-73838095D01*
X58757142Y-73885714D01*
X58804761Y-73933333D01*
X58852380Y-74028571D01*
X58852380Y-74266666D01*
X58804761Y-74361904D01*
X58757142Y-74409523D01*
X69607142Y-74842857D02*
X69654761Y-74890476D01*
X69702380Y-75033333D01*
X69702380Y-75128571D01*
X69654761Y-75271428D01*
X69559523Y-75366666D01*
X69464285Y-75414285D01*
X69273809Y-75461904D01*
X69130952Y-75461904D01*
X68940476Y-75414285D01*
X68845238Y-75366666D01*
X68750000Y-75271428D01*
X68702380Y-75128571D01*
X68702380Y-75033333D01*
X68750000Y-74890476D01*
X68797619Y-74842857D01*
X69702380Y-73890476D02*
X69702380Y-74461904D01*
X69702380Y-74176190D02*
X68702380Y-74176190D01*
X68845238Y-74271428D01*
X68940476Y-74366666D01*
X68988095Y-74461904D01*
X69035714Y-73033333D02*
X69702380Y-73033333D01*
X68654761Y-73271428D02*
X69369047Y-73509523D01*
X69369047Y-72890476D01*
X108957142Y-60557142D02*
X108909523Y-60604761D01*
X108766666Y-60652380D01*
X108671428Y-60652380D01*
X108528571Y-60604761D01*
X108433333Y-60509523D01*
X108385714Y-60414285D01*
X108338095Y-60223809D01*
X108338095Y-60080952D01*
X108385714Y-59890476D01*
X108433333Y-59795238D01*
X108528571Y-59700000D01*
X108671428Y-59652380D01*
X108766666Y-59652380D01*
X108909523Y-59700000D01*
X108957142Y-59747619D01*
X109909523Y-60652380D02*
X109338095Y-60652380D01*
X109623809Y-60652380D02*
X109623809Y-59652380D01*
X109528571Y-59795238D01*
X109433333Y-59890476D01*
X109338095Y-59938095D01*
X110242857Y-59652380D02*
X110861904Y-59652380D01*
X110528571Y-60033333D01*
X110671428Y-60033333D01*
X110766666Y-60080952D01*
X110814285Y-60128571D01*
X110861904Y-60223809D01*
X110861904Y-60461904D01*
X110814285Y-60557142D01*
X110766666Y-60604761D01*
X110671428Y-60652380D01*
X110385714Y-60652380D01*
X110290476Y-60604761D01*
X110242857Y-60557142D01*
X108157142Y-68157142D02*
X108109523Y-68204761D01*
X107966666Y-68252380D01*
X107871428Y-68252380D01*
X107728571Y-68204761D01*
X107633333Y-68109523D01*
X107585714Y-68014285D01*
X107538095Y-67823809D01*
X107538095Y-67680952D01*
X107585714Y-67490476D01*
X107633333Y-67395238D01*
X107728571Y-67300000D01*
X107871428Y-67252380D01*
X107966666Y-67252380D01*
X108109523Y-67300000D01*
X108157142Y-67347619D01*
X109109523Y-68252380D02*
X108538095Y-68252380D01*
X108823809Y-68252380D02*
X108823809Y-67252380D01*
X108728571Y-67395238D01*
X108633333Y-67490476D01*
X108538095Y-67538095D01*
X109490476Y-67347619D02*
X109538095Y-67300000D01*
X109633333Y-67252380D01*
X109871428Y-67252380D01*
X109966666Y-67300000D01*
X110014285Y-67347619D01*
X110061904Y-67442857D01*
X110061904Y-67538095D01*
X110014285Y-67680952D01*
X109442857Y-68252380D01*
X110061904Y-68252380D01*
X63007142Y-80357142D02*
X62959523Y-80404761D01*
X62816666Y-80452380D01*
X62721428Y-80452380D01*
X62578571Y-80404761D01*
X62483333Y-80309523D01*
X62435714Y-80214285D01*
X62388095Y-80023809D01*
X62388095Y-79880952D01*
X62435714Y-79690476D01*
X62483333Y-79595238D01*
X62578571Y-79500000D01*
X62721428Y-79452380D01*
X62816666Y-79452380D01*
X62959523Y-79500000D01*
X63007142Y-79547619D01*
X63959523Y-80452380D02*
X63388095Y-80452380D01*
X63673809Y-80452380D02*
X63673809Y-79452380D01*
X63578571Y-79595238D01*
X63483333Y-79690476D01*
X63388095Y-79738095D01*
X64911904Y-80452380D02*
X64340476Y-80452380D01*
X64626190Y-80452380D02*
X64626190Y-79452380D01*
X64530952Y-79595238D01*
X64435714Y-79690476D01*
X64340476Y-79738095D01*
X108157142Y-70557142D02*
X108109523Y-70604761D01*
X107966666Y-70652380D01*
X107871428Y-70652380D01*
X107728571Y-70604761D01*
X107633333Y-70509523D01*
X107585714Y-70414285D01*
X107538095Y-70223809D01*
X107538095Y-70080952D01*
X107585714Y-69890476D01*
X107633333Y-69795238D01*
X107728571Y-69700000D01*
X107871428Y-69652380D01*
X107966666Y-69652380D01*
X108109523Y-69700000D01*
X108157142Y-69747619D01*
X109109523Y-70652380D02*
X108538095Y-70652380D01*
X108823809Y-70652380D02*
X108823809Y-69652380D01*
X108728571Y-69795238D01*
X108633333Y-69890476D01*
X108538095Y-69938095D01*
X109728571Y-69652380D02*
X109823809Y-69652380D01*
X109919047Y-69700000D01*
X109966666Y-69747619D01*
X110014285Y-69842857D01*
X110061904Y-70033333D01*
X110061904Y-70271428D01*
X110014285Y-70461904D01*
X109966666Y-70557142D01*
X109919047Y-70604761D01*
X109823809Y-70652380D01*
X109728571Y-70652380D01*
X109633333Y-70604761D01*
X109585714Y-70557142D01*
X109538095Y-70461904D01*
X109490476Y-70271428D01*
X109490476Y-70033333D01*
X109538095Y-69842857D01*
X109585714Y-69747619D01*
X109633333Y-69700000D01*
X109728571Y-69652380D01*
X108233333Y-72957142D02*
X108185714Y-73004761D01*
X108042857Y-73052380D01*
X107947619Y-73052380D01*
X107804761Y-73004761D01*
X107709523Y-72909523D01*
X107661904Y-72814285D01*
X107614285Y-72623809D01*
X107614285Y-72480952D01*
X107661904Y-72290476D01*
X107709523Y-72195238D01*
X107804761Y-72100000D01*
X107947619Y-72052380D01*
X108042857Y-72052380D01*
X108185714Y-72100000D01*
X108233333Y-72147619D01*
X108709523Y-73052380D02*
X108900000Y-73052380D01*
X108995238Y-73004761D01*
X109042857Y-72957142D01*
X109138095Y-72814285D01*
X109185714Y-72623809D01*
X109185714Y-72242857D01*
X109138095Y-72147619D01*
X109090476Y-72100000D01*
X108995238Y-72052380D01*
X108804761Y-72052380D01*
X108709523Y-72100000D01*
X108661904Y-72147619D01*
X108614285Y-72242857D01*
X108614285Y-72480952D01*
X108661904Y-72576190D01*
X108709523Y-72623809D01*
X108804761Y-72671428D01*
X108995238Y-72671428D01*
X109090476Y-72623809D01*
X109138095Y-72576190D01*
X109185714Y-72480952D01*
X78733333Y-72607142D02*
X78685714Y-72654761D01*
X78542857Y-72702380D01*
X78447619Y-72702380D01*
X78304761Y-72654761D01*
X78209523Y-72559523D01*
X78161904Y-72464285D01*
X78114285Y-72273809D01*
X78114285Y-72130952D01*
X78161904Y-71940476D01*
X78209523Y-71845238D01*
X78304761Y-71750000D01*
X78447619Y-71702380D01*
X78542857Y-71702380D01*
X78685714Y-71750000D01*
X78733333Y-71797619D01*
X79304761Y-72130952D02*
X79209523Y-72083333D01*
X79161904Y-72035714D01*
X79114285Y-71940476D01*
X79114285Y-71892857D01*
X79161904Y-71797619D01*
X79209523Y-71750000D01*
X79304761Y-71702380D01*
X79495238Y-71702380D01*
X79590476Y-71750000D01*
X79638095Y-71797619D01*
X79685714Y-71892857D01*
X79685714Y-71940476D01*
X79638095Y-72035714D01*
X79590476Y-72083333D01*
X79495238Y-72130952D01*
X79304761Y-72130952D01*
X79209523Y-72178571D01*
X79161904Y-72226190D01*
X79114285Y-72321428D01*
X79114285Y-72511904D01*
X79161904Y-72607142D01*
X79209523Y-72654761D01*
X79304761Y-72702380D01*
X79495238Y-72702380D01*
X79590476Y-72654761D01*
X79638095Y-72607142D01*
X79685714Y-72511904D01*
X79685714Y-72321428D01*
X79638095Y-72226190D01*
X79590476Y-72178571D01*
X79495238Y-72130952D01*
X62333333Y-87419642D02*
X62285714Y-87467261D01*
X62142857Y-87514880D01*
X62047619Y-87514880D01*
X61904761Y-87467261D01*
X61809523Y-87372023D01*
X61761904Y-87276785D01*
X61714285Y-87086309D01*
X61714285Y-86943452D01*
X61761904Y-86752976D01*
X61809523Y-86657738D01*
X61904761Y-86562500D01*
X62047619Y-86514880D01*
X62142857Y-86514880D01*
X62285714Y-86562500D01*
X62333333Y-86610119D01*
X62666666Y-86514880D02*
X63333333Y-86514880D01*
X62904761Y-87514880D01*
X85833333Y-77957142D02*
X85785714Y-78004761D01*
X85642857Y-78052380D01*
X85547619Y-78052380D01*
X85404761Y-78004761D01*
X85309523Y-77909523D01*
X85261904Y-77814285D01*
X85214285Y-77623809D01*
X85214285Y-77480952D01*
X85261904Y-77290476D01*
X85309523Y-77195238D01*
X85404761Y-77100000D01*
X85547619Y-77052380D01*
X85642857Y-77052380D01*
X85785714Y-77100000D01*
X85833333Y-77147619D01*
X86690476Y-77052380D02*
X86500000Y-77052380D01*
X86404761Y-77100000D01*
X86357142Y-77147619D01*
X86261904Y-77290476D01*
X86214285Y-77480952D01*
X86214285Y-77861904D01*
X86261904Y-77957142D01*
X86309523Y-78004761D01*
X86404761Y-78052380D01*
X86595238Y-78052380D01*
X86690476Y-78004761D01*
X86738095Y-77957142D01*
X86785714Y-77861904D01*
X86785714Y-77623809D01*
X86738095Y-77528571D01*
X86690476Y-77480952D01*
X86595238Y-77433333D01*
X86404761Y-77433333D01*
X86309523Y-77480952D01*
X86261904Y-77528571D01*
X86214285Y-77623809D01*
X80433333Y-75357142D02*
X80385714Y-75404761D01*
X80242857Y-75452380D01*
X80147619Y-75452380D01*
X80004761Y-75404761D01*
X79909523Y-75309523D01*
X79861904Y-75214285D01*
X79814285Y-75023809D01*
X79814285Y-74880952D01*
X79861904Y-74690476D01*
X79909523Y-74595238D01*
X80004761Y-74500000D01*
X80147619Y-74452380D01*
X80242857Y-74452380D01*
X80385714Y-74500000D01*
X80433333Y-74547619D01*
X81338095Y-74452380D02*
X80861904Y-74452380D01*
X80814285Y-74928571D01*
X80861904Y-74880952D01*
X80957142Y-74833333D01*
X81195238Y-74833333D01*
X81290476Y-74880952D01*
X81338095Y-74928571D01*
X81385714Y-75023809D01*
X81385714Y-75261904D01*
X81338095Y-75357142D01*
X81290476Y-75404761D01*
X81195238Y-75452380D01*
X80957142Y-75452380D01*
X80861904Y-75404761D01*
X80814285Y-75357142D01*
X76633333Y-80357142D02*
X76585714Y-80404761D01*
X76442857Y-80452380D01*
X76347619Y-80452380D01*
X76204761Y-80404761D01*
X76109523Y-80309523D01*
X76061904Y-80214285D01*
X76014285Y-80023809D01*
X76014285Y-79880952D01*
X76061904Y-79690476D01*
X76109523Y-79595238D01*
X76204761Y-79500000D01*
X76347619Y-79452380D01*
X76442857Y-79452380D01*
X76585714Y-79500000D01*
X76633333Y-79547619D01*
X77490476Y-79785714D02*
X77490476Y-80452380D01*
X77252380Y-79404761D02*
X77014285Y-80119047D01*
X77633333Y-80119047D01*
X56083333Y-87757142D02*
X56035714Y-87804761D01*
X55892857Y-87852380D01*
X55797619Y-87852380D01*
X55654761Y-87804761D01*
X55559523Y-87709523D01*
X55511904Y-87614285D01*
X55464285Y-87423809D01*
X55464285Y-87280952D01*
X55511904Y-87090476D01*
X55559523Y-86995238D01*
X55654761Y-86900000D01*
X55797619Y-86852380D01*
X55892857Y-86852380D01*
X56035714Y-86900000D01*
X56083333Y-86947619D01*
X56416666Y-86852380D02*
X57035714Y-86852380D01*
X56702380Y-87233333D01*
X56845238Y-87233333D01*
X56940476Y-87280952D01*
X56988095Y-87328571D01*
X57035714Y-87423809D01*
X57035714Y-87661904D01*
X56988095Y-87757142D01*
X56940476Y-87804761D01*
X56845238Y-87852380D01*
X56559523Y-87852380D01*
X56464285Y-87804761D01*
X56416666Y-87757142D01*
X121433333Y-66457142D02*
X121385714Y-66504761D01*
X121242857Y-66552380D01*
X121147619Y-66552380D01*
X121004761Y-66504761D01*
X120909523Y-66409523D01*
X120861904Y-66314285D01*
X120814285Y-66123809D01*
X120814285Y-65980952D01*
X120861904Y-65790476D01*
X120909523Y-65695238D01*
X121004761Y-65600000D01*
X121147619Y-65552380D01*
X121242857Y-65552380D01*
X121385714Y-65600000D01*
X121433333Y-65647619D01*
X121814285Y-65647619D02*
X121861904Y-65600000D01*
X121957142Y-65552380D01*
X122195238Y-65552380D01*
X122290476Y-65600000D01*
X122338095Y-65647619D01*
X122385714Y-65742857D01*
X122385714Y-65838095D01*
X122338095Y-65980952D01*
X121766666Y-66552380D01*
X122385714Y-66552380D01*
X122457142Y-61666666D02*
X122504761Y-61714285D01*
X122552380Y-61857142D01*
X122552380Y-61952380D01*
X122504761Y-62095238D01*
X122409523Y-62190476D01*
X122314285Y-62238095D01*
X122123809Y-62285714D01*
X121980952Y-62285714D01*
X121790476Y-62238095D01*
X121695238Y-62190476D01*
X121600000Y-62095238D01*
X121552380Y-61952380D01*
X121552380Y-61857142D01*
X121600000Y-61714285D01*
X121647619Y-61666666D01*
X122552380Y-60714285D02*
X122552380Y-61285714D01*
X122552380Y-61000000D02*
X121552380Y-61000000D01*
X121695238Y-61095238D01*
X121790476Y-61190476D01*
X121838095Y-61285714D01*
X67414285Y-89928571D02*
X67557142Y-89976190D01*
X67604761Y-90023809D01*
X67652380Y-90119047D01*
X67652380Y-90261904D01*
X67604761Y-90357142D01*
X67557142Y-90404761D01*
X67461904Y-90452380D01*
X67080952Y-90452380D01*
X67080952Y-89452380D01*
X67414285Y-89452380D01*
X67509523Y-89500000D01*
X67557142Y-89547619D01*
X67604761Y-89642857D01*
X67604761Y-89738095D01*
X67557142Y-89833333D01*
X67509523Y-89880952D01*
X67414285Y-89928571D01*
X67080952Y-89928571D01*
X67938095Y-89452380D02*
X68509523Y-89452380D01*
X68223809Y-90452380D02*
X68223809Y-89452380D01*
X69366666Y-90452380D02*
X68795238Y-90452380D01*
X69080952Y-90452380D02*
X69080952Y-89452380D01*
X68985714Y-89595238D01*
X68890476Y-89690476D01*
X68795238Y-89738095D01*
M02*
