G04 #@! TF.GenerationSoftware,KiCad,Pcbnew,(5.1.12)-1*
G04 #@! TF.CreationDate,2021-12-15T08:08:51+10:00*
G04 #@! TF.ProjectId,Weather-Station,57656174-6865-4722-9d53-746174696f6e,rev?*
G04 #@! TF.SameCoordinates,Original*
G04 #@! TF.FileFunction,Paste,Top*
G04 #@! TF.FilePolarity,Positive*
%FSLAX46Y46*%
G04 Gerber Fmt 4.6, Leading zero omitted, Abs format (unit mm)*
G04 Created by KiCad (PCBNEW (5.1.12)-1) date 2021-12-15 08:08:51*
%MOMM*%
%LPD*%
G01*
G04 APERTURE LIST*
%ADD10C,0.100000*%
%ADD11R,0.650000X1.060000*%
%ADD12R,0.650000X0.850000*%
%ADD13R,1.220000X0.650000*%
%ADD14R,7.340000X6.350000*%
G04 APERTURE END LIST*
G36*
G01*
X122685000Y-74834500D02*
X122685000Y-74465500D01*
G75*
G02*
X122705500Y-74445000I20500J0D01*
G01*
X124234500Y-74445000D01*
G75*
G02*
X124255000Y-74465500I0J-20500D01*
G01*
X124255000Y-74834500D01*
G75*
G02*
X124234500Y-74855000I-20500J0D01*
G01*
X122705500Y-74855000D01*
G75*
G02*
X122685000Y-74834500I0J20500D01*
G01*
G37*
G36*
G01*
X122685000Y-75484500D02*
X122685000Y-75115500D01*
G75*
G02*
X122705500Y-75095000I20500J0D01*
G01*
X124234500Y-75095000D01*
G75*
G02*
X124255000Y-75115500I0J-20500D01*
G01*
X124255000Y-75484500D01*
G75*
G02*
X124234500Y-75505000I-20500J0D01*
G01*
X122705500Y-75505000D01*
G75*
G02*
X122685000Y-75484500I0J20500D01*
G01*
G37*
G36*
G01*
X122685000Y-76134500D02*
X122685000Y-75765500D01*
G75*
G02*
X122705500Y-75745000I20500J0D01*
G01*
X124234500Y-75745000D01*
G75*
G02*
X124255000Y-75765500I0J-20500D01*
G01*
X124255000Y-76134500D01*
G75*
G02*
X124234500Y-76155000I-20500J0D01*
G01*
X122705500Y-76155000D01*
G75*
G02*
X122685000Y-76134500I0J20500D01*
G01*
G37*
G36*
G01*
X122685000Y-76784500D02*
X122685000Y-76415500D01*
G75*
G02*
X122705500Y-76395000I20500J0D01*
G01*
X124234500Y-76395000D01*
G75*
G02*
X124255000Y-76415500I0J-20500D01*
G01*
X124255000Y-76784500D01*
G75*
G02*
X124234500Y-76805000I-20500J0D01*
G01*
X122705500Y-76805000D01*
G75*
G02*
X122685000Y-76784500I0J20500D01*
G01*
G37*
G36*
G01*
X122685000Y-77434500D02*
X122685000Y-77065500D01*
G75*
G02*
X122705500Y-77045000I20500J0D01*
G01*
X124234500Y-77045000D01*
G75*
G02*
X124255000Y-77065500I0J-20500D01*
G01*
X124255000Y-77434500D01*
G75*
G02*
X124234500Y-77455000I-20500J0D01*
G01*
X122705500Y-77455000D01*
G75*
G02*
X122685000Y-77434500I0J20500D01*
G01*
G37*
G36*
G01*
X122685000Y-78084500D02*
X122685000Y-77715500D01*
G75*
G02*
X122705500Y-77695000I20500J0D01*
G01*
X124234500Y-77695000D01*
G75*
G02*
X124255000Y-77715500I0J-20500D01*
G01*
X124255000Y-78084500D01*
G75*
G02*
X124234500Y-78105000I-20500J0D01*
G01*
X122705500Y-78105000D01*
G75*
G02*
X122685000Y-78084500I0J20500D01*
G01*
G37*
G36*
G01*
X122685000Y-78734500D02*
X122685000Y-78365500D01*
G75*
G02*
X122705500Y-78345000I20500J0D01*
G01*
X124234500Y-78345000D01*
G75*
G02*
X124255000Y-78365500I0J-20500D01*
G01*
X124255000Y-78734500D01*
G75*
G02*
X124234500Y-78755000I-20500J0D01*
G01*
X122705500Y-78755000D01*
G75*
G02*
X122685000Y-78734500I0J20500D01*
G01*
G37*
G36*
G01*
X116945000Y-78734500D02*
X116945000Y-78365500D01*
G75*
G02*
X116965500Y-78345000I20500J0D01*
G01*
X118494500Y-78345000D01*
G75*
G02*
X118515000Y-78365500I0J-20500D01*
G01*
X118515000Y-78734500D01*
G75*
G02*
X118494500Y-78755000I-20500J0D01*
G01*
X116965500Y-78755000D01*
G75*
G02*
X116945000Y-78734500I0J20500D01*
G01*
G37*
G36*
G01*
X116945000Y-78084500D02*
X116945000Y-77715500D01*
G75*
G02*
X116965500Y-77695000I20500J0D01*
G01*
X118494500Y-77695000D01*
G75*
G02*
X118515000Y-77715500I0J-20500D01*
G01*
X118515000Y-78084500D01*
G75*
G02*
X118494500Y-78105000I-20500J0D01*
G01*
X116965500Y-78105000D01*
G75*
G02*
X116945000Y-78084500I0J20500D01*
G01*
G37*
G36*
G01*
X116945000Y-77434500D02*
X116945000Y-77065500D01*
G75*
G02*
X116965500Y-77045000I20500J0D01*
G01*
X118494500Y-77045000D01*
G75*
G02*
X118515000Y-77065500I0J-20500D01*
G01*
X118515000Y-77434500D01*
G75*
G02*
X118494500Y-77455000I-20500J0D01*
G01*
X116965500Y-77455000D01*
G75*
G02*
X116945000Y-77434500I0J20500D01*
G01*
G37*
G36*
G01*
X116945000Y-76784500D02*
X116945000Y-76415500D01*
G75*
G02*
X116965500Y-76395000I20500J0D01*
G01*
X118494500Y-76395000D01*
G75*
G02*
X118515000Y-76415500I0J-20500D01*
G01*
X118515000Y-76784500D01*
G75*
G02*
X118494500Y-76805000I-20500J0D01*
G01*
X116965500Y-76805000D01*
G75*
G02*
X116945000Y-76784500I0J20500D01*
G01*
G37*
G36*
G01*
X116945000Y-76134500D02*
X116945000Y-75765500D01*
G75*
G02*
X116965500Y-75745000I20500J0D01*
G01*
X118494500Y-75745000D01*
G75*
G02*
X118515000Y-75765500I0J-20500D01*
G01*
X118515000Y-76134500D01*
G75*
G02*
X118494500Y-76155000I-20500J0D01*
G01*
X116965500Y-76155000D01*
G75*
G02*
X116945000Y-76134500I0J20500D01*
G01*
G37*
G36*
G01*
X116945000Y-75484500D02*
X116945000Y-75115500D01*
G75*
G02*
X116965500Y-75095000I20500J0D01*
G01*
X118494500Y-75095000D01*
G75*
G02*
X118515000Y-75115500I0J-20500D01*
G01*
X118515000Y-75484500D01*
G75*
G02*
X118494500Y-75505000I-20500J0D01*
G01*
X116965500Y-75505000D01*
G75*
G02*
X116945000Y-75484500I0J20500D01*
G01*
G37*
G36*
G01*
X116945000Y-74834500D02*
X116945000Y-74465500D01*
G75*
G02*
X116965500Y-74445000I20500J0D01*
G01*
X118494500Y-74445000D01*
G75*
G02*
X118515000Y-74465500I0J-20500D01*
G01*
X118515000Y-74834500D01*
G75*
G02*
X118494500Y-74855000I-20500J0D01*
G01*
X116965500Y-74855000D01*
G75*
G02*
X116945000Y-74834500I0J20500D01*
G01*
G37*
G36*
G01*
X96285000Y-73209500D02*
X96285000Y-72840500D01*
G75*
G02*
X96305500Y-72820000I20500J0D01*
G01*
X97834500Y-72820000D01*
G75*
G02*
X97855000Y-72840500I0J-20500D01*
G01*
X97855000Y-73209500D01*
G75*
G02*
X97834500Y-73230000I-20500J0D01*
G01*
X96305500Y-73230000D01*
G75*
G02*
X96285000Y-73209500I0J20500D01*
G01*
G37*
G36*
G01*
X96285000Y-73859500D02*
X96285000Y-73490500D01*
G75*
G02*
X96305500Y-73470000I20500J0D01*
G01*
X97834500Y-73470000D01*
G75*
G02*
X97855000Y-73490500I0J-20500D01*
G01*
X97855000Y-73859500D01*
G75*
G02*
X97834500Y-73880000I-20500J0D01*
G01*
X96305500Y-73880000D01*
G75*
G02*
X96285000Y-73859500I0J20500D01*
G01*
G37*
G36*
G01*
X96285000Y-74509500D02*
X96285000Y-74140500D01*
G75*
G02*
X96305500Y-74120000I20500J0D01*
G01*
X97834500Y-74120000D01*
G75*
G02*
X97855000Y-74140500I0J-20500D01*
G01*
X97855000Y-74509500D01*
G75*
G02*
X97834500Y-74530000I-20500J0D01*
G01*
X96305500Y-74530000D01*
G75*
G02*
X96285000Y-74509500I0J20500D01*
G01*
G37*
G36*
G01*
X96285000Y-75159500D02*
X96285000Y-74790500D01*
G75*
G02*
X96305500Y-74770000I20500J0D01*
G01*
X97834500Y-74770000D01*
G75*
G02*
X97855000Y-74790500I0J-20500D01*
G01*
X97855000Y-75159500D01*
G75*
G02*
X97834500Y-75180000I-20500J0D01*
G01*
X96305500Y-75180000D01*
G75*
G02*
X96285000Y-75159500I0J20500D01*
G01*
G37*
G36*
G01*
X96285000Y-75809500D02*
X96285000Y-75440500D01*
G75*
G02*
X96305500Y-75420000I20500J0D01*
G01*
X97834500Y-75420000D01*
G75*
G02*
X97855000Y-75440500I0J-20500D01*
G01*
X97855000Y-75809500D01*
G75*
G02*
X97834500Y-75830000I-20500J0D01*
G01*
X96305500Y-75830000D01*
G75*
G02*
X96285000Y-75809500I0J20500D01*
G01*
G37*
G36*
G01*
X96285000Y-76459500D02*
X96285000Y-76090500D01*
G75*
G02*
X96305500Y-76070000I20500J0D01*
G01*
X97834500Y-76070000D01*
G75*
G02*
X97855000Y-76090500I0J-20500D01*
G01*
X97855000Y-76459500D01*
G75*
G02*
X97834500Y-76480000I-20500J0D01*
G01*
X96305500Y-76480000D01*
G75*
G02*
X96285000Y-76459500I0J20500D01*
G01*
G37*
G36*
G01*
X96285000Y-77109500D02*
X96285000Y-76740500D01*
G75*
G02*
X96305500Y-76720000I20500J0D01*
G01*
X97834500Y-76720000D01*
G75*
G02*
X97855000Y-76740500I0J-20500D01*
G01*
X97855000Y-77109500D01*
G75*
G02*
X97834500Y-77130000I-20500J0D01*
G01*
X96305500Y-77130000D01*
G75*
G02*
X96285000Y-77109500I0J20500D01*
G01*
G37*
G36*
G01*
X96285000Y-77759500D02*
X96285000Y-77390500D01*
G75*
G02*
X96305500Y-77370000I20500J0D01*
G01*
X97834500Y-77370000D01*
G75*
G02*
X97855000Y-77390500I0J-20500D01*
G01*
X97855000Y-77759500D01*
G75*
G02*
X97834500Y-77780000I-20500J0D01*
G01*
X96305500Y-77780000D01*
G75*
G02*
X96285000Y-77759500I0J20500D01*
G01*
G37*
G36*
G01*
X96285000Y-78409500D02*
X96285000Y-78040500D01*
G75*
G02*
X96305500Y-78020000I20500J0D01*
G01*
X97834500Y-78020000D01*
G75*
G02*
X97855000Y-78040500I0J-20500D01*
G01*
X97855000Y-78409500D01*
G75*
G02*
X97834500Y-78430000I-20500J0D01*
G01*
X96305500Y-78430000D01*
G75*
G02*
X96285000Y-78409500I0J20500D01*
G01*
G37*
G36*
G01*
X96285000Y-79059500D02*
X96285000Y-78690500D01*
G75*
G02*
X96305500Y-78670000I20500J0D01*
G01*
X97834500Y-78670000D01*
G75*
G02*
X97855000Y-78690500I0J-20500D01*
G01*
X97855000Y-79059500D01*
G75*
G02*
X97834500Y-79080000I-20500J0D01*
G01*
X96305500Y-79080000D01*
G75*
G02*
X96285000Y-79059500I0J20500D01*
G01*
G37*
G36*
G01*
X96285000Y-79709500D02*
X96285000Y-79340500D01*
G75*
G02*
X96305500Y-79320000I20500J0D01*
G01*
X97834500Y-79320000D01*
G75*
G02*
X97855000Y-79340500I0J-20500D01*
G01*
X97855000Y-79709500D01*
G75*
G02*
X97834500Y-79730000I-20500J0D01*
G01*
X96305500Y-79730000D01*
G75*
G02*
X96285000Y-79709500I0J20500D01*
G01*
G37*
G36*
G01*
X96285000Y-80359500D02*
X96285000Y-79990500D01*
G75*
G02*
X96305500Y-79970000I20500J0D01*
G01*
X97834500Y-79970000D01*
G75*
G02*
X97855000Y-79990500I0J-20500D01*
G01*
X97855000Y-80359500D01*
G75*
G02*
X97834500Y-80380000I-20500J0D01*
G01*
X96305500Y-80380000D01*
G75*
G02*
X96285000Y-80359500I0J20500D01*
G01*
G37*
G36*
G01*
X96285000Y-81009500D02*
X96285000Y-80640500D01*
G75*
G02*
X96305500Y-80620000I20500J0D01*
G01*
X97834500Y-80620000D01*
G75*
G02*
X97855000Y-80640500I0J-20500D01*
G01*
X97855000Y-81009500D01*
G75*
G02*
X97834500Y-81030000I-20500J0D01*
G01*
X96305500Y-81030000D01*
G75*
G02*
X96285000Y-81009500I0J20500D01*
G01*
G37*
G36*
G01*
X96285000Y-81659500D02*
X96285000Y-81290500D01*
G75*
G02*
X96305500Y-81270000I20500J0D01*
G01*
X97834500Y-81270000D01*
G75*
G02*
X97855000Y-81290500I0J-20500D01*
G01*
X97855000Y-81659500D01*
G75*
G02*
X97834500Y-81680000I-20500J0D01*
G01*
X96305500Y-81680000D01*
G75*
G02*
X96285000Y-81659500I0J20500D01*
G01*
G37*
G36*
G01*
X90545000Y-81659500D02*
X90545000Y-81290500D01*
G75*
G02*
X90565500Y-81270000I20500J0D01*
G01*
X92094500Y-81270000D01*
G75*
G02*
X92115000Y-81290500I0J-20500D01*
G01*
X92115000Y-81659500D01*
G75*
G02*
X92094500Y-81680000I-20500J0D01*
G01*
X90565500Y-81680000D01*
G75*
G02*
X90545000Y-81659500I0J20500D01*
G01*
G37*
G36*
G01*
X90545000Y-81009500D02*
X90545000Y-80640500D01*
G75*
G02*
X90565500Y-80620000I20500J0D01*
G01*
X92094500Y-80620000D01*
G75*
G02*
X92115000Y-80640500I0J-20500D01*
G01*
X92115000Y-81009500D01*
G75*
G02*
X92094500Y-81030000I-20500J0D01*
G01*
X90565500Y-81030000D01*
G75*
G02*
X90545000Y-81009500I0J20500D01*
G01*
G37*
G36*
G01*
X90545000Y-80359500D02*
X90545000Y-79990500D01*
G75*
G02*
X90565500Y-79970000I20500J0D01*
G01*
X92094500Y-79970000D01*
G75*
G02*
X92115000Y-79990500I0J-20500D01*
G01*
X92115000Y-80359500D01*
G75*
G02*
X92094500Y-80380000I-20500J0D01*
G01*
X90565500Y-80380000D01*
G75*
G02*
X90545000Y-80359500I0J20500D01*
G01*
G37*
G36*
G01*
X90545000Y-79709500D02*
X90545000Y-79340500D01*
G75*
G02*
X90565500Y-79320000I20500J0D01*
G01*
X92094500Y-79320000D01*
G75*
G02*
X92115000Y-79340500I0J-20500D01*
G01*
X92115000Y-79709500D01*
G75*
G02*
X92094500Y-79730000I-20500J0D01*
G01*
X90565500Y-79730000D01*
G75*
G02*
X90545000Y-79709500I0J20500D01*
G01*
G37*
G36*
G01*
X90545000Y-79059500D02*
X90545000Y-78690500D01*
G75*
G02*
X90565500Y-78670000I20500J0D01*
G01*
X92094500Y-78670000D01*
G75*
G02*
X92115000Y-78690500I0J-20500D01*
G01*
X92115000Y-79059500D01*
G75*
G02*
X92094500Y-79080000I-20500J0D01*
G01*
X90565500Y-79080000D01*
G75*
G02*
X90545000Y-79059500I0J20500D01*
G01*
G37*
G36*
G01*
X90545000Y-78409500D02*
X90545000Y-78040500D01*
G75*
G02*
X90565500Y-78020000I20500J0D01*
G01*
X92094500Y-78020000D01*
G75*
G02*
X92115000Y-78040500I0J-20500D01*
G01*
X92115000Y-78409500D01*
G75*
G02*
X92094500Y-78430000I-20500J0D01*
G01*
X90565500Y-78430000D01*
G75*
G02*
X90545000Y-78409500I0J20500D01*
G01*
G37*
G36*
G01*
X90545000Y-77759500D02*
X90545000Y-77390500D01*
G75*
G02*
X90565500Y-77370000I20500J0D01*
G01*
X92094500Y-77370000D01*
G75*
G02*
X92115000Y-77390500I0J-20500D01*
G01*
X92115000Y-77759500D01*
G75*
G02*
X92094500Y-77780000I-20500J0D01*
G01*
X90565500Y-77780000D01*
G75*
G02*
X90545000Y-77759500I0J20500D01*
G01*
G37*
G36*
G01*
X90545000Y-77109500D02*
X90545000Y-76740500D01*
G75*
G02*
X90565500Y-76720000I20500J0D01*
G01*
X92094500Y-76720000D01*
G75*
G02*
X92115000Y-76740500I0J-20500D01*
G01*
X92115000Y-77109500D01*
G75*
G02*
X92094500Y-77130000I-20500J0D01*
G01*
X90565500Y-77130000D01*
G75*
G02*
X90545000Y-77109500I0J20500D01*
G01*
G37*
G36*
G01*
X90545000Y-76459500D02*
X90545000Y-76090500D01*
G75*
G02*
X90565500Y-76070000I20500J0D01*
G01*
X92094500Y-76070000D01*
G75*
G02*
X92115000Y-76090500I0J-20500D01*
G01*
X92115000Y-76459500D01*
G75*
G02*
X92094500Y-76480000I-20500J0D01*
G01*
X90565500Y-76480000D01*
G75*
G02*
X90545000Y-76459500I0J20500D01*
G01*
G37*
G36*
G01*
X90545000Y-75809500D02*
X90545000Y-75440500D01*
G75*
G02*
X90565500Y-75420000I20500J0D01*
G01*
X92094500Y-75420000D01*
G75*
G02*
X92115000Y-75440500I0J-20500D01*
G01*
X92115000Y-75809500D01*
G75*
G02*
X92094500Y-75830000I-20500J0D01*
G01*
X90565500Y-75830000D01*
G75*
G02*
X90545000Y-75809500I0J20500D01*
G01*
G37*
G36*
G01*
X90545000Y-75159500D02*
X90545000Y-74790500D01*
G75*
G02*
X90565500Y-74770000I20500J0D01*
G01*
X92094500Y-74770000D01*
G75*
G02*
X92115000Y-74790500I0J-20500D01*
G01*
X92115000Y-75159500D01*
G75*
G02*
X92094500Y-75180000I-20500J0D01*
G01*
X90565500Y-75180000D01*
G75*
G02*
X90545000Y-75159500I0J20500D01*
G01*
G37*
G36*
G01*
X90545000Y-74509500D02*
X90545000Y-74140500D01*
G75*
G02*
X90565500Y-74120000I20500J0D01*
G01*
X92094500Y-74120000D01*
G75*
G02*
X92115000Y-74140500I0J-20500D01*
G01*
X92115000Y-74509500D01*
G75*
G02*
X92094500Y-74530000I-20500J0D01*
G01*
X90565500Y-74530000D01*
G75*
G02*
X90545000Y-74509500I0J20500D01*
G01*
G37*
G36*
G01*
X90545000Y-73859500D02*
X90545000Y-73490500D01*
G75*
G02*
X90565500Y-73470000I20500J0D01*
G01*
X92094500Y-73470000D01*
G75*
G02*
X92115000Y-73490500I0J-20500D01*
G01*
X92115000Y-73859500D01*
G75*
G02*
X92094500Y-73880000I-20500J0D01*
G01*
X90565500Y-73880000D01*
G75*
G02*
X90545000Y-73859500I0J20500D01*
G01*
G37*
G36*
G01*
X90545000Y-73209500D02*
X90545000Y-72840500D01*
G75*
G02*
X90565500Y-72820000I20500J0D01*
G01*
X92094500Y-72820000D01*
G75*
G02*
X92115000Y-72840500I0J-20500D01*
G01*
X92115000Y-73209500D01*
G75*
G02*
X92094500Y-73230000I-20500J0D01*
G01*
X90565500Y-73230000D01*
G75*
G02*
X90545000Y-73209500I0J20500D01*
G01*
G37*
G36*
G01*
X102856250Y-57150000D02*
X101943750Y-57150000D01*
G75*
G02*
X101700000Y-56906250I0J243750D01*
G01*
X101700000Y-56418750D01*
G75*
G02*
X101943750Y-56175000I243750J0D01*
G01*
X102856250Y-56175000D01*
G75*
G02*
X103100000Y-56418750I0J-243750D01*
G01*
X103100000Y-56906250D01*
G75*
G02*
X102856250Y-57150000I-243750J0D01*
G01*
G37*
G36*
G01*
X102856250Y-59025000D02*
X101943750Y-59025000D01*
G75*
G02*
X101700000Y-58781250I0J243750D01*
G01*
X101700000Y-58293750D01*
G75*
G02*
X101943750Y-58050000I243750J0D01*
G01*
X102856250Y-58050000D01*
G75*
G02*
X103100000Y-58293750I0J-243750D01*
G01*
X103100000Y-58781250D01*
G75*
G02*
X102856250Y-59025000I-243750J0D01*
G01*
G37*
G36*
G01*
X105856250Y-57150000D02*
X104943750Y-57150000D01*
G75*
G02*
X104700000Y-56906250I0J243750D01*
G01*
X104700000Y-56418750D01*
G75*
G02*
X104943750Y-56175000I243750J0D01*
G01*
X105856250Y-56175000D01*
G75*
G02*
X106100000Y-56418750I0J-243750D01*
G01*
X106100000Y-56906250D01*
G75*
G02*
X105856250Y-57150000I-243750J0D01*
G01*
G37*
G36*
G01*
X105856250Y-59025000D02*
X104943750Y-59025000D01*
G75*
G02*
X104700000Y-58781250I0J243750D01*
G01*
X104700000Y-58293750D01*
G75*
G02*
X104943750Y-58050000I243750J0D01*
G01*
X105856250Y-58050000D01*
G75*
G02*
X106100000Y-58293750I0J-243750D01*
G01*
X106100000Y-58781250D01*
G75*
G02*
X105856250Y-59025000I-243750J0D01*
G01*
G37*
D10*
G36*
X78387347Y-68800089D02*
G01*
X78564124Y-68976866D01*
X77786307Y-69754683D01*
X77609530Y-69577906D01*
X78387347Y-68800089D01*
G37*
G36*
X78033794Y-68446536D02*
G01*
X78210571Y-68623313D01*
X77432754Y-69401130D01*
X77255977Y-69224353D01*
X78033794Y-68446536D01*
G37*
G36*
X77680240Y-68092983D02*
G01*
X77857017Y-68269760D01*
X77079200Y-69047577D01*
X76902423Y-68870800D01*
X77680240Y-68092983D01*
G37*
G36*
X77326687Y-67739429D02*
G01*
X77503464Y-67916206D01*
X76725647Y-68694023D01*
X76548870Y-68517246D01*
X77326687Y-67739429D01*
G37*
G36*
X76973134Y-67385876D02*
G01*
X77149911Y-67562653D01*
X76372094Y-68340470D01*
X76195317Y-68163693D01*
X76973134Y-67385876D01*
G37*
G36*
X80013693Y-64345317D02*
G01*
X80190470Y-64522094D01*
X79412653Y-65299911D01*
X79235876Y-65123134D01*
X80013693Y-64345317D01*
G37*
G36*
X80367246Y-64698870D02*
G01*
X80544023Y-64875647D01*
X79766206Y-65653464D01*
X79589429Y-65476687D01*
X80367246Y-64698870D01*
G37*
G36*
X80720800Y-65052423D02*
G01*
X80897577Y-65229200D01*
X80119760Y-66007017D01*
X79942983Y-65830240D01*
X80720800Y-65052423D01*
G37*
G36*
X81074353Y-65405977D02*
G01*
X81251130Y-65582754D01*
X80473313Y-66360571D01*
X80296536Y-66183794D01*
X81074353Y-65405977D01*
G37*
G36*
X81427906Y-65759530D02*
G01*
X81604683Y-65936307D01*
X80826866Y-66714124D01*
X80650089Y-66537347D01*
X81427906Y-65759530D01*
G37*
D11*
X63075000Y-73075000D03*
X64975000Y-73075000D03*
X64975000Y-75275000D03*
X64025000Y-75275000D03*
X63075000Y-75275000D03*
D12*
X108775000Y-62225000D03*
X110425000Y-62225000D03*
X110425000Y-63775000D03*
X108775000Y-63775000D03*
D11*
X58150000Y-82175000D03*
X60050000Y-82175000D03*
X60050000Y-84375000D03*
X59100000Y-84375000D03*
X58150000Y-84375000D03*
G36*
G01*
X85750000Y-60993750D02*
X85750000Y-61906250D01*
G75*
G02*
X85506250Y-62150000I-243750J0D01*
G01*
X85018750Y-62150000D01*
G75*
G02*
X84775000Y-61906250I0J243750D01*
G01*
X84775000Y-60993750D01*
G75*
G02*
X85018750Y-60750000I243750J0D01*
G01*
X85506250Y-60750000D01*
G75*
G02*
X85750000Y-60993750I0J-243750D01*
G01*
G37*
G36*
G01*
X87625000Y-60993750D02*
X87625000Y-61906250D01*
G75*
G02*
X87381250Y-62150000I-243750J0D01*
G01*
X86893750Y-62150000D01*
G75*
G02*
X86650000Y-61906250I0J243750D01*
G01*
X86650000Y-60993750D01*
G75*
G02*
X86893750Y-60750000I243750J0D01*
G01*
X87381250Y-60750000D01*
G75*
G02*
X87625000Y-60993750I0J-243750D01*
G01*
G37*
G36*
G01*
X82050000Y-118256250D02*
X82050000Y-117343750D01*
G75*
G02*
X82293750Y-117100000I243750J0D01*
G01*
X82781250Y-117100000D01*
G75*
G02*
X83025000Y-117343750I0J-243750D01*
G01*
X83025000Y-118256250D01*
G75*
G02*
X82781250Y-118500000I-243750J0D01*
G01*
X82293750Y-118500000D01*
G75*
G02*
X82050000Y-118256250I0J243750D01*
G01*
G37*
G36*
G01*
X80175000Y-118256250D02*
X80175000Y-117343750D01*
G75*
G02*
X80418750Y-117100000I243750J0D01*
G01*
X80906250Y-117100000D01*
G75*
G02*
X81150000Y-117343750I0J-243750D01*
G01*
X81150000Y-118256250D01*
G75*
G02*
X80906250Y-118500000I-243750J0D01*
G01*
X80418750Y-118500000D01*
G75*
G02*
X80175000Y-118256250I0J243750D01*
G01*
G37*
G36*
G01*
X81450000Y-121656250D02*
X81450000Y-120743750D01*
G75*
G02*
X81693750Y-120500000I243750J0D01*
G01*
X82181250Y-120500000D01*
G75*
G02*
X82425000Y-120743750I0J-243750D01*
G01*
X82425000Y-121656250D01*
G75*
G02*
X82181250Y-121900000I-243750J0D01*
G01*
X81693750Y-121900000D01*
G75*
G02*
X81450000Y-121656250I0J243750D01*
G01*
G37*
G36*
G01*
X79575000Y-121656250D02*
X79575000Y-120743750D01*
G75*
G02*
X79818750Y-120500000I243750J0D01*
G01*
X80306250Y-120500000D01*
G75*
G02*
X80550000Y-120743750I0J-243750D01*
G01*
X80550000Y-121656250D01*
G75*
G02*
X80306250Y-121900000I-243750J0D01*
G01*
X79818750Y-121900000D01*
G75*
G02*
X79575000Y-121656250I0J243750D01*
G01*
G37*
G36*
G01*
X113050000Y-106956250D02*
X113050000Y-106043750D01*
G75*
G02*
X113293750Y-105800000I243750J0D01*
G01*
X113781250Y-105800000D01*
G75*
G02*
X114025000Y-106043750I0J-243750D01*
G01*
X114025000Y-106956250D01*
G75*
G02*
X113781250Y-107200000I-243750J0D01*
G01*
X113293750Y-107200000D01*
G75*
G02*
X113050000Y-106956250I0J243750D01*
G01*
G37*
G36*
G01*
X111175000Y-106956250D02*
X111175000Y-106043750D01*
G75*
G02*
X111418750Y-105800000I243750J0D01*
G01*
X111906250Y-105800000D01*
G75*
G02*
X112150000Y-106043750I0J-243750D01*
G01*
X112150000Y-106956250D01*
G75*
G02*
X111906250Y-107200000I-243750J0D01*
G01*
X111418750Y-107200000D01*
G75*
G02*
X111175000Y-106956250I0J243750D01*
G01*
G37*
G36*
G01*
X107950000Y-106043750D02*
X107950000Y-106956250D01*
G75*
G02*
X107706250Y-107200000I-243750J0D01*
G01*
X107218750Y-107200000D01*
G75*
G02*
X106975000Y-106956250I0J243750D01*
G01*
X106975000Y-106043750D01*
G75*
G02*
X107218750Y-105800000I243750J0D01*
G01*
X107706250Y-105800000D01*
G75*
G02*
X107950000Y-106043750I0J-243750D01*
G01*
G37*
G36*
G01*
X109825000Y-106043750D02*
X109825000Y-106956250D01*
G75*
G02*
X109581250Y-107200000I-243750J0D01*
G01*
X109093750Y-107200000D01*
G75*
G02*
X108850000Y-106956250I0J243750D01*
G01*
X108850000Y-106043750D01*
G75*
G02*
X109093750Y-105800000I243750J0D01*
G01*
X109581250Y-105800000D01*
G75*
G02*
X109825000Y-106043750I0J-243750D01*
G01*
G37*
G36*
G01*
X129750000Y-78143750D02*
X129750000Y-79056250D01*
G75*
G02*
X129506250Y-79300000I-243750J0D01*
G01*
X129018750Y-79300000D01*
G75*
G02*
X128775000Y-79056250I0J243750D01*
G01*
X128775000Y-78143750D01*
G75*
G02*
X129018750Y-77900000I243750J0D01*
G01*
X129506250Y-77900000D01*
G75*
G02*
X129750000Y-78143750I0J-243750D01*
G01*
G37*
G36*
G01*
X131625000Y-78143750D02*
X131625000Y-79056250D01*
G75*
G02*
X131381250Y-79300000I-243750J0D01*
G01*
X130893750Y-79300000D01*
G75*
G02*
X130650000Y-79056250I0J243750D01*
G01*
X130650000Y-78143750D01*
G75*
G02*
X130893750Y-77900000I243750J0D01*
G01*
X131381250Y-77900000D01*
G75*
G02*
X131625000Y-78143750I0J-243750D01*
G01*
G37*
G36*
G01*
X131750000Y-80743750D02*
X131750000Y-81656250D01*
G75*
G02*
X131506250Y-81900000I-243750J0D01*
G01*
X131018750Y-81900000D01*
G75*
G02*
X130775000Y-81656250I0J243750D01*
G01*
X130775000Y-80743750D01*
G75*
G02*
X131018750Y-80500000I243750J0D01*
G01*
X131506250Y-80500000D01*
G75*
G02*
X131750000Y-80743750I0J-243750D01*
G01*
G37*
G36*
G01*
X133625000Y-80743750D02*
X133625000Y-81656250D01*
G75*
G02*
X133381250Y-81900000I-243750J0D01*
G01*
X132893750Y-81900000D01*
G75*
G02*
X132650000Y-81656250I0J243750D01*
G01*
X132650000Y-80743750D01*
G75*
G02*
X132893750Y-80500000I243750J0D01*
G01*
X133381250Y-80500000D01*
G75*
G02*
X133625000Y-80743750I0J-243750D01*
G01*
G37*
G36*
G01*
X131350000Y-73856250D02*
X131350000Y-72943750D01*
G75*
G02*
X131593750Y-72700000I243750J0D01*
G01*
X132081250Y-72700000D01*
G75*
G02*
X132325000Y-72943750I0J-243750D01*
G01*
X132325000Y-73856250D01*
G75*
G02*
X132081250Y-74100000I-243750J0D01*
G01*
X131593750Y-74100000D01*
G75*
G02*
X131350000Y-73856250I0J243750D01*
G01*
G37*
G36*
G01*
X129475000Y-73856250D02*
X129475000Y-72943750D01*
G75*
G02*
X129718750Y-72700000I243750J0D01*
G01*
X130206250Y-72700000D01*
G75*
G02*
X130450000Y-72943750I0J-243750D01*
G01*
X130450000Y-73856250D01*
G75*
G02*
X130206250Y-74100000I-243750J0D01*
G01*
X129718750Y-74100000D01*
G75*
G02*
X129475000Y-73856250I0J243750D01*
G01*
G37*
G36*
G01*
X128650000Y-71256250D02*
X128650000Y-70343750D01*
G75*
G02*
X128893750Y-70100000I243750J0D01*
G01*
X129381250Y-70100000D01*
G75*
G02*
X129625000Y-70343750I0J-243750D01*
G01*
X129625000Y-71256250D01*
G75*
G02*
X129381250Y-71500000I-243750J0D01*
G01*
X128893750Y-71500000D01*
G75*
G02*
X128650000Y-71256250I0J243750D01*
G01*
G37*
G36*
G01*
X126775000Y-71256250D02*
X126775000Y-70343750D01*
G75*
G02*
X127018750Y-70100000I243750J0D01*
G01*
X127506250Y-70100000D01*
G75*
G02*
X127750000Y-70343750I0J-243750D01*
G01*
X127750000Y-71256250D01*
G75*
G02*
X127506250Y-71500000I-243750J0D01*
G01*
X127018750Y-71500000D01*
G75*
G02*
X126775000Y-71256250I0J243750D01*
G01*
G37*
G36*
G01*
X132650000Y-76456250D02*
X132650000Y-75543750D01*
G75*
G02*
X132893750Y-75300000I243750J0D01*
G01*
X133381250Y-75300000D01*
G75*
G02*
X133625000Y-75543750I0J-243750D01*
G01*
X133625000Y-76456250D01*
G75*
G02*
X133381250Y-76700000I-243750J0D01*
G01*
X132893750Y-76700000D01*
G75*
G02*
X132650000Y-76456250I0J243750D01*
G01*
G37*
G36*
G01*
X130775000Y-76456250D02*
X130775000Y-75543750D01*
G75*
G02*
X131018750Y-75300000I243750J0D01*
G01*
X131506250Y-75300000D01*
G75*
G02*
X131750000Y-75543750I0J-243750D01*
G01*
X131750000Y-76456250D01*
G75*
G02*
X131506250Y-76700000I-243750J0D01*
G01*
X131018750Y-76700000D01*
G75*
G02*
X130775000Y-76456250I0J243750D01*
G01*
G37*
G36*
G01*
X67956250Y-79950000D02*
X67043750Y-79950000D01*
G75*
G02*
X66800000Y-79706250I0J243750D01*
G01*
X66800000Y-79218750D01*
G75*
G02*
X67043750Y-78975000I243750J0D01*
G01*
X67956250Y-78975000D01*
G75*
G02*
X68200000Y-79218750I0J-243750D01*
G01*
X68200000Y-79706250D01*
G75*
G02*
X67956250Y-79950000I-243750J0D01*
G01*
G37*
G36*
G01*
X67956250Y-81825000D02*
X67043750Y-81825000D01*
G75*
G02*
X66800000Y-81581250I0J243750D01*
G01*
X66800000Y-81093750D01*
G75*
G02*
X67043750Y-80850000I243750J0D01*
G01*
X67956250Y-80850000D01*
G75*
G02*
X68200000Y-81093750I0J-243750D01*
G01*
X68200000Y-81581250D01*
G75*
G02*
X67956250Y-81825000I-243750J0D01*
G01*
G37*
G36*
G01*
X67931250Y-84175000D02*
X67018750Y-84175000D01*
G75*
G02*
X66775000Y-83931250I0J243750D01*
G01*
X66775000Y-83443750D01*
G75*
G02*
X67018750Y-83200000I243750J0D01*
G01*
X67931250Y-83200000D01*
G75*
G02*
X68175000Y-83443750I0J-243750D01*
G01*
X68175000Y-83931250D01*
G75*
G02*
X67931250Y-84175000I-243750J0D01*
G01*
G37*
G36*
G01*
X67931250Y-86050000D02*
X67018750Y-86050000D01*
G75*
G02*
X66775000Y-85806250I0J243750D01*
G01*
X66775000Y-85318750D01*
G75*
G02*
X67018750Y-85075000I243750J0D01*
G01*
X67931250Y-85075000D01*
G75*
G02*
X68175000Y-85318750I0J-243750D01*
G01*
X68175000Y-85806250D01*
G75*
G02*
X67931250Y-86050000I-243750J0D01*
G01*
G37*
G36*
G01*
X104743750Y-63450000D02*
X105656250Y-63450000D01*
G75*
G02*
X105900000Y-63693750I0J-243750D01*
G01*
X105900000Y-64181250D01*
G75*
G02*
X105656250Y-64425000I-243750J0D01*
G01*
X104743750Y-64425000D01*
G75*
G02*
X104500000Y-64181250I0J243750D01*
G01*
X104500000Y-63693750D01*
G75*
G02*
X104743750Y-63450000I243750J0D01*
G01*
G37*
G36*
G01*
X104743750Y-61575000D02*
X105656250Y-61575000D01*
G75*
G02*
X105900000Y-61818750I0J-243750D01*
G01*
X105900000Y-62306250D01*
G75*
G02*
X105656250Y-62550000I-243750J0D01*
G01*
X104743750Y-62550000D01*
G75*
G02*
X104500000Y-62306250I0J243750D01*
G01*
X104500000Y-61818750D01*
G75*
G02*
X104743750Y-61575000I243750J0D01*
G01*
G37*
G36*
G01*
X82950000Y-81943750D02*
X82950000Y-82856250D01*
G75*
G02*
X82706250Y-83100000I-243750J0D01*
G01*
X82218750Y-83100000D01*
G75*
G02*
X81975000Y-82856250I0J243750D01*
G01*
X81975000Y-81943750D01*
G75*
G02*
X82218750Y-81700000I243750J0D01*
G01*
X82706250Y-81700000D01*
G75*
G02*
X82950000Y-81943750I0J-243750D01*
G01*
G37*
G36*
G01*
X84825000Y-81943750D02*
X84825000Y-82856250D01*
G75*
G02*
X84581250Y-83100000I-243750J0D01*
G01*
X84093750Y-83100000D01*
G75*
G02*
X83850000Y-82856250I0J243750D01*
G01*
X83850000Y-81943750D01*
G75*
G02*
X84093750Y-81700000I243750J0D01*
G01*
X84581250Y-81700000D01*
G75*
G02*
X84825000Y-81943750I0J-243750D01*
G01*
G37*
G36*
G01*
X56543750Y-108700000D02*
X57456250Y-108700000D01*
G75*
G02*
X57700000Y-108943750I0J-243750D01*
G01*
X57700000Y-109431250D01*
G75*
G02*
X57456250Y-109675000I-243750J0D01*
G01*
X56543750Y-109675000D01*
G75*
G02*
X56300000Y-109431250I0J243750D01*
G01*
X56300000Y-108943750D01*
G75*
G02*
X56543750Y-108700000I243750J0D01*
G01*
G37*
G36*
G01*
X56543750Y-106825000D02*
X57456250Y-106825000D01*
G75*
G02*
X57700000Y-107068750I0J-243750D01*
G01*
X57700000Y-107556250D01*
G75*
G02*
X57456250Y-107800000I-243750J0D01*
G01*
X56543750Y-107800000D01*
G75*
G02*
X56300000Y-107556250I0J243750D01*
G01*
X56300000Y-107068750D01*
G75*
G02*
X56543750Y-106825000I243750J0D01*
G01*
G37*
G36*
G01*
X107300000Y-74543750D02*
X107300000Y-75456250D01*
G75*
G02*
X107056250Y-75700000I-243750J0D01*
G01*
X106568750Y-75700000D01*
G75*
G02*
X106325000Y-75456250I0J243750D01*
G01*
X106325000Y-74543750D01*
G75*
G02*
X106568750Y-74300000I243750J0D01*
G01*
X107056250Y-74300000D01*
G75*
G02*
X107300000Y-74543750I0J-243750D01*
G01*
G37*
G36*
G01*
X109175000Y-74543750D02*
X109175000Y-75456250D01*
G75*
G02*
X108931250Y-75700000I-243750J0D01*
G01*
X108443750Y-75700000D01*
G75*
G02*
X108200000Y-75456250I0J243750D01*
G01*
X108200000Y-74543750D01*
G75*
G02*
X108443750Y-74300000I243750J0D01*
G01*
X108931250Y-74300000D01*
G75*
G02*
X109175000Y-74543750I0J-243750D01*
G01*
G37*
G36*
G01*
X87850000Y-66256250D02*
X87850000Y-65343750D01*
G75*
G02*
X88093750Y-65100000I243750J0D01*
G01*
X88581250Y-65100000D01*
G75*
G02*
X88825000Y-65343750I0J-243750D01*
G01*
X88825000Y-66256250D01*
G75*
G02*
X88581250Y-66500000I-243750J0D01*
G01*
X88093750Y-66500000D01*
G75*
G02*
X87850000Y-66256250I0J243750D01*
G01*
G37*
G36*
G01*
X85975000Y-66256250D02*
X85975000Y-65343750D01*
G75*
G02*
X86218750Y-65100000I243750J0D01*
G01*
X86706250Y-65100000D01*
G75*
G02*
X86950000Y-65343750I0J-243750D01*
G01*
X86950000Y-66256250D01*
G75*
G02*
X86706250Y-66500000I-243750J0D01*
G01*
X86218750Y-66500000D01*
G75*
G02*
X85975000Y-66256250I0J243750D01*
G01*
G37*
G36*
G01*
X85975000Y-69956250D02*
X85975000Y-69043750D01*
G75*
G02*
X86218750Y-68800000I243750J0D01*
G01*
X86706250Y-68800000D01*
G75*
G02*
X86950000Y-69043750I0J-243750D01*
G01*
X86950000Y-69956250D01*
G75*
G02*
X86706250Y-70200000I-243750J0D01*
G01*
X86218750Y-70200000D01*
G75*
G02*
X85975000Y-69956250I0J243750D01*
G01*
G37*
G36*
G01*
X84100000Y-69956250D02*
X84100000Y-69043750D01*
G75*
G02*
X84343750Y-68800000I243750J0D01*
G01*
X84831250Y-68800000D01*
G75*
G02*
X85075000Y-69043750I0J-243750D01*
G01*
X85075000Y-69956250D01*
G75*
G02*
X84831250Y-70200000I-243750J0D01*
G01*
X84343750Y-70200000D01*
G75*
G02*
X84100000Y-69956250I0J243750D01*
G01*
G37*
G36*
G01*
X82950000Y-79543750D02*
X82950000Y-80456250D01*
G75*
G02*
X82706250Y-80700000I-243750J0D01*
G01*
X82218750Y-80700000D01*
G75*
G02*
X81975000Y-80456250I0J243750D01*
G01*
X81975000Y-79543750D01*
G75*
G02*
X82218750Y-79300000I243750J0D01*
G01*
X82706250Y-79300000D01*
G75*
G02*
X82950000Y-79543750I0J-243750D01*
G01*
G37*
G36*
G01*
X84825000Y-79543750D02*
X84825000Y-80456250D01*
G75*
G02*
X84581250Y-80700000I-243750J0D01*
G01*
X84093750Y-80700000D01*
G75*
G02*
X83850000Y-80456250I0J243750D01*
G01*
X83850000Y-79543750D01*
G75*
G02*
X84093750Y-79300000I243750J0D01*
G01*
X84581250Y-79300000D01*
G75*
G02*
X84825000Y-79543750I0J-243750D01*
G01*
G37*
G36*
G01*
X78950000Y-77143750D02*
X78950000Y-78056250D01*
G75*
G02*
X78706250Y-78300000I-243750J0D01*
G01*
X78218750Y-78300000D01*
G75*
G02*
X77975000Y-78056250I0J243750D01*
G01*
X77975000Y-77143750D01*
G75*
G02*
X78218750Y-76900000I243750J0D01*
G01*
X78706250Y-76900000D01*
G75*
G02*
X78950000Y-77143750I0J-243750D01*
G01*
G37*
G36*
G01*
X80825000Y-77143750D02*
X80825000Y-78056250D01*
G75*
G02*
X80581250Y-78300000I-243750J0D01*
G01*
X80093750Y-78300000D01*
G75*
G02*
X79850000Y-78056250I0J243750D01*
G01*
X79850000Y-77143750D01*
G75*
G02*
X80093750Y-76900000I243750J0D01*
G01*
X80581250Y-76900000D01*
G75*
G02*
X80825000Y-77143750I0J-243750D01*
G01*
G37*
G36*
G01*
X106200000Y-77956250D02*
X106200000Y-77043750D01*
G75*
G02*
X106443750Y-76800000I243750J0D01*
G01*
X106931250Y-76800000D01*
G75*
G02*
X107175000Y-77043750I0J-243750D01*
G01*
X107175000Y-77956250D01*
G75*
G02*
X106931250Y-78200000I-243750J0D01*
G01*
X106443750Y-78200000D01*
G75*
G02*
X106200000Y-77956250I0J243750D01*
G01*
G37*
G36*
G01*
X104325000Y-77956250D02*
X104325000Y-77043750D01*
G75*
G02*
X104568750Y-76800000I243750J0D01*
G01*
X105056250Y-76800000D01*
G75*
G02*
X105300000Y-77043750I0J-243750D01*
G01*
X105300000Y-77956250D01*
G75*
G02*
X105056250Y-78200000I-243750J0D01*
G01*
X104568750Y-78200000D01*
G75*
G02*
X104325000Y-77956250I0J243750D01*
G01*
G37*
G36*
G01*
X59450000Y-80206250D02*
X59450000Y-79293750D01*
G75*
G02*
X59693750Y-79050000I243750J0D01*
G01*
X60181250Y-79050000D01*
G75*
G02*
X60425000Y-79293750I0J-243750D01*
G01*
X60425000Y-80206250D01*
G75*
G02*
X60181250Y-80450000I-243750J0D01*
G01*
X59693750Y-80450000D01*
G75*
G02*
X59450000Y-80206250I0J243750D01*
G01*
G37*
G36*
G01*
X57575000Y-80206250D02*
X57575000Y-79293750D01*
G75*
G02*
X57818750Y-79050000I243750J0D01*
G01*
X58306250Y-79050000D01*
G75*
G02*
X58550000Y-79293750I0J-243750D01*
G01*
X58550000Y-80206250D01*
G75*
G02*
X58306250Y-80450000I-243750J0D01*
G01*
X57818750Y-80450000D01*
G75*
G02*
X57575000Y-80206250I0J243750D01*
G01*
G37*
G36*
G01*
X108200000Y-80456250D02*
X108200000Y-79543750D01*
G75*
G02*
X108443750Y-79300000I243750J0D01*
G01*
X108931250Y-79300000D01*
G75*
G02*
X109175000Y-79543750I0J-243750D01*
G01*
X109175000Y-80456250D01*
G75*
G02*
X108931250Y-80700000I-243750J0D01*
G01*
X108443750Y-80700000D01*
G75*
G02*
X108200000Y-80456250I0J243750D01*
G01*
G37*
G36*
G01*
X106325000Y-80456250D02*
X106325000Y-79543750D01*
G75*
G02*
X106568750Y-79300000I243750J0D01*
G01*
X107056250Y-79300000D01*
G75*
G02*
X107300000Y-79543750I0J-243750D01*
G01*
X107300000Y-80456250D01*
G75*
G02*
X107056250Y-80700000I-243750J0D01*
G01*
X106568750Y-80700000D01*
G75*
G02*
X106325000Y-80456250I0J243750D01*
G01*
G37*
G36*
G01*
X106200000Y-82956250D02*
X106200000Y-82043750D01*
G75*
G02*
X106443750Y-81800000I243750J0D01*
G01*
X106931250Y-81800000D01*
G75*
G02*
X107175000Y-82043750I0J-243750D01*
G01*
X107175000Y-82956250D01*
G75*
G02*
X106931250Y-83200000I-243750J0D01*
G01*
X106443750Y-83200000D01*
G75*
G02*
X106200000Y-82956250I0J243750D01*
G01*
G37*
G36*
G01*
X104325000Y-82956250D02*
X104325000Y-82043750D01*
G75*
G02*
X104568750Y-81800000I243750J0D01*
G01*
X105056250Y-81800000D01*
G75*
G02*
X105300000Y-82043750I0J-243750D01*
G01*
X105300000Y-82956250D01*
G75*
G02*
X105056250Y-83200000I-243750J0D01*
G01*
X104568750Y-83200000D01*
G75*
G02*
X104325000Y-82956250I0J243750D01*
G01*
G37*
G36*
G01*
X57550000Y-103543750D02*
X57550000Y-104456250D01*
G75*
G02*
X57306250Y-104700000I-243750J0D01*
G01*
X56818750Y-104700000D01*
G75*
G02*
X56575000Y-104456250I0J243750D01*
G01*
X56575000Y-103543750D01*
G75*
G02*
X56818750Y-103300000I243750J0D01*
G01*
X57306250Y-103300000D01*
G75*
G02*
X57550000Y-103543750I0J-243750D01*
G01*
G37*
G36*
G01*
X59425000Y-103543750D02*
X59425000Y-104456250D01*
G75*
G02*
X59181250Y-104700000I-243750J0D01*
G01*
X58693750Y-104700000D01*
G75*
G02*
X58450000Y-104456250I0J243750D01*
G01*
X58450000Y-103543750D01*
G75*
G02*
X58693750Y-103300000I243750J0D01*
G01*
X59181250Y-103300000D01*
G75*
G02*
X59425000Y-103543750I0J-243750D01*
G01*
G37*
G36*
G01*
X61800000Y-103543750D02*
X61800000Y-104456250D01*
G75*
G02*
X61556250Y-104700000I-243750J0D01*
G01*
X61068750Y-104700000D01*
G75*
G02*
X60825000Y-104456250I0J243750D01*
G01*
X60825000Y-103543750D01*
G75*
G02*
X61068750Y-103300000I243750J0D01*
G01*
X61556250Y-103300000D01*
G75*
G02*
X61800000Y-103543750I0J-243750D01*
G01*
G37*
G36*
G01*
X63675000Y-103543750D02*
X63675000Y-104456250D01*
G75*
G02*
X63431250Y-104700000I-243750J0D01*
G01*
X62943750Y-104700000D01*
G75*
G02*
X62700000Y-104456250I0J243750D01*
G01*
X62700000Y-103543750D01*
G75*
G02*
X62943750Y-103300000I243750J0D01*
G01*
X63431250Y-103300000D01*
G75*
G02*
X63675000Y-103543750I0J-243750D01*
G01*
G37*
G36*
G01*
X66050000Y-103543750D02*
X66050000Y-104456250D01*
G75*
G02*
X65806250Y-104700000I-243750J0D01*
G01*
X65318750Y-104700000D01*
G75*
G02*
X65075000Y-104456250I0J243750D01*
G01*
X65075000Y-103543750D01*
G75*
G02*
X65318750Y-103300000I243750J0D01*
G01*
X65806250Y-103300000D01*
G75*
G02*
X66050000Y-103543750I0J-243750D01*
G01*
G37*
G36*
G01*
X67925000Y-103543750D02*
X67925000Y-104456250D01*
G75*
G02*
X67681250Y-104700000I-243750J0D01*
G01*
X67193750Y-104700000D01*
G75*
G02*
X66950000Y-104456250I0J243750D01*
G01*
X66950000Y-103543750D01*
G75*
G02*
X67193750Y-103300000I243750J0D01*
G01*
X67681250Y-103300000D01*
G75*
G02*
X67925000Y-103543750I0J-243750D01*
G01*
G37*
D13*
X60915000Y-108225000D03*
X60915000Y-107275000D03*
X60915000Y-106325000D03*
X63535000Y-106325000D03*
X63535000Y-107275000D03*
X63535000Y-108225000D03*
G36*
G01*
X74704419Y-69859184D02*
X74059184Y-70504419D01*
G75*
G02*
X73714470Y-70504419I-172357J172357D01*
G01*
X73369755Y-70159704D01*
G75*
G02*
X73369755Y-69814990I172357J172357D01*
G01*
X74014990Y-69169755D01*
G75*
G02*
X74359704Y-69169755I172357J-172357D01*
G01*
X74704419Y-69514470D01*
G75*
G02*
X74704419Y-69859184I-172357J-172357D01*
G01*
G37*
G36*
G01*
X76030245Y-71185010D02*
X75385010Y-71830245D01*
G75*
G02*
X75040296Y-71830245I-172357J172357D01*
G01*
X74695581Y-71485530D01*
G75*
G02*
X74695581Y-71140816I172357J172357D01*
G01*
X75340816Y-70495581D01*
G75*
G02*
X75685530Y-70495581I172357J-172357D01*
G01*
X76030245Y-70840296D01*
G75*
G02*
X76030245Y-71185010I-172357J-172357D01*
G01*
G37*
G36*
G01*
X127650000Y-68656250D02*
X127650000Y-67743750D01*
G75*
G02*
X127893750Y-67500000I243750J0D01*
G01*
X128381250Y-67500000D01*
G75*
G02*
X128625000Y-67743750I0J-243750D01*
G01*
X128625000Y-68656250D01*
G75*
G02*
X128381250Y-68900000I-243750J0D01*
G01*
X127893750Y-68900000D01*
G75*
G02*
X127650000Y-68656250I0J243750D01*
G01*
G37*
G36*
G01*
X125775000Y-68656250D02*
X125775000Y-67743750D01*
G75*
G02*
X126018750Y-67500000I243750J0D01*
G01*
X126506250Y-67500000D01*
G75*
G02*
X126750000Y-67743750I0J-243750D01*
G01*
X126750000Y-68656250D01*
G75*
G02*
X126506250Y-68900000I-243750J0D01*
G01*
X126018750Y-68900000D01*
G75*
G02*
X125775000Y-68656250I0J243750D01*
G01*
G37*
G36*
G01*
X121150000Y-69543750D02*
X121150000Y-70456250D01*
G75*
G02*
X120906250Y-70700000I-243750J0D01*
G01*
X120418750Y-70700000D01*
G75*
G02*
X120175000Y-70456250I0J243750D01*
G01*
X120175000Y-69543750D01*
G75*
G02*
X120418750Y-69300000I243750J0D01*
G01*
X120906250Y-69300000D01*
G75*
G02*
X121150000Y-69543750I0J-243750D01*
G01*
G37*
G36*
G01*
X123025000Y-69543750D02*
X123025000Y-70456250D01*
G75*
G02*
X122781250Y-70700000I-243750J0D01*
G01*
X122293750Y-70700000D01*
G75*
G02*
X122050000Y-70456250I0J243750D01*
G01*
X122050000Y-69543750D01*
G75*
G02*
X122293750Y-69300000I243750J0D01*
G01*
X122781250Y-69300000D01*
G75*
G02*
X123025000Y-69543750I0J-243750D01*
G01*
G37*
G36*
G01*
X65750000Y-70556250D02*
X65750000Y-69643750D01*
G75*
G02*
X65993750Y-69400000I243750J0D01*
G01*
X66481250Y-69400000D01*
G75*
G02*
X66725000Y-69643750I0J-243750D01*
G01*
X66725000Y-70556250D01*
G75*
G02*
X66481250Y-70800000I-243750J0D01*
G01*
X65993750Y-70800000D01*
G75*
G02*
X65750000Y-70556250I0J243750D01*
G01*
G37*
G36*
G01*
X63875000Y-70556250D02*
X63875000Y-69643750D01*
G75*
G02*
X64118750Y-69400000I243750J0D01*
G01*
X64606250Y-69400000D01*
G75*
G02*
X64850000Y-69643750I0J-243750D01*
G01*
X64850000Y-70556250D01*
G75*
G02*
X64606250Y-70800000I-243750J0D01*
G01*
X64118750Y-70800000D01*
G75*
G02*
X63875000Y-70556250I0J243750D01*
G01*
G37*
G36*
G01*
X59443750Y-75550000D02*
X60356250Y-75550000D01*
G75*
G02*
X60600000Y-75793750I0J-243750D01*
G01*
X60600000Y-76281250D01*
G75*
G02*
X60356250Y-76525000I-243750J0D01*
G01*
X59443750Y-76525000D01*
G75*
G02*
X59200000Y-76281250I0J243750D01*
G01*
X59200000Y-75793750D01*
G75*
G02*
X59443750Y-75550000I243750J0D01*
G01*
G37*
G36*
G01*
X59443750Y-73675000D02*
X60356250Y-73675000D01*
G75*
G02*
X60600000Y-73918750I0J-243750D01*
G01*
X60600000Y-74406250D01*
G75*
G02*
X60356250Y-74650000I-243750J0D01*
G01*
X59443750Y-74650000D01*
G75*
G02*
X59200000Y-74406250I0J243750D01*
G01*
X59200000Y-73918750D01*
G75*
G02*
X59443750Y-73675000I243750J0D01*
G01*
G37*
G36*
G01*
X67143750Y-74650000D02*
X68056250Y-74650000D01*
G75*
G02*
X68300000Y-74893750I0J-243750D01*
G01*
X68300000Y-75381250D01*
G75*
G02*
X68056250Y-75625000I-243750J0D01*
G01*
X67143750Y-75625000D01*
G75*
G02*
X66900000Y-75381250I0J243750D01*
G01*
X66900000Y-74893750D01*
G75*
G02*
X67143750Y-74650000I243750J0D01*
G01*
G37*
G36*
G01*
X67143750Y-72775000D02*
X68056250Y-72775000D01*
G75*
G02*
X68300000Y-73018750I0J-243750D01*
G01*
X68300000Y-73506250D01*
G75*
G02*
X68056250Y-73750000I-243750J0D01*
G01*
X67143750Y-73750000D01*
G75*
G02*
X66900000Y-73506250I0J243750D01*
G01*
X66900000Y-73018750D01*
G75*
G02*
X67143750Y-72775000I243750J0D01*
G01*
G37*
G36*
G01*
X110050000Y-59056250D02*
X110050000Y-58143750D01*
G75*
G02*
X110293750Y-57900000I243750J0D01*
G01*
X110781250Y-57900000D01*
G75*
G02*
X111025000Y-58143750I0J-243750D01*
G01*
X111025000Y-59056250D01*
G75*
G02*
X110781250Y-59300000I-243750J0D01*
G01*
X110293750Y-59300000D01*
G75*
G02*
X110050000Y-59056250I0J243750D01*
G01*
G37*
G36*
G01*
X108175000Y-59056250D02*
X108175000Y-58143750D01*
G75*
G02*
X108418750Y-57900000I243750J0D01*
G01*
X108906250Y-57900000D01*
G75*
G02*
X109150000Y-58143750I0J-243750D01*
G01*
X109150000Y-59056250D01*
G75*
G02*
X108906250Y-59300000I-243750J0D01*
G01*
X108418750Y-59300000D01*
G75*
G02*
X108175000Y-59056250I0J243750D01*
G01*
G37*
G36*
G01*
X106250000Y-68256250D02*
X106250000Y-67343750D01*
G75*
G02*
X106493750Y-67100000I243750J0D01*
G01*
X106981250Y-67100000D01*
G75*
G02*
X107225000Y-67343750I0J-243750D01*
G01*
X107225000Y-68256250D01*
G75*
G02*
X106981250Y-68500000I-243750J0D01*
G01*
X106493750Y-68500000D01*
G75*
G02*
X106250000Y-68256250I0J243750D01*
G01*
G37*
G36*
G01*
X104375000Y-68256250D02*
X104375000Y-67343750D01*
G75*
G02*
X104618750Y-67100000I243750J0D01*
G01*
X105106250Y-67100000D01*
G75*
G02*
X105350000Y-67343750I0J-243750D01*
G01*
X105350000Y-68256250D01*
G75*
G02*
X105106250Y-68500000I-243750J0D01*
G01*
X104618750Y-68500000D01*
G75*
G02*
X104375000Y-68256250I0J243750D01*
G01*
G37*
G36*
G01*
X63250000Y-77943750D02*
X63250000Y-78856250D01*
G75*
G02*
X63006250Y-79100000I-243750J0D01*
G01*
X62518750Y-79100000D01*
G75*
G02*
X62275000Y-78856250I0J243750D01*
G01*
X62275000Y-77943750D01*
G75*
G02*
X62518750Y-77700000I243750J0D01*
G01*
X63006250Y-77700000D01*
G75*
G02*
X63250000Y-77943750I0J-243750D01*
G01*
G37*
G36*
G01*
X65125000Y-77943750D02*
X65125000Y-78856250D01*
G75*
G02*
X64881250Y-79100000I-243750J0D01*
G01*
X64393750Y-79100000D01*
G75*
G02*
X64150000Y-78856250I0J243750D01*
G01*
X64150000Y-77943750D01*
G75*
G02*
X64393750Y-77700000I243750J0D01*
G01*
X64881250Y-77700000D01*
G75*
G02*
X65125000Y-77943750I0J-243750D01*
G01*
G37*
G36*
G01*
X106250000Y-70656250D02*
X106250000Y-69743750D01*
G75*
G02*
X106493750Y-69500000I243750J0D01*
G01*
X106981250Y-69500000D01*
G75*
G02*
X107225000Y-69743750I0J-243750D01*
G01*
X107225000Y-70656250D01*
G75*
G02*
X106981250Y-70900000I-243750J0D01*
G01*
X106493750Y-70900000D01*
G75*
G02*
X106250000Y-70656250I0J243750D01*
G01*
G37*
G36*
G01*
X104375000Y-70656250D02*
X104375000Y-69743750D01*
G75*
G02*
X104618750Y-69500000I243750J0D01*
G01*
X105106250Y-69500000D01*
G75*
G02*
X105350000Y-69743750I0J-243750D01*
G01*
X105350000Y-70656250D01*
G75*
G02*
X105106250Y-70900000I-243750J0D01*
G01*
X104618750Y-70900000D01*
G75*
G02*
X104375000Y-70656250I0J243750D01*
G01*
G37*
G36*
G01*
X106250000Y-73056250D02*
X106250000Y-72143750D01*
G75*
G02*
X106493750Y-71900000I243750J0D01*
G01*
X106981250Y-71900000D01*
G75*
G02*
X107225000Y-72143750I0J-243750D01*
G01*
X107225000Y-73056250D01*
G75*
G02*
X106981250Y-73300000I-243750J0D01*
G01*
X106493750Y-73300000D01*
G75*
G02*
X106250000Y-73056250I0J243750D01*
G01*
G37*
G36*
G01*
X104375000Y-73056250D02*
X104375000Y-72143750D01*
G75*
G02*
X104618750Y-71900000I243750J0D01*
G01*
X105106250Y-71900000D01*
G75*
G02*
X105350000Y-72143750I0J-243750D01*
G01*
X105350000Y-73056250D01*
G75*
G02*
X105106250Y-73300000I-243750J0D01*
G01*
X104618750Y-73300000D01*
G75*
G02*
X104375000Y-73056250I0J243750D01*
G01*
G37*
G36*
G01*
X80950000Y-71793750D02*
X80950000Y-72706250D01*
G75*
G02*
X80706250Y-72950000I-243750J0D01*
G01*
X80218750Y-72950000D01*
G75*
G02*
X79975000Y-72706250I0J243750D01*
G01*
X79975000Y-71793750D01*
G75*
G02*
X80218750Y-71550000I243750J0D01*
G01*
X80706250Y-71550000D01*
G75*
G02*
X80950000Y-71793750I0J-243750D01*
G01*
G37*
G36*
G01*
X82825000Y-71793750D02*
X82825000Y-72706250D01*
G75*
G02*
X82581250Y-72950000I-243750J0D01*
G01*
X82093750Y-72950000D01*
G75*
G02*
X81850000Y-72706250I0J243750D01*
G01*
X81850000Y-71793750D01*
G75*
G02*
X82093750Y-71550000I243750J0D01*
G01*
X82581250Y-71550000D01*
G75*
G02*
X82825000Y-71793750I0J-243750D01*
G01*
G37*
G36*
G01*
X62956250Y-84250000D02*
X62043750Y-84250000D01*
G75*
G02*
X61800000Y-84006250I0J243750D01*
G01*
X61800000Y-83518750D01*
G75*
G02*
X62043750Y-83275000I243750J0D01*
G01*
X62956250Y-83275000D01*
G75*
G02*
X63200000Y-83518750I0J-243750D01*
G01*
X63200000Y-84006250D01*
G75*
G02*
X62956250Y-84250000I-243750J0D01*
G01*
G37*
G36*
G01*
X62956250Y-86125000D02*
X62043750Y-86125000D01*
G75*
G02*
X61800000Y-85881250I0J243750D01*
G01*
X61800000Y-85393750D01*
G75*
G02*
X62043750Y-85150000I243750J0D01*
G01*
X62956250Y-85150000D01*
G75*
G02*
X63200000Y-85393750I0J-243750D01*
G01*
X63200000Y-85881250D01*
G75*
G02*
X62956250Y-86125000I-243750J0D01*
G01*
G37*
G36*
G01*
X82950000Y-77143750D02*
X82950000Y-78056250D01*
G75*
G02*
X82706250Y-78300000I-243750J0D01*
G01*
X82218750Y-78300000D01*
G75*
G02*
X81975000Y-78056250I0J243750D01*
G01*
X81975000Y-77143750D01*
G75*
G02*
X82218750Y-76900000I243750J0D01*
G01*
X82706250Y-76900000D01*
G75*
G02*
X82950000Y-77143750I0J-243750D01*
G01*
G37*
G36*
G01*
X84825000Y-77143750D02*
X84825000Y-78056250D01*
G75*
G02*
X84581250Y-78300000I-243750J0D01*
G01*
X84093750Y-78300000D01*
G75*
G02*
X83850000Y-78056250I0J243750D01*
G01*
X83850000Y-77143750D01*
G75*
G02*
X84093750Y-76900000I243750J0D01*
G01*
X84581250Y-76900000D01*
G75*
G02*
X84825000Y-77143750I0J-243750D01*
G01*
G37*
G36*
G01*
X82950000Y-74543750D02*
X82950000Y-75456250D01*
G75*
G02*
X82706250Y-75700000I-243750J0D01*
G01*
X82218750Y-75700000D01*
G75*
G02*
X81975000Y-75456250I0J243750D01*
G01*
X81975000Y-74543750D01*
G75*
G02*
X82218750Y-74300000I243750J0D01*
G01*
X82706250Y-74300000D01*
G75*
G02*
X82950000Y-74543750I0J-243750D01*
G01*
G37*
G36*
G01*
X84825000Y-74543750D02*
X84825000Y-75456250D01*
G75*
G02*
X84581250Y-75700000I-243750J0D01*
G01*
X84093750Y-75700000D01*
G75*
G02*
X83850000Y-75456250I0J243750D01*
G01*
X83850000Y-74543750D01*
G75*
G02*
X84093750Y-74300000I243750J0D01*
G01*
X84581250Y-74300000D01*
G75*
G02*
X84825000Y-74543750I0J-243750D01*
G01*
G37*
G36*
G01*
X79850000Y-80456250D02*
X79850000Y-79543750D01*
G75*
G02*
X80093750Y-79300000I243750J0D01*
G01*
X80581250Y-79300000D01*
G75*
G02*
X80825000Y-79543750I0J-243750D01*
G01*
X80825000Y-80456250D01*
G75*
G02*
X80581250Y-80700000I-243750J0D01*
G01*
X80093750Y-80700000D01*
G75*
G02*
X79850000Y-80456250I0J243750D01*
G01*
G37*
G36*
G01*
X77975000Y-80456250D02*
X77975000Y-79543750D01*
G75*
G02*
X78218750Y-79300000I243750J0D01*
G01*
X78706250Y-79300000D01*
G75*
G02*
X78950000Y-79543750I0J-243750D01*
G01*
X78950000Y-80456250D01*
G75*
G02*
X78706250Y-80700000I-243750J0D01*
G01*
X78218750Y-80700000D01*
G75*
G02*
X77975000Y-80456250I0J243750D01*
G01*
G37*
G36*
G01*
X59500000Y-87856250D02*
X59500000Y-86943750D01*
G75*
G02*
X59743750Y-86700000I243750J0D01*
G01*
X60231250Y-86700000D01*
G75*
G02*
X60475000Y-86943750I0J-243750D01*
G01*
X60475000Y-87856250D01*
G75*
G02*
X60231250Y-88100000I-243750J0D01*
G01*
X59743750Y-88100000D01*
G75*
G02*
X59500000Y-87856250I0J243750D01*
G01*
G37*
G36*
G01*
X57625000Y-87856250D02*
X57625000Y-86943750D01*
G75*
G02*
X57868750Y-86700000I243750J0D01*
G01*
X58356250Y-86700000D01*
G75*
G02*
X58600000Y-86943750I0J-243750D01*
G01*
X58600000Y-87856250D01*
G75*
G02*
X58356250Y-88100000I-243750J0D01*
G01*
X57868750Y-88100000D01*
G75*
G02*
X57625000Y-87856250I0J243750D01*
G01*
G37*
G36*
G01*
X122050000Y-64956250D02*
X122050000Y-64043750D01*
G75*
G02*
X122293750Y-63800000I243750J0D01*
G01*
X122781250Y-63800000D01*
G75*
G02*
X123025000Y-64043750I0J-243750D01*
G01*
X123025000Y-64956250D01*
G75*
G02*
X122781250Y-65200000I-243750J0D01*
G01*
X122293750Y-65200000D01*
G75*
G02*
X122050000Y-64956250I0J243750D01*
G01*
G37*
G36*
G01*
X120175000Y-64956250D02*
X120175000Y-64043750D01*
G75*
G02*
X120418750Y-63800000I243750J0D01*
G01*
X120906250Y-63800000D01*
G75*
G02*
X121150000Y-64043750I0J-243750D01*
G01*
X121150000Y-64956250D01*
G75*
G02*
X120906250Y-65200000I-243750J0D01*
G01*
X120418750Y-65200000D01*
G75*
G02*
X120175000Y-64956250I0J243750D01*
G01*
G37*
G36*
G01*
X120956250Y-61050000D02*
X120043750Y-61050000D01*
G75*
G02*
X119800000Y-60806250I0J243750D01*
G01*
X119800000Y-60318750D01*
G75*
G02*
X120043750Y-60075000I243750J0D01*
G01*
X120956250Y-60075000D01*
G75*
G02*
X121200000Y-60318750I0J-243750D01*
G01*
X121200000Y-60806250D01*
G75*
G02*
X120956250Y-61050000I-243750J0D01*
G01*
G37*
G36*
G01*
X120956250Y-62925000D02*
X120043750Y-62925000D01*
G75*
G02*
X119800000Y-62681250I0J243750D01*
G01*
X119800000Y-62193750D01*
G75*
G02*
X120043750Y-61950000I243750J0D01*
G01*
X120956250Y-61950000D01*
G75*
G02*
X121200000Y-62193750I0J-243750D01*
G01*
X121200000Y-62681250D01*
G75*
G02*
X120956250Y-62925000I-243750J0D01*
G01*
G37*
D14*
X69170000Y-94500000D03*
X147830000Y-94500000D03*
M02*
