G04 #@! TF.GenerationSoftware,KiCad,Pcbnew,(5.1.12)-1*
G04 #@! TF.CreationDate,2021-12-15T08:08:51+10:00*
G04 #@! TF.ProjectId,Weather-Station,57656174-6865-4722-9d53-746174696f6e,rev?*
G04 #@! TF.SameCoordinates,Original*
G04 #@! TF.FileFunction,Soldermask,Top*
G04 #@! TF.FilePolarity,Negative*
%FSLAX46Y46*%
G04 Gerber Fmt 4.6, Leading zero omitted, Abs format (unit mm)*
G04 Created by KiCad (PCBNEW (5.1.12)-1) date 2021-12-15 08:08:51*
%MOMM*%
%LPD*%
G01*
G04 APERTURE LIST*
%ADD10C,2.102000*%
%ADD11C,3.102000*%
%ADD12C,1.702000*%
%ADD13C,3.552000*%
%ADD14C,2.492000*%
%ADD15C,0.100000*%
G04 APERTURE END LIST*
G36*
G01*
X122634000Y-74880400D02*
X122634000Y-74419600D01*
G75*
G02*
X122659600Y-74394000I25600J0D01*
G01*
X124280400Y-74394000D01*
G75*
G02*
X124306000Y-74419600I0J-25600D01*
G01*
X124306000Y-74880400D01*
G75*
G02*
X124280400Y-74906000I-25600J0D01*
G01*
X122659600Y-74906000D01*
G75*
G02*
X122634000Y-74880400I0J25600D01*
G01*
G37*
G36*
G01*
X122634000Y-75530400D02*
X122634000Y-75069600D01*
G75*
G02*
X122659600Y-75044000I25600J0D01*
G01*
X124280400Y-75044000D01*
G75*
G02*
X124306000Y-75069600I0J-25600D01*
G01*
X124306000Y-75530400D01*
G75*
G02*
X124280400Y-75556000I-25600J0D01*
G01*
X122659600Y-75556000D01*
G75*
G02*
X122634000Y-75530400I0J25600D01*
G01*
G37*
G36*
G01*
X122634000Y-76180400D02*
X122634000Y-75719600D01*
G75*
G02*
X122659600Y-75694000I25600J0D01*
G01*
X124280400Y-75694000D01*
G75*
G02*
X124306000Y-75719600I0J-25600D01*
G01*
X124306000Y-76180400D01*
G75*
G02*
X124280400Y-76206000I-25600J0D01*
G01*
X122659600Y-76206000D01*
G75*
G02*
X122634000Y-76180400I0J25600D01*
G01*
G37*
G36*
G01*
X122634000Y-76830400D02*
X122634000Y-76369600D01*
G75*
G02*
X122659600Y-76344000I25600J0D01*
G01*
X124280400Y-76344000D01*
G75*
G02*
X124306000Y-76369600I0J-25600D01*
G01*
X124306000Y-76830400D01*
G75*
G02*
X124280400Y-76856000I-25600J0D01*
G01*
X122659600Y-76856000D01*
G75*
G02*
X122634000Y-76830400I0J25600D01*
G01*
G37*
G36*
G01*
X122634000Y-77480400D02*
X122634000Y-77019600D01*
G75*
G02*
X122659600Y-76994000I25600J0D01*
G01*
X124280400Y-76994000D01*
G75*
G02*
X124306000Y-77019600I0J-25600D01*
G01*
X124306000Y-77480400D01*
G75*
G02*
X124280400Y-77506000I-25600J0D01*
G01*
X122659600Y-77506000D01*
G75*
G02*
X122634000Y-77480400I0J25600D01*
G01*
G37*
G36*
G01*
X122634000Y-78130400D02*
X122634000Y-77669600D01*
G75*
G02*
X122659600Y-77644000I25600J0D01*
G01*
X124280400Y-77644000D01*
G75*
G02*
X124306000Y-77669600I0J-25600D01*
G01*
X124306000Y-78130400D01*
G75*
G02*
X124280400Y-78156000I-25600J0D01*
G01*
X122659600Y-78156000D01*
G75*
G02*
X122634000Y-78130400I0J25600D01*
G01*
G37*
G36*
G01*
X122634000Y-78780400D02*
X122634000Y-78319600D01*
G75*
G02*
X122659600Y-78294000I25600J0D01*
G01*
X124280400Y-78294000D01*
G75*
G02*
X124306000Y-78319600I0J-25600D01*
G01*
X124306000Y-78780400D01*
G75*
G02*
X124280400Y-78806000I-25600J0D01*
G01*
X122659600Y-78806000D01*
G75*
G02*
X122634000Y-78780400I0J25600D01*
G01*
G37*
G36*
G01*
X116894000Y-78780400D02*
X116894000Y-78319600D01*
G75*
G02*
X116919600Y-78294000I25600J0D01*
G01*
X118540400Y-78294000D01*
G75*
G02*
X118566000Y-78319600I0J-25600D01*
G01*
X118566000Y-78780400D01*
G75*
G02*
X118540400Y-78806000I-25600J0D01*
G01*
X116919600Y-78806000D01*
G75*
G02*
X116894000Y-78780400I0J25600D01*
G01*
G37*
G36*
G01*
X116894000Y-78130400D02*
X116894000Y-77669600D01*
G75*
G02*
X116919600Y-77644000I25600J0D01*
G01*
X118540400Y-77644000D01*
G75*
G02*
X118566000Y-77669600I0J-25600D01*
G01*
X118566000Y-78130400D01*
G75*
G02*
X118540400Y-78156000I-25600J0D01*
G01*
X116919600Y-78156000D01*
G75*
G02*
X116894000Y-78130400I0J25600D01*
G01*
G37*
G36*
G01*
X116894000Y-77480400D02*
X116894000Y-77019600D01*
G75*
G02*
X116919600Y-76994000I25600J0D01*
G01*
X118540400Y-76994000D01*
G75*
G02*
X118566000Y-77019600I0J-25600D01*
G01*
X118566000Y-77480400D01*
G75*
G02*
X118540400Y-77506000I-25600J0D01*
G01*
X116919600Y-77506000D01*
G75*
G02*
X116894000Y-77480400I0J25600D01*
G01*
G37*
G36*
G01*
X116894000Y-76830400D02*
X116894000Y-76369600D01*
G75*
G02*
X116919600Y-76344000I25600J0D01*
G01*
X118540400Y-76344000D01*
G75*
G02*
X118566000Y-76369600I0J-25600D01*
G01*
X118566000Y-76830400D01*
G75*
G02*
X118540400Y-76856000I-25600J0D01*
G01*
X116919600Y-76856000D01*
G75*
G02*
X116894000Y-76830400I0J25600D01*
G01*
G37*
G36*
G01*
X116894000Y-76180400D02*
X116894000Y-75719600D01*
G75*
G02*
X116919600Y-75694000I25600J0D01*
G01*
X118540400Y-75694000D01*
G75*
G02*
X118566000Y-75719600I0J-25600D01*
G01*
X118566000Y-76180400D01*
G75*
G02*
X118540400Y-76206000I-25600J0D01*
G01*
X116919600Y-76206000D01*
G75*
G02*
X116894000Y-76180400I0J25600D01*
G01*
G37*
G36*
G01*
X116894000Y-75530400D02*
X116894000Y-75069600D01*
G75*
G02*
X116919600Y-75044000I25600J0D01*
G01*
X118540400Y-75044000D01*
G75*
G02*
X118566000Y-75069600I0J-25600D01*
G01*
X118566000Y-75530400D01*
G75*
G02*
X118540400Y-75556000I-25600J0D01*
G01*
X116919600Y-75556000D01*
G75*
G02*
X116894000Y-75530400I0J25600D01*
G01*
G37*
G36*
G01*
X116894000Y-74880400D02*
X116894000Y-74419600D01*
G75*
G02*
X116919600Y-74394000I25600J0D01*
G01*
X118540400Y-74394000D01*
G75*
G02*
X118566000Y-74419600I0J-25600D01*
G01*
X118566000Y-74880400D01*
G75*
G02*
X118540400Y-74906000I-25600J0D01*
G01*
X116919600Y-74906000D01*
G75*
G02*
X116894000Y-74880400I0J25600D01*
G01*
G37*
G36*
G01*
X96234000Y-73255400D02*
X96234000Y-72794600D01*
G75*
G02*
X96259600Y-72769000I25600J0D01*
G01*
X97880400Y-72769000D01*
G75*
G02*
X97906000Y-72794600I0J-25600D01*
G01*
X97906000Y-73255400D01*
G75*
G02*
X97880400Y-73281000I-25600J0D01*
G01*
X96259600Y-73281000D01*
G75*
G02*
X96234000Y-73255400I0J25600D01*
G01*
G37*
G36*
G01*
X96234000Y-73905400D02*
X96234000Y-73444600D01*
G75*
G02*
X96259600Y-73419000I25600J0D01*
G01*
X97880400Y-73419000D01*
G75*
G02*
X97906000Y-73444600I0J-25600D01*
G01*
X97906000Y-73905400D01*
G75*
G02*
X97880400Y-73931000I-25600J0D01*
G01*
X96259600Y-73931000D01*
G75*
G02*
X96234000Y-73905400I0J25600D01*
G01*
G37*
G36*
G01*
X96234000Y-74555400D02*
X96234000Y-74094600D01*
G75*
G02*
X96259600Y-74069000I25600J0D01*
G01*
X97880400Y-74069000D01*
G75*
G02*
X97906000Y-74094600I0J-25600D01*
G01*
X97906000Y-74555400D01*
G75*
G02*
X97880400Y-74581000I-25600J0D01*
G01*
X96259600Y-74581000D01*
G75*
G02*
X96234000Y-74555400I0J25600D01*
G01*
G37*
G36*
G01*
X96234000Y-75205400D02*
X96234000Y-74744600D01*
G75*
G02*
X96259600Y-74719000I25600J0D01*
G01*
X97880400Y-74719000D01*
G75*
G02*
X97906000Y-74744600I0J-25600D01*
G01*
X97906000Y-75205400D01*
G75*
G02*
X97880400Y-75231000I-25600J0D01*
G01*
X96259600Y-75231000D01*
G75*
G02*
X96234000Y-75205400I0J25600D01*
G01*
G37*
G36*
G01*
X96234000Y-75855400D02*
X96234000Y-75394600D01*
G75*
G02*
X96259600Y-75369000I25600J0D01*
G01*
X97880400Y-75369000D01*
G75*
G02*
X97906000Y-75394600I0J-25600D01*
G01*
X97906000Y-75855400D01*
G75*
G02*
X97880400Y-75881000I-25600J0D01*
G01*
X96259600Y-75881000D01*
G75*
G02*
X96234000Y-75855400I0J25600D01*
G01*
G37*
G36*
G01*
X96234000Y-76505400D02*
X96234000Y-76044600D01*
G75*
G02*
X96259600Y-76019000I25600J0D01*
G01*
X97880400Y-76019000D01*
G75*
G02*
X97906000Y-76044600I0J-25600D01*
G01*
X97906000Y-76505400D01*
G75*
G02*
X97880400Y-76531000I-25600J0D01*
G01*
X96259600Y-76531000D01*
G75*
G02*
X96234000Y-76505400I0J25600D01*
G01*
G37*
G36*
G01*
X96234000Y-77155400D02*
X96234000Y-76694600D01*
G75*
G02*
X96259600Y-76669000I25600J0D01*
G01*
X97880400Y-76669000D01*
G75*
G02*
X97906000Y-76694600I0J-25600D01*
G01*
X97906000Y-77155400D01*
G75*
G02*
X97880400Y-77181000I-25600J0D01*
G01*
X96259600Y-77181000D01*
G75*
G02*
X96234000Y-77155400I0J25600D01*
G01*
G37*
G36*
G01*
X96234000Y-77805400D02*
X96234000Y-77344600D01*
G75*
G02*
X96259600Y-77319000I25600J0D01*
G01*
X97880400Y-77319000D01*
G75*
G02*
X97906000Y-77344600I0J-25600D01*
G01*
X97906000Y-77805400D01*
G75*
G02*
X97880400Y-77831000I-25600J0D01*
G01*
X96259600Y-77831000D01*
G75*
G02*
X96234000Y-77805400I0J25600D01*
G01*
G37*
G36*
G01*
X96234000Y-78455400D02*
X96234000Y-77994600D01*
G75*
G02*
X96259600Y-77969000I25600J0D01*
G01*
X97880400Y-77969000D01*
G75*
G02*
X97906000Y-77994600I0J-25600D01*
G01*
X97906000Y-78455400D01*
G75*
G02*
X97880400Y-78481000I-25600J0D01*
G01*
X96259600Y-78481000D01*
G75*
G02*
X96234000Y-78455400I0J25600D01*
G01*
G37*
G36*
G01*
X96234000Y-79105400D02*
X96234000Y-78644600D01*
G75*
G02*
X96259600Y-78619000I25600J0D01*
G01*
X97880400Y-78619000D01*
G75*
G02*
X97906000Y-78644600I0J-25600D01*
G01*
X97906000Y-79105400D01*
G75*
G02*
X97880400Y-79131000I-25600J0D01*
G01*
X96259600Y-79131000D01*
G75*
G02*
X96234000Y-79105400I0J25600D01*
G01*
G37*
G36*
G01*
X96234000Y-79755400D02*
X96234000Y-79294600D01*
G75*
G02*
X96259600Y-79269000I25600J0D01*
G01*
X97880400Y-79269000D01*
G75*
G02*
X97906000Y-79294600I0J-25600D01*
G01*
X97906000Y-79755400D01*
G75*
G02*
X97880400Y-79781000I-25600J0D01*
G01*
X96259600Y-79781000D01*
G75*
G02*
X96234000Y-79755400I0J25600D01*
G01*
G37*
G36*
G01*
X96234000Y-80405400D02*
X96234000Y-79944600D01*
G75*
G02*
X96259600Y-79919000I25600J0D01*
G01*
X97880400Y-79919000D01*
G75*
G02*
X97906000Y-79944600I0J-25600D01*
G01*
X97906000Y-80405400D01*
G75*
G02*
X97880400Y-80431000I-25600J0D01*
G01*
X96259600Y-80431000D01*
G75*
G02*
X96234000Y-80405400I0J25600D01*
G01*
G37*
G36*
G01*
X96234000Y-81055400D02*
X96234000Y-80594600D01*
G75*
G02*
X96259600Y-80569000I25600J0D01*
G01*
X97880400Y-80569000D01*
G75*
G02*
X97906000Y-80594600I0J-25600D01*
G01*
X97906000Y-81055400D01*
G75*
G02*
X97880400Y-81081000I-25600J0D01*
G01*
X96259600Y-81081000D01*
G75*
G02*
X96234000Y-81055400I0J25600D01*
G01*
G37*
G36*
G01*
X96234000Y-81705400D02*
X96234000Y-81244600D01*
G75*
G02*
X96259600Y-81219000I25600J0D01*
G01*
X97880400Y-81219000D01*
G75*
G02*
X97906000Y-81244600I0J-25600D01*
G01*
X97906000Y-81705400D01*
G75*
G02*
X97880400Y-81731000I-25600J0D01*
G01*
X96259600Y-81731000D01*
G75*
G02*
X96234000Y-81705400I0J25600D01*
G01*
G37*
G36*
G01*
X90494000Y-81705400D02*
X90494000Y-81244600D01*
G75*
G02*
X90519600Y-81219000I25600J0D01*
G01*
X92140400Y-81219000D01*
G75*
G02*
X92166000Y-81244600I0J-25600D01*
G01*
X92166000Y-81705400D01*
G75*
G02*
X92140400Y-81731000I-25600J0D01*
G01*
X90519600Y-81731000D01*
G75*
G02*
X90494000Y-81705400I0J25600D01*
G01*
G37*
G36*
G01*
X90494000Y-81055400D02*
X90494000Y-80594600D01*
G75*
G02*
X90519600Y-80569000I25600J0D01*
G01*
X92140400Y-80569000D01*
G75*
G02*
X92166000Y-80594600I0J-25600D01*
G01*
X92166000Y-81055400D01*
G75*
G02*
X92140400Y-81081000I-25600J0D01*
G01*
X90519600Y-81081000D01*
G75*
G02*
X90494000Y-81055400I0J25600D01*
G01*
G37*
G36*
G01*
X90494000Y-80405400D02*
X90494000Y-79944600D01*
G75*
G02*
X90519600Y-79919000I25600J0D01*
G01*
X92140400Y-79919000D01*
G75*
G02*
X92166000Y-79944600I0J-25600D01*
G01*
X92166000Y-80405400D01*
G75*
G02*
X92140400Y-80431000I-25600J0D01*
G01*
X90519600Y-80431000D01*
G75*
G02*
X90494000Y-80405400I0J25600D01*
G01*
G37*
G36*
G01*
X90494000Y-79755400D02*
X90494000Y-79294600D01*
G75*
G02*
X90519600Y-79269000I25600J0D01*
G01*
X92140400Y-79269000D01*
G75*
G02*
X92166000Y-79294600I0J-25600D01*
G01*
X92166000Y-79755400D01*
G75*
G02*
X92140400Y-79781000I-25600J0D01*
G01*
X90519600Y-79781000D01*
G75*
G02*
X90494000Y-79755400I0J25600D01*
G01*
G37*
G36*
G01*
X90494000Y-79105400D02*
X90494000Y-78644600D01*
G75*
G02*
X90519600Y-78619000I25600J0D01*
G01*
X92140400Y-78619000D01*
G75*
G02*
X92166000Y-78644600I0J-25600D01*
G01*
X92166000Y-79105400D01*
G75*
G02*
X92140400Y-79131000I-25600J0D01*
G01*
X90519600Y-79131000D01*
G75*
G02*
X90494000Y-79105400I0J25600D01*
G01*
G37*
G36*
G01*
X90494000Y-78455400D02*
X90494000Y-77994600D01*
G75*
G02*
X90519600Y-77969000I25600J0D01*
G01*
X92140400Y-77969000D01*
G75*
G02*
X92166000Y-77994600I0J-25600D01*
G01*
X92166000Y-78455400D01*
G75*
G02*
X92140400Y-78481000I-25600J0D01*
G01*
X90519600Y-78481000D01*
G75*
G02*
X90494000Y-78455400I0J25600D01*
G01*
G37*
G36*
G01*
X90494000Y-77805400D02*
X90494000Y-77344600D01*
G75*
G02*
X90519600Y-77319000I25600J0D01*
G01*
X92140400Y-77319000D01*
G75*
G02*
X92166000Y-77344600I0J-25600D01*
G01*
X92166000Y-77805400D01*
G75*
G02*
X92140400Y-77831000I-25600J0D01*
G01*
X90519600Y-77831000D01*
G75*
G02*
X90494000Y-77805400I0J25600D01*
G01*
G37*
G36*
G01*
X90494000Y-77155400D02*
X90494000Y-76694600D01*
G75*
G02*
X90519600Y-76669000I25600J0D01*
G01*
X92140400Y-76669000D01*
G75*
G02*
X92166000Y-76694600I0J-25600D01*
G01*
X92166000Y-77155400D01*
G75*
G02*
X92140400Y-77181000I-25600J0D01*
G01*
X90519600Y-77181000D01*
G75*
G02*
X90494000Y-77155400I0J25600D01*
G01*
G37*
G36*
G01*
X90494000Y-76505400D02*
X90494000Y-76044600D01*
G75*
G02*
X90519600Y-76019000I25600J0D01*
G01*
X92140400Y-76019000D01*
G75*
G02*
X92166000Y-76044600I0J-25600D01*
G01*
X92166000Y-76505400D01*
G75*
G02*
X92140400Y-76531000I-25600J0D01*
G01*
X90519600Y-76531000D01*
G75*
G02*
X90494000Y-76505400I0J25600D01*
G01*
G37*
G36*
G01*
X90494000Y-75855400D02*
X90494000Y-75394600D01*
G75*
G02*
X90519600Y-75369000I25600J0D01*
G01*
X92140400Y-75369000D01*
G75*
G02*
X92166000Y-75394600I0J-25600D01*
G01*
X92166000Y-75855400D01*
G75*
G02*
X92140400Y-75881000I-25600J0D01*
G01*
X90519600Y-75881000D01*
G75*
G02*
X90494000Y-75855400I0J25600D01*
G01*
G37*
G36*
G01*
X90494000Y-75205400D02*
X90494000Y-74744600D01*
G75*
G02*
X90519600Y-74719000I25600J0D01*
G01*
X92140400Y-74719000D01*
G75*
G02*
X92166000Y-74744600I0J-25600D01*
G01*
X92166000Y-75205400D01*
G75*
G02*
X92140400Y-75231000I-25600J0D01*
G01*
X90519600Y-75231000D01*
G75*
G02*
X90494000Y-75205400I0J25600D01*
G01*
G37*
G36*
G01*
X90494000Y-74555400D02*
X90494000Y-74094600D01*
G75*
G02*
X90519600Y-74069000I25600J0D01*
G01*
X92140400Y-74069000D01*
G75*
G02*
X92166000Y-74094600I0J-25600D01*
G01*
X92166000Y-74555400D01*
G75*
G02*
X92140400Y-74581000I-25600J0D01*
G01*
X90519600Y-74581000D01*
G75*
G02*
X90494000Y-74555400I0J25600D01*
G01*
G37*
G36*
G01*
X90494000Y-73905400D02*
X90494000Y-73444600D01*
G75*
G02*
X90519600Y-73419000I25600J0D01*
G01*
X92140400Y-73419000D01*
G75*
G02*
X92166000Y-73444600I0J-25600D01*
G01*
X92166000Y-73905400D01*
G75*
G02*
X92140400Y-73931000I-25600J0D01*
G01*
X90519600Y-73931000D01*
G75*
G02*
X90494000Y-73905400I0J25600D01*
G01*
G37*
G36*
G01*
X90494000Y-73255400D02*
X90494000Y-72794600D01*
G75*
G02*
X90519600Y-72769000I25600J0D01*
G01*
X92140400Y-72769000D01*
G75*
G02*
X92166000Y-72794600I0J-25600D01*
G01*
X92166000Y-73255400D01*
G75*
G02*
X92140400Y-73281000I-25600J0D01*
G01*
X90519600Y-73281000D01*
G75*
G02*
X90494000Y-73255400I0J25600D01*
G01*
G37*
D10*
X114500000Y-61000000D03*
G36*
G01*
X102881750Y-57201000D02*
X101918250Y-57201000D01*
G75*
G02*
X101649000Y-56931750I0J269250D01*
G01*
X101649000Y-56393250D01*
G75*
G02*
X101918250Y-56124000I269250J0D01*
G01*
X102881750Y-56124000D01*
G75*
G02*
X103151000Y-56393250I0J-269250D01*
G01*
X103151000Y-56931750D01*
G75*
G02*
X102881750Y-57201000I-269250J0D01*
G01*
G37*
G36*
G01*
X102881750Y-59076000D02*
X101918250Y-59076000D01*
G75*
G02*
X101649000Y-58806750I0J269250D01*
G01*
X101649000Y-58268250D01*
G75*
G02*
X101918250Y-57999000I269250J0D01*
G01*
X102881750Y-57999000D01*
G75*
G02*
X103151000Y-58268250I0J-269250D01*
G01*
X103151000Y-58806750D01*
G75*
G02*
X102881750Y-59076000I-269250J0D01*
G01*
G37*
G36*
G01*
X105881750Y-57201000D02*
X104918250Y-57201000D01*
G75*
G02*
X104649000Y-56931750I0J269250D01*
G01*
X104649000Y-56393250D01*
G75*
G02*
X104918250Y-56124000I269250J0D01*
G01*
X105881750Y-56124000D01*
G75*
G02*
X106151000Y-56393250I0J-269250D01*
G01*
X106151000Y-56931750D01*
G75*
G02*
X105881750Y-57201000I-269250J0D01*
G01*
G37*
G36*
G01*
X105881750Y-59076000D02*
X104918250Y-59076000D01*
G75*
G02*
X104649000Y-58806750I0J269250D01*
G01*
X104649000Y-58268250D01*
G75*
G02*
X104918250Y-57999000I269250J0D01*
G01*
X105881750Y-57999000D01*
G75*
G02*
X106151000Y-58268250I0J-269250D01*
G01*
X106151000Y-58806750D01*
G75*
G02*
X105881750Y-59076000I-269250J0D01*
G01*
G37*
X69000000Y-108200000D03*
D11*
X140653099Y-72795956D03*
G36*
G01*
X144814943Y-78171756D02*
X142096020Y-79439611D01*
G75*
G02*
X142028244Y-79414943I-21554J46222D01*
G01*
X140760389Y-76696020D01*
G75*
G02*
X140785057Y-76628244I46222J21554D01*
G01*
X143503980Y-75360389D01*
G75*
G02*
X143571756Y-75385057I21554J-46222D01*
G01*
X144839611Y-78103980D01*
G75*
G02*
X144814943Y-78171756I-46222J-21554D01*
G01*
G37*
X133568002Y-63654631D03*
G36*
G01*
X139153756Y-67530132D02*
X136941924Y-69556902D01*
G75*
G02*
X136869868Y-69553756I-34455J37601D01*
G01*
X134843098Y-67341924D01*
G75*
G02*
X134846244Y-67269868I37601J34455D01*
G01*
X137058076Y-65243098D01*
G75*
G02*
X137130132Y-65246244I34455J-37601D01*
G01*
X139156902Y-67458076D01*
G75*
G02*
X139153756Y-67530132I-37601J-34455D01*
G01*
G37*
X124515571Y-56870518D03*
G36*
G01*
X130914050Y-59168264D02*
X129302151Y-61698439D01*
G75*
G02*
X129231736Y-61714050I-43013J27402D01*
G01*
X126701561Y-60102151D01*
G75*
G02*
X126685950Y-60031736I27402J43013D01*
G01*
X128297849Y-57501561D01*
G75*
G02*
X128368264Y-57485950I43013J-27402D01*
G01*
X130898439Y-59097849D01*
G75*
G02*
X130914050Y-59168264I-27402J-43013D01*
G01*
G37*
X114226361Y-52462538D03*
G36*
G01*
X120970493Y-53320934D02*
X119944433Y-56140012D01*
G75*
G02*
X119879066Y-56170493I-47924J17443D01*
G01*
X117059988Y-55144433D01*
G75*
G02*
X117029507Y-55079066I17443J47924D01*
G01*
X118055567Y-52259988D01*
G75*
G02*
X118120934Y-52229507I47924J-17443D01*
G01*
X120940012Y-53255567D01*
G75*
G02*
X120970493Y-53320934I-17443J-47924D01*
G01*
G37*
X102939331Y-50757249D03*
G36*
G01*
X109675832Y-49840887D02*
X109414364Y-52829471D01*
G75*
G02*
X109359113Y-52875832I-50806J4445D01*
G01*
X106370529Y-52614364D01*
G75*
G02*
X106324168Y-52559113I4445J50806D01*
G01*
X106585636Y-49570529D01*
G75*
G02*
X106640887Y-49524168I50806J-4445D01*
G01*
X109629471Y-49785636D01*
G75*
G02*
X109675832Y-49840887I-4445J-50806D01*
G01*
G37*
X91640416Y-52299513D03*
G36*
G01*
X97789576Y-49399859D02*
X98438894Y-52328747D01*
G75*
G02*
X98400141Y-52389576I-49791J-11038D01*
G01*
X95471253Y-53038894D01*
G75*
G02*
X95410424Y-53000141I-11038J49791D01*
G01*
X94761106Y-50071253D01*
G75*
G02*
X94799859Y-50010424I49791J11038D01*
G01*
X97728747Y-49361106D01*
G75*
G02*
X97789576Y-49399859I11038J-49791D01*
G01*
G37*
G36*
G01*
X78423409Y-68764027D02*
X78600186Y-68940804D01*
G75*
G02*
X78600186Y-69012928I-36062J-36062D01*
G01*
X77822369Y-69790745D01*
G75*
G02*
X77750245Y-69790745I-36062J36062D01*
G01*
X77573468Y-69613968D01*
G75*
G02*
X77573468Y-69541844I36062J36062D01*
G01*
X78351285Y-68764027D01*
G75*
G02*
X78423409Y-68764027I36062J-36062D01*
G01*
G37*
G36*
G01*
X78069856Y-68410474D02*
X78246633Y-68587251D01*
G75*
G02*
X78246633Y-68659375I-36062J-36062D01*
G01*
X77468816Y-69437192D01*
G75*
G02*
X77396692Y-69437192I-36062J36062D01*
G01*
X77219915Y-69260415D01*
G75*
G02*
X77219915Y-69188291I36062J36062D01*
G01*
X77997732Y-68410474D01*
G75*
G02*
X78069856Y-68410474I36062J-36062D01*
G01*
G37*
G36*
G01*
X77716302Y-68056921D02*
X77893079Y-68233698D01*
G75*
G02*
X77893079Y-68305822I-36062J-36062D01*
G01*
X77115262Y-69083639D01*
G75*
G02*
X77043138Y-69083639I-36062J36062D01*
G01*
X76866361Y-68906862D01*
G75*
G02*
X76866361Y-68834738I36062J36062D01*
G01*
X77644178Y-68056921D01*
G75*
G02*
X77716302Y-68056921I36062J-36062D01*
G01*
G37*
G36*
G01*
X77362749Y-67703367D02*
X77539526Y-67880144D01*
G75*
G02*
X77539526Y-67952268I-36062J-36062D01*
G01*
X76761709Y-68730085D01*
G75*
G02*
X76689585Y-68730085I-36062J36062D01*
G01*
X76512808Y-68553308D01*
G75*
G02*
X76512808Y-68481184I36062J36062D01*
G01*
X77290625Y-67703367D01*
G75*
G02*
X77362749Y-67703367I36062J-36062D01*
G01*
G37*
G36*
G01*
X77009196Y-67349814D02*
X77185973Y-67526591D01*
G75*
G02*
X77185973Y-67598715I-36062J-36062D01*
G01*
X76408156Y-68376532D01*
G75*
G02*
X76336032Y-68376532I-36062J36062D01*
G01*
X76159255Y-68199755D01*
G75*
G02*
X76159255Y-68127631I36062J36062D01*
G01*
X76937072Y-67349814D01*
G75*
G02*
X77009196Y-67349814I36062J-36062D01*
G01*
G37*
G36*
G01*
X80049755Y-64309255D02*
X80226532Y-64486032D01*
G75*
G02*
X80226532Y-64558156I-36062J-36062D01*
G01*
X79448715Y-65335973D01*
G75*
G02*
X79376591Y-65335973I-36062J36062D01*
G01*
X79199814Y-65159196D01*
G75*
G02*
X79199814Y-65087072I36062J36062D01*
G01*
X79977631Y-64309255D01*
G75*
G02*
X80049755Y-64309255I36062J-36062D01*
G01*
G37*
G36*
G01*
X80403308Y-64662808D02*
X80580085Y-64839585D01*
G75*
G02*
X80580085Y-64911709I-36062J-36062D01*
G01*
X79802268Y-65689526D01*
G75*
G02*
X79730144Y-65689526I-36062J36062D01*
G01*
X79553367Y-65512749D01*
G75*
G02*
X79553367Y-65440625I36062J36062D01*
G01*
X80331184Y-64662808D01*
G75*
G02*
X80403308Y-64662808I36062J-36062D01*
G01*
G37*
G36*
G01*
X80756862Y-65016361D02*
X80933639Y-65193138D01*
G75*
G02*
X80933639Y-65265262I-36062J-36062D01*
G01*
X80155822Y-66043079D01*
G75*
G02*
X80083698Y-66043079I-36062J36062D01*
G01*
X79906921Y-65866302D01*
G75*
G02*
X79906921Y-65794178I36062J36062D01*
G01*
X80684738Y-65016361D01*
G75*
G02*
X80756862Y-65016361I36062J-36062D01*
G01*
G37*
G36*
G01*
X81110415Y-65369915D02*
X81287192Y-65546692D01*
G75*
G02*
X81287192Y-65618816I-36062J-36062D01*
G01*
X80509375Y-66396633D01*
G75*
G02*
X80437251Y-66396633I-36062J36062D01*
G01*
X80260474Y-66219856D01*
G75*
G02*
X80260474Y-66147732I36062J36062D01*
G01*
X81038291Y-65369915D01*
G75*
G02*
X81110415Y-65369915I36062J-36062D01*
G01*
G37*
G36*
G01*
X81463968Y-65723468D02*
X81640745Y-65900245D01*
G75*
G02*
X81640745Y-65972369I-36062J-36062D01*
G01*
X80862928Y-66750186D01*
G75*
G02*
X80790804Y-66750186I-36062J36062D01*
G01*
X80614027Y-66573409D01*
G75*
G02*
X80614027Y-66501285I36062J36062D01*
G01*
X81391844Y-65723468D01*
G75*
G02*
X81463968Y-65723468I36062J-36062D01*
G01*
G37*
D12*
X106071787Y-127554699D03*
X105630721Y-130056110D03*
X106512854Y-125053287D03*
X104748588Y-135058934D03*
X107836053Y-117549052D03*
X105189655Y-132557522D03*
X106953920Y-122551875D03*
X107394987Y-120050463D03*
X88561906Y-124467234D03*
X88120839Y-126968646D03*
X89002972Y-121965822D03*
X87238706Y-131971469D03*
X90326171Y-114461587D03*
X87679773Y-129470057D03*
X89444038Y-119464411D03*
X89885105Y-116962999D03*
X108573199Y-127995765D03*
X108132133Y-130497177D03*
X109014265Y-125494353D03*
X110337465Y-117990118D03*
X107691066Y-132998588D03*
X109455332Y-122992942D03*
X109896398Y-120491530D03*
X87824759Y-114020521D03*
X87383693Y-116521933D03*
X86942627Y-119023344D03*
X86501560Y-121524756D03*
X86060494Y-124026168D03*
X85619428Y-126527579D03*
X85178361Y-129028991D03*
G36*
G01*
X108226990Y-134859928D02*
X107949153Y-136435621D01*
G75*
G02*
X107890072Y-136476990I-50225J8856D01*
G01*
X106314379Y-136199153D01*
G75*
G02*
X106273010Y-136140072I8856J50225D01*
G01*
X106550847Y-134564379D01*
G75*
G02*
X106609928Y-134523010I50225J-8856D01*
G01*
X108185621Y-134800847D01*
G75*
G02*
X108226990Y-134859928I-8856J-50225D01*
G01*
G37*
X84737295Y-131530403D03*
G36*
G01*
X63400001Y-73656000D02*
X62749999Y-73656000D01*
G75*
G02*
X62699000Y-73605001I0J50999D01*
G01*
X62699000Y-72544999D01*
G75*
G02*
X62749999Y-72494000I50999J0D01*
G01*
X63400001Y-72494000D01*
G75*
G02*
X63451000Y-72544999I0J-50999D01*
G01*
X63451000Y-73605001D01*
G75*
G02*
X63400001Y-73656000I-50999J0D01*
G01*
G37*
G36*
G01*
X65300001Y-73656000D02*
X64649999Y-73656000D01*
G75*
G02*
X64599000Y-73605001I0J50999D01*
G01*
X64599000Y-72544999D01*
G75*
G02*
X64649999Y-72494000I50999J0D01*
G01*
X65300001Y-72494000D01*
G75*
G02*
X65351000Y-72544999I0J-50999D01*
G01*
X65351000Y-73605001D01*
G75*
G02*
X65300001Y-73656000I-50999J0D01*
G01*
G37*
G36*
G01*
X65300001Y-75856000D02*
X64649999Y-75856000D01*
G75*
G02*
X64599000Y-75805001I0J50999D01*
G01*
X64599000Y-74744999D01*
G75*
G02*
X64649999Y-74694000I50999J0D01*
G01*
X65300001Y-74694000D01*
G75*
G02*
X65351000Y-74744999I0J-50999D01*
G01*
X65351000Y-75805001D01*
G75*
G02*
X65300001Y-75856000I-50999J0D01*
G01*
G37*
G36*
G01*
X64350001Y-75856000D02*
X63699999Y-75856000D01*
G75*
G02*
X63649000Y-75805001I0J50999D01*
G01*
X63649000Y-74744999D01*
G75*
G02*
X63699999Y-74694000I50999J0D01*
G01*
X64350001Y-74694000D01*
G75*
G02*
X64401000Y-74744999I0J-50999D01*
G01*
X64401000Y-75805001D01*
G75*
G02*
X64350001Y-75856000I-50999J0D01*
G01*
G37*
G36*
G01*
X63400001Y-75856000D02*
X62749999Y-75856000D01*
G75*
G02*
X62699000Y-75805001I0J50999D01*
G01*
X62699000Y-74744999D01*
G75*
G02*
X62749999Y-74694000I50999J0D01*
G01*
X63400001Y-74694000D01*
G75*
G02*
X63451000Y-74744999I0J-50999D01*
G01*
X63451000Y-75805001D01*
G75*
G02*
X63400001Y-75856000I-50999J0D01*
G01*
G37*
G36*
G01*
X108399000Y-62650001D02*
X108399000Y-61799999D01*
G75*
G02*
X108449999Y-61749000I50999J0D01*
G01*
X109100001Y-61749000D01*
G75*
G02*
X109151000Y-61799999I0J-50999D01*
G01*
X109151000Y-62650001D01*
G75*
G02*
X109100001Y-62701000I-50999J0D01*
G01*
X108449999Y-62701000D01*
G75*
G02*
X108399000Y-62650001I0J50999D01*
G01*
G37*
G36*
G01*
X110049000Y-62650001D02*
X110049000Y-61799999D01*
G75*
G02*
X110099999Y-61749000I50999J0D01*
G01*
X110750001Y-61749000D01*
G75*
G02*
X110801000Y-61799999I0J-50999D01*
G01*
X110801000Y-62650001D01*
G75*
G02*
X110750001Y-62701000I-50999J0D01*
G01*
X110099999Y-62701000D01*
G75*
G02*
X110049000Y-62650001I0J50999D01*
G01*
G37*
G36*
G01*
X110049000Y-64200001D02*
X110049000Y-63349999D01*
G75*
G02*
X110099999Y-63299000I50999J0D01*
G01*
X110750001Y-63299000D01*
G75*
G02*
X110801000Y-63349999I0J-50999D01*
G01*
X110801000Y-64200001D01*
G75*
G02*
X110750001Y-64251000I-50999J0D01*
G01*
X110099999Y-64251000D01*
G75*
G02*
X110049000Y-64200001I0J50999D01*
G01*
G37*
G36*
G01*
X108399000Y-64200001D02*
X108399000Y-63349999D01*
G75*
G02*
X108449999Y-63299000I50999J0D01*
G01*
X109100001Y-63299000D01*
G75*
G02*
X109151000Y-63349999I0J-50999D01*
G01*
X109151000Y-64200001D01*
G75*
G02*
X109100001Y-64251000I-50999J0D01*
G01*
X108449999Y-64251000D01*
G75*
G02*
X108399000Y-64200001I0J50999D01*
G01*
G37*
G36*
G01*
X58475001Y-82756000D02*
X57824999Y-82756000D01*
G75*
G02*
X57774000Y-82705001I0J50999D01*
G01*
X57774000Y-81644999D01*
G75*
G02*
X57824999Y-81594000I50999J0D01*
G01*
X58475001Y-81594000D01*
G75*
G02*
X58526000Y-81644999I0J-50999D01*
G01*
X58526000Y-82705001D01*
G75*
G02*
X58475001Y-82756000I-50999J0D01*
G01*
G37*
G36*
G01*
X60375001Y-82756000D02*
X59724999Y-82756000D01*
G75*
G02*
X59674000Y-82705001I0J50999D01*
G01*
X59674000Y-81644999D01*
G75*
G02*
X59724999Y-81594000I50999J0D01*
G01*
X60375001Y-81594000D01*
G75*
G02*
X60426000Y-81644999I0J-50999D01*
G01*
X60426000Y-82705001D01*
G75*
G02*
X60375001Y-82756000I-50999J0D01*
G01*
G37*
G36*
G01*
X60375001Y-84956000D02*
X59724999Y-84956000D01*
G75*
G02*
X59674000Y-84905001I0J50999D01*
G01*
X59674000Y-83844999D01*
G75*
G02*
X59724999Y-83794000I50999J0D01*
G01*
X60375001Y-83794000D01*
G75*
G02*
X60426000Y-83844999I0J-50999D01*
G01*
X60426000Y-84905001D01*
G75*
G02*
X60375001Y-84956000I-50999J0D01*
G01*
G37*
G36*
G01*
X59425001Y-84956000D02*
X58774999Y-84956000D01*
G75*
G02*
X58724000Y-84905001I0J50999D01*
G01*
X58724000Y-83844999D01*
G75*
G02*
X58774999Y-83794000I50999J0D01*
G01*
X59425001Y-83794000D01*
G75*
G02*
X59476000Y-83844999I0J-50999D01*
G01*
X59476000Y-84905001D01*
G75*
G02*
X59425001Y-84956000I-50999J0D01*
G01*
G37*
G36*
G01*
X58475001Y-84956000D02*
X57824999Y-84956000D01*
G75*
G02*
X57774000Y-84905001I0J50999D01*
G01*
X57774000Y-83844999D01*
G75*
G02*
X57824999Y-83794000I50999J0D01*
G01*
X58475001Y-83794000D01*
G75*
G02*
X58526000Y-83844999I0J-50999D01*
G01*
X58526000Y-84905001D01*
G75*
G02*
X58475001Y-84956000I-50999J0D01*
G01*
G37*
G36*
G01*
X85801000Y-60968250D02*
X85801000Y-61931750D01*
G75*
G02*
X85531750Y-62201000I-269250J0D01*
G01*
X84993250Y-62201000D01*
G75*
G02*
X84724000Y-61931750I0J269250D01*
G01*
X84724000Y-60968250D01*
G75*
G02*
X84993250Y-60699000I269250J0D01*
G01*
X85531750Y-60699000D01*
G75*
G02*
X85801000Y-60968250I0J-269250D01*
G01*
G37*
G36*
G01*
X87676000Y-60968250D02*
X87676000Y-61931750D01*
G75*
G02*
X87406750Y-62201000I-269250J0D01*
G01*
X86868250Y-62201000D01*
G75*
G02*
X86599000Y-61931750I0J269250D01*
G01*
X86599000Y-60968250D01*
G75*
G02*
X86868250Y-60699000I269250J0D01*
G01*
X87406750Y-60699000D01*
G75*
G02*
X87676000Y-60968250I0J-269250D01*
G01*
G37*
G36*
G01*
X81999000Y-118281750D02*
X81999000Y-117318250D01*
G75*
G02*
X82268250Y-117049000I269250J0D01*
G01*
X82806750Y-117049000D01*
G75*
G02*
X83076000Y-117318250I0J-269250D01*
G01*
X83076000Y-118281750D01*
G75*
G02*
X82806750Y-118551000I-269250J0D01*
G01*
X82268250Y-118551000D01*
G75*
G02*
X81999000Y-118281750I0J269250D01*
G01*
G37*
G36*
G01*
X80124000Y-118281750D02*
X80124000Y-117318250D01*
G75*
G02*
X80393250Y-117049000I269250J0D01*
G01*
X80931750Y-117049000D01*
G75*
G02*
X81201000Y-117318250I0J-269250D01*
G01*
X81201000Y-118281750D01*
G75*
G02*
X80931750Y-118551000I-269250J0D01*
G01*
X80393250Y-118551000D01*
G75*
G02*
X80124000Y-118281750I0J269250D01*
G01*
G37*
G36*
G01*
X81399000Y-121681750D02*
X81399000Y-120718250D01*
G75*
G02*
X81668250Y-120449000I269250J0D01*
G01*
X82206750Y-120449000D01*
G75*
G02*
X82476000Y-120718250I0J-269250D01*
G01*
X82476000Y-121681750D01*
G75*
G02*
X82206750Y-121951000I-269250J0D01*
G01*
X81668250Y-121951000D01*
G75*
G02*
X81399000Y-121681750I0J269250D01*
G01*
G37*
G36*
G01*
X79524000Y-121681750D02*
X79524000Y-120718250D01*
G75*
G02*
X79793250Y-120449000I269250J0D01*
G01*
X80331750Y-120449000D01*
G75*
G02*
X80601000Y-120718250I0J-269250D01*
G01*
X80601000Y-121681750D01*
G75*
G02*
X80331750Y-121951000I-269250J0D01*
G01*
X79793250Y-121951000D01*
G75*
G02*
X79524000Y-121681750I0J269250D01*
G01*
G37*
G36*
G01*
X112999000Y-106981750D02*
X112999000Y-106018250D01*
G75*
G02*
X113268250Y-105749000I269250J0D01*
G01*
X113806750Y-105749000D01*
G75*
G02*
X114076000Y-106018250I0J-269250D01*
G01*
X114076000Y-106981750D01*
G75*
G02*
X113806750Y-107251000I-269250J0D01*
G01*
X113268250Y-107251000D01*
G75*
G02*
X112999000Y-106981750I0J269250D01*
G01*
G37*
G36*
G01*
X111124000Y-106981750D02*
X111124000Y-106018250D01*
G75*
G02*
X111393250Y-105749000I269250J0D01*
G01*
X111931750Y-105749000D01*
G75*
G02*
X112201000Y-106018250I0J-269250D01*
G01*
X112201000Y-106981750D01*
G75*
G02*
X111931750Y-107251000I-269250J0D01*
G01*
X111393250Y-107251000D01*
G75*
G02*
X111124000Y-106981750I0J269250D01*
G01*
G37*
G36*
G01*
X108001000Y-106018250D02*
X108001000Y-106981750D01*
G75*
G02*
X107731750Y-107251000I-269250J0D01*
G01*
X107193250Y-107251000D01*
G75*
G02*
X106924000Y-106981750I0J269250D01*
G01*
X106924000Y-106018250D01*
G75*
G02*
X107193250Y-105749000I269250J0D01*
G01*
X107731750Y-105749000D01*
G75*
G02*
X108001000Y-106018250I0J-269250D01*
G01*
G37*
G36*
G01*
X109876000Y-106018250D02*
X109876000Y-106981750D01*
G75*
G02*
X109606750Y-107251000I-269250J0D01*
G01*
X109068250Y-107251000D01*
G75*
G02*
X108799000Y-106981750I0J269250D01*
G01*
X108799000Y-106018250D01*
G75*
G02*
X109068250Y-105749000I269250J0D01*
G01*
X109606750Y-105749000D01*
G75*
G02*
X109876000Y-106018250I0J-269250D01*
G01*
G37*
G36*
G01*
X129801000Y-78118250D02*
X129801000Y-79081750D01*
G75*
G02*
X129531750Y-79351000I-269250J0D01*
G01*
X128993250Y-79351000D01*
G75*
G02*
X128724000Y-79081750I0J269250D01*
G01*
X128724000Y-78118250D01*
G75*
G02*
X128993250Y-77849000I269250J0D01*
G01*
X129531750Y-77849000D01*
G75*
G02*
X129801000Y-78118250I0J-269250D01*
G01*
G37*
G36*
G01*
X131676000Y-78118250D02*
X131676000Y-79081750D01*
G75*
G02*
X131406750Y-79351000I-269250J0D01*
G01*
X130868250Y-79351000D01*
G75*
G02*
X130599000Y-79081750I0J269250D01*
G01*
X130599000Y-78118250D01*
G75*
G02*
X130868250Y-77849000I269250J0D01*
G01*
X131406750Y-77849000D01*
G75*
G02*
X131676000Y-78118250I0J-269250D01*
G01*
G37*
G36*
G01*
X131801000Y-80718250D02*
X131801000Y-81681750D01*
G75*
G02*
X131531750Y-81951000I-269250J0D01*
G01*
X130993250Y-81951000D01*
G75*
G02*
X130724000Y-81681750I0J269250D01*
G01*
X130724000Y-80718250D01*
G75*
G02*
X130993250Y-80449000I269250J0D01*
G01*
X131531750Y-80449000D01*
G75*
G02*
X131801000Y-80718250I0J-269250D01*
G01*
G37*
G36*
G01*
X133676000Y-80718250D02*
X133676000Y-81681750D01*
G75*
G02*
X133406750Y-81951000I-269250J0D01*
G01*
X132868250Y-81951000D01*
G75*
G02*
X132599000Y-81681750I0J269250D01*
G01*
X132599000Y-80718250D01*
G75*
G02*
X132868250Y-80449000I269250J0D01*
G01*
X133406750Y-80449000D01*
G75*
G02*
X133676000Y-80718250I0J-269250D01*
G01*
G37*
G36*
G01*
X131299000Y-73881750D02*
X131299000Y-72918250D01*
G75*
G02*
X131568250Y-72649000I269250J0D01*
G01*
X132106750Y-72649000D01*
G75*
G02*
X132376000Y-72918250I0J-269250D01*
G01*
X132376000Y-73881750D01*
G75*
G02*
X132106750Y-74151000I-269250J0D01*
G01*
X131568250Y-74151000D01*
G75*
G02*
X131299000Y-73881750I0J269250D01*
G01*
G37*
G36*
G01*
X129424000Y-73881750D02*
X129424000Y-72918250D01*
G75*
G02*
X129693250Y-72649000I269250J0D01*
G01*
X130231750Y-72649000D01*
G75*
G02*
X130501000Y-72918250I0J-269250D01*
G01*
X130501000Y-73881750D01*
G75*
G02*
X130231750Y-74151000I-269250J0D01*
G01*
X129693250Y-74151000D01*
G75*
G02*
X129424000Y-73881750I0J269250D01*
G01*
G37*
G36*
G01*
X128599000Y-71281750D02*
X128599000Y-70318250D01*
G75*
G02*
X128868250Y-70049000I269250J0D01*
G01*
X129406750Y-70049000D01*
G75*
G02*
X129676000Y-70318250I0J-269250D01*
G01*
X129676000Y-71281750D01*
G75*
G02*
X129406750Y-71551000I-269250J0D01*
G01*
X128868250Y-71551000D01*
G75*
G02*
X128599000Y-71281750I0J269250D01*
G01*
G37*
G36*
G01*
X126724000Y-71281750D02*
X126724000Y-70318250D01*
G75*
G02*
X126993250Y-70049000I269250J0D01*
G01*
X127531750Y-70049000D01*
G75*
G02*
X127801000Y-70318250I0J-269250D01*
G01*
X127801000Y-71281750D01*
G75*
G02*
X127531750Y-71551000I-269250J0D01*
G01*
X126993250Y-71551000D01*
G75*
G02*
X126724000Y-71281750I0J269250D01*
G01*
G37*
G36*
G01*
X132599000Y-76481750D02*
X132599000Y-75518250D01*
G75*
G02*
X132868250Y-75249000I269250J0D01*
G01*
X133406750Y-75249000D01*
G75*
G02*
X133676000Y-75518250I0J-269250D01*
G01*
X133676000Y-76481750D01*
G75*
G02*
X133406750Y-76751000I-269250J0D01*
G01*
X132868250Y-76751000D01*
G75*
G02*
X132599000Y-76481750I0J269250D01*
G01*
G37*
G36*
G01*
X130724000Y-76481750D02*
X130724000Y-75518250D01*
G75*
G02*
X130993250Y-75249000I269250J0D01*
G01*
X131531750Y-75249000D01*
G75*
G02*
X131801000Y-75518250I0J-269250D01*
G01*
X131801000Y-76481750D01*
G75*
G02*
X131531750Y-76751000I-269250J0D01*
G01*
X130993250Y-76751000D01*
G75*
G02*
X130724000Y-76481750I0J269250D01*
G01*
G37*
G36*
G01*
X67981750Y-80001000D02*
X67018250Y-80001000D01*
G75*
G02*
X66749000Y-79731750I0J269250D01*
G01*
X66749000Y-79193250D01*
G75*
G02*
X67018250Y-78924000I269250J0D01*
G01*
X67981750Y-78924000D01*
G75*
G02*
X68251000Y-79193250I0J-269250D01*
G01*
X68251000Y-79731750D01*
G75*
G02*
X67981750Y-80001000I-269250J0D01*
G01*
G37*
G36*
G01*
X67981750Y-81876000D02*
X67018250Y-81876000D01*
G75*
G02*
X66749000Y-81606750I0J269250D01*
G01*
X66749000Y-81068250D01*
G75*
G02*
X67018250Y-80799000I269250J0D01*
G01*
X67981750Y-80799000D01*
G75*
G02*
X68251000Y-81068250I0J-269250D01*
G01*
X68251000Y-81606750D01*
G75*
G02*
X67981750Y-81876000I-269250J0D01*
G01*
G37*
G36*
G01*
X67956750Y-84226000D02*
X66993250Y-84226000D01*
G75*
G02*
X66724000Y-83956750I0J269250D01*
G01*
X66724000Y-83418250D01*
G75*
G02*
X66993250Y-83149000I269250J0D01*
G01*
X67956750Y-83149000D01*
G75*
G02*
X68226000Y-83418250I0J-269250D01*
G01*
X68226000Y-83956750D01*
G75*
G02*
X67956750Y-84226000I-269250J0D01*
G01*
G37*
G36*
G01*
X67956750Y-86101000D02*
X66993250Y-86101000D01*
G75*
G02*
X66724000Y-85831750I0J269250D01*
G01*
X66724000Y-85293250D01*
G75*
G02*
X66993250Y-85024000I269250J0D01*
G01*
X67956750Y-85024000D01*
G75*
G02*
X68226000Y-85293250I0J-269250D01*
G01*
X68226000Y-85831750D01*
G75*
G02*
X67956750Y-86101000I-269250J0D01*
G01*
G37*
G36*
G01*
X104718250Y-63399000D02*
X105681750Y-63399000D01*
G75*
G02*
X105951000Y-63668250I0J-269250D01*
G01*
X105951000Y-64206750D01*
G75*
G02*
X105681750Y-64476000I-269250J0D01*
G01*
X104718250Y-64476000D01*
G75*
G02*
X104449000Y-64206750I0J269250D01*
G01*
X104449000Y-63668250D01*
G75*
G02*
X104718250Y-63399000I269250J0D01*
G01*
G37*
G36*
G01*
X104718250Y-61524000D02*
X105681750Y-61524000D01*
G75*
G02*
X105951000Y-61793250I0J-269250D01*
G01*
X105951000Y-62331750D01*
G75*
G02*
X105681750Y-62601000I-269250J0D01*
G01*
X104718250Y-62601000D01*
G75*
G02*
X104449000Y-62331750I0J269250D01*
G01*
X104449000Y-61793250D01*
G75*
G02*
X104718250Y-61524000I269250J0D01*
G01*
G37*
G36*
G01*
X83001000Y-81918250D02*
X83001000Y-82881750D01*
G75*
G02*
X82731750Y-83151000I-269250J0D01*
G01*
X82193250Y-83151000D01*
G75*
G02*
X81924000Y-82881750I0J269250D01*
G01*
X81924000Y-81918250D01*
G75*
G02*
X82193250Y-81649000I269250J0D01*
G01*
X82731750Y-81649000D01*
G75*
G02*
X83001000Y-81918250I0J-269250D01*
G01*
G37*
G36*
G01*
X84876000Y-81918250D02*
X84876000Y-82881750D01*
G75*
G02*
X84606750Y-83151000I-269250J0D01*
G01*
X84068250Y-83151000D01*
G75*
G02*
X83799000Y-82881750I0J269250D01*
G01*
X83799000Y-81918250D01*
G75*
G02*
X84068250Y-81649000I269250J0D01*
G01*
X84606750Y-81649000D01*
G75*
G02*
X84876000Y-81918250I0J-269250D01*
G01*
G37*
G36*
G01*
X56518250Y-108649000D02*
X57481750Y-108649000D01*
G75*
G02*
X57751000Y-108918250I0J-269250D01*
G01*
X57751000Y-109456750D01*
G75*
G02*
X57481750Y-109726000I-269250J0D01*
G01*
X56518250Y-109726000D01*
G75*
G02*
X56249000Y-109456750I0J269250D01*
G01*
X56249000Y-108918250D01*
G75*
G02*
X56518250Y-108649000I269250J0D01*
G01*
G37*
G36*
G01*
X56518250Y-106774000D02*
X57481750Y-106774000D01*
G75*
G02*
X57751000Y-107043250I0J-269250D01*
G01*
X57751000Y-107581750D01*
G75*
G02*
X57481750Y-107851000I-269250J0D01*
G01*
X56518250Y-107851000D01*
G75*
G02*
X56249000Y-107581750I0J269250D01*
G01*
X56249000Y-107043250D01*
G75*
G02*
X56518250Y-106774000I269250J0D01*
G01*
G37*
G36*
G01*
X107351000Y-74518250D02*
X107351000Y-75481750D01*
G75*
G02*
X107081750Y-75751000I-269250J0D01*
G01*
X106543250Y-75751000D01*
G75*
G02*
X106274000Y-75481750I0J269250D01*
G01*
X106274000Y-74518250D01*
G75*
G02*
X106543250Y-74249000I269250J0D01*
G01*
X107081750Y-74249000D01*
G75*
G02*
X107351000Y-74518250I0J-269250D01*
G01*
G37*
G36*
G01*
X109226000Y-74518250D02*
X109226000Y-75481750D01*
G75*
G02*
X108956750Y-75751000I-269250J0D01*
G01*
X108418250Y-75751000D01*
G75*
G02*
X108149000Y-75481750I0J269250D01*
G01*
X108149000Y-74518250D01*
G75*
G02*
X108418250Y-74249000I269250J0D01*
G01*
X108956750Y-74249000D01*
G75*
G02*
X109226000Y-74518250I0J-269250D01*
G01*
G37*
G36*
G01*
X87799000Y-66281750D02*
X87799000Y-65318250D01*
G75*
G02*
X88068250Y-65049000I269250J0D01*
G01*
X88606750Y-65049000D01*
G75*
G02*
X88876000Y-65318250I0J-269250D01*
G01*
X88876000Y-66281750D01*
G75*
G02*
X88606750Y-66551000I-269250J0D01*
G01*
X88068250Y-66551000D01*
G75*
G02*
X87799000Y-66281750I0J269250D01*
G01*
G37*
G36*
G01*
X85924000Y-66281750D02*
X85924000Y-65318250D01*
G75*
G02*
X86193250Y-65049000I269250J0D01*
G01*
X86731750Y-65049000D01*
G75*
G02*
X87001000Y-65318250I0J-269250D01*
G01*
X87001000Y-66281750D01*
G75*
G02*
X86731750Y-66551000I-269250J0D01*
G01*
X86193250Y-66551000D01*
G75*
G02*
X85924000Y-66281750I0J269250D01*
G01*
G37*
G36*
G01*
X85924000Y-69981750D02*
X85924000Y-69018250D01*
G75*
G02*
X86193250Y-68749000I269250J0D01*
G01*
X86731750Y-68749000D01*
G75*
G02*
X87001000Y-69018250I0J-269250D01*
G01*
X87001000Y-69981750D01*
G75*
G02*
X86731750Y-70251000I-269250J0D01*
G01*
X86193250Y-70251000D01*
G75*
G02*
X85924000Y-69981750I0J269250D01*
G01*
G37*
G36*
G01*
X84049000Y-69981750D02*
X84049000Y-69018250D01*
G75*
G02*
X84318250Y-68749000I269250J0D01*
G01*
X84856750Y-68749000D01*
G75*
G02*
X85126000Y-69018250I0J-269250D01*
G01*
X85126000Y-69981750D01*
G75*
G02*
X84856750Y-70251000I-269250J0D01*
G01*
X84318250Y-70251000D01*
G75*
G02*
X84049000Y-69981750I0J269250D01*
G01*
G37*
G36*
G01*
X83001000Y-79518250D02*
X83001000Y-80481750D01*
G75*
G02*
X82731750Y-80751000I-269250J0D01*
G01*
X82193250Y-80751000D01*
G75*
G02*
X81924000Y-80481750I0J269250D01*
G01*
X81924000Y-79518250D01*
G75*
G02*
X82193250Y-79249000I269250J0D01*
G01*
X82731750Y-79249000D01*
G75*
G02*
X83001000Y-79518250I0J-269250D01*
G01*
G37*
G36*
G01*
X84876000Y-79518250D02*
X84876000Y-80481750D01*
G75*
G02*
X84606750Y-80751000I-269250J0D01*
G01*
X84068250Y-80751000D01*
G75*
G02*
X83799000Y-80481750I0J269250D01*
G01*
X83799000Y-79518250D01*
G75*
G02*
X84068250Y-79249000I269250J0D01*
G01*
X84606750Y-79249000D01*
G75*
G02*
X84876000Y-79518250I0J-269250D01*
G01*
G37*
G36*
G01*
X79001000Y-77118250D02*
X79001000Y-78081750D01*
G75*
G02*
X78731750Y-78351000I-269250J0D01*
G01*
X78193250Y-78351000D01*
G75*
G02*
X77924000Y-78081750I0J269250D01*
G01*
X77924000Y-77118250D01*
G75*
G02*
X78193250Y-76849000I269250J0D01*
G01*
X78731750Y-76849000D01*
G75*
G02*
X79001000Y-77118250I0J-269250D01*
G01*
G37*
G36*
G01*
X80876000Y-77118250D02*
X80876000Y-78081750D01*
G75*
G02*
X80606750Y-78351000I-269250J0D01*
G01*
X80068250Y-78351000D01*
G75*
G02*
X79799000Y-78081750I0J269250D01*
G01*
X79799000Y-77118250D01*
G75*
G02*
X80068250Y-76849000I269250J0D01*
G01*
X80606750Y-76849000D01*
G75*
G02*
X80876000Y-77118250I0J-269250D01*
G01*
G37*
G36*
G01*
X106149000Y-77981750D02*
X106149000Y-77018250D01*
G75*
G02*
X106418250Y-76749000I269250J0D01*
G01*
X106956750Y-76749000D01*
G75*
G02*
X107226000Y-77018250I0J-269250D01*
G01*
X107226000Y-77981750D01*
G75*
G02*
X106956750Y-78251000I-269250J0D01*
G01*
X106418250Y-78251000D01*
G75*
G02*
X106149000Y-77981750I0J269250D01*
G01*
G37*
G36*
G01*
X104274000Y-77981750D02*
X104274000Y-77018250D01*
G75*
G02*
X104543250Y-76749000I269250J0D01*
G01*
X105081750Y-76749000D01*
G75*
G02*
X105351000Y-77018250I0J-269250D01*
G01*
X105351000Y-77981750D01*
G75*
G02*
X105081750Y-78251000I-269250J0D01*
G01*
X104543250Y-78251000D01*
G75*
G02*
X104274000Y-77981750I0J269250D01*
G01*
G37*
G36*
G01*
X59399000Y-80231750D02*
X59399000Y-79268250D01*
G75*
G02*
X59668250Y-78999000I269250J0D01*
G01*
X60206750Y-78999000D01*
G75*
G02*
X60476000Y-79268250I0J-269250D01*
G01*
X60476000Y-80231750D01*
G75*
G02*
X60206750Y-80501000I-269250J0D01*
G01*
X59668250Y-80501000D01*
G75*
G02*
X59399000Y-80231750I0J269250D01*
G01*
G37*
G36*
G01*
X57524000Y-80231750D02*
X57524000Y-79268250D01*
G75*
G02*
X57793250Y-78999000I269250J0D01*
G01*
X58331750Y-78999000D01*
G75*
G02*
X58601000Y-79268250I0J-269250D01*
G01*
X58601000Y-80231750D01*
G75*
G02*
X58331750Y-80501000I-269250J0D01*
G01*
X57793250Y-80501000D01*
G75*
G02*
X57524000Y-80231750I0J269250D01*
G01*
G37*
G36*
G01*
X108149000Y-80481750D02*
X108149000Y-79518250D01*
G75*
G02*
X108418250Y-79249000I269250J0D01*
G01*
X108956750Y-79249000D01*
G75*
G02*
X109226000Y-79518250I0J-269250D01*
G01*
X109226000Y-80481750D01*
G75*
G02*
X108956750Y-80751000I-269250J0D01*
G01*
X108418250Y-80751000D01*
G75*
G02*
X108149000Y-80481750I0J269250D01*
G01*
G37*
G36*
G01*
X106274000Y-80481750D02*
X106274000Y-79518250D01*
G75*
G02*
X106543250Y-79249000I269250J0D01*
G01*
X107081750Y-79249000D01*
G75*
G02*
X107351000Y-79518250I0J-269250D01*
G01*
X107351000Y-80481750D01*
G75*
G02*
X107081750Y-80751000I-269250J0D01*
G01*
X106543250Y-80751000D01*
G75*
G02*
X106274000Y-80481750I0J269250D01*
G01*
G37*
G36*
G01*
X106149000Y-82981750D02*
X106149000Y-82018250D01*
G75*
G02*
X106418250Y-81749000I269250J0D01*
G01*
X106956750Y-81749000D01*
G75*
G02*
X107226000Y-82018250I0J-269250D01*
G01*
X107226000Y-82981750D01*
G75*
G02*
X106956750Y-83251000I-269250J0D01*
G01*
X106418250Y-83251000D01*
G75*
G02*
X106149000Y-82981750I0J269250D01*
G01*
G37*
G36*
G01*
X104274000Y-82981750D02*
X104274000Y-82018250D01*
G75*
G02*
X104543250Y-81749000I269250J0D01*
G01*
X105081750Y-81749000D01*
G75*
G02*
X105351000Y-82018250I0J-269250D01*
G01*
X105351000Y-82981750D01*
G75*
G02*
X105081750Y-83251000I-269250J0D01*
G01*
X104543250Y-83251000D01*
G75*
G02*
X104274000Y-82981750I0J269250D01*
G01*
G37*
G36*
G01*
X57601000Y-103518250D02*
X57601000Y-104481750D01*
G75*
G02*
X57331750Y-104751000I-269250J0D01*
G01*
X56793250Y-104751000D01*
G75*
G02*
X56524000Y-104481750I0J269250D01*
G01*
X56524000Y-103518250D01*
G75*
G02*
X56793250Y-103249000I269250J0D01*
G01*
X57331750Y-103249000D01*
G75*
G02*
X57601000Y-103518250I0J-269250D01*
G01*
G37*
G36*
G01*
X59476000Y-103518250D02*
X59476000Y-104481750D01*
G75*
G02*
X59206750Y-104751000I-269250J0D01*
G01*
X58668250Y-104751000D01*
G75*
G02*
X58399000Y-104481750I0J269250D01*
G01*
X58399000Y-103518250D01*
G75*
G02*
X58668250Y-103249000I269250J0D01*
G01*
X59206750Y-103249000D01*
G75*
G02*
X59476000Y-103518250I0J-269250D01*
G01*
G37*
G36*
G01*
X61851000Y-103518250D02*
X61851000Y-104481750D01*
G75*
G02*
X61581750Y-104751000I-269250J0D01*
G01*
X61043250Y-104751000D01*
G75*
G02*
X60774000Y-104481750I0J269250D01*
G01*
X60774000Y-103518250D01*
G75*
G02*
X61043250Y-103249000I269250J0D01*
G01*
X61581750Y-103249000D01*
G75*
G02*
X61851000Y-103518250I0J-269250D01*
G01*
G37*
G36*
G01*
X63726000Y-103518250D02*
X63726000Y-104481750D01*
G75*
G02*
X63456750Y-104751000I-269250J0D01*
G01*
X62918250Y-104751000D01*
G75*
G02*
X62649000Y-104481750I0J269250D01*
G01*
X62649000Y-103518250D01*
G75*
G02*
X62918250Y-103249000I269250J0D01*
G01*
X63456750Y-103249000D01*
G75*
G02*
X63726000Y-103518250I0J-269250D01*
G01*
G37*
G36*
G01*
X66101000Y-103518250D02*
X66101000Y-104481750D01*
G75*
G02*
X65831750Y-104751000I-269250J0D01*
G01*
X65293250Y-104751000D01*
G75*
G02*
X65024000Y-104481750I0J269250D01*
G01*
X65024000Y-103518250D01*
G75*
G02*
X65293250Y-103249000I269250J0D01*
G01*
X65831750Y-103249000D01*
G75*
G02*
X66101000Y-103518250I0J-269250D01*
G01*
G37*
G36*
G01*
X67976000Y-103518250D02*
X67976000Y-104481750D01*
G75*
G02*
X67706750Y-104751000I-269250J0D01*
G01*
X67168250Y-104751000D01*
G75*
G02*
X66899000Y-104481750I0J269250D01*
G01*
X66899000Y-103518250D01*
G75*
G02*
X67168250Y-103249000I269250J0D01*
G01*
X67706750Y-103249000D01*
G75*
G02*
X67976000Y-103518250I0J-269250D01*
G01*
G37*
D11*
X129198227Y-127380000D03*
G36*
G01*
X115406795Y-137074538D02*
X113906795Y-134476462D01*
G75*
G02*
X113925462Y-134406795I44167J25500D01*
G01*
X116523538Y-132906795D01*
G75*
G02*
X116593205Y-132925462I25500J-44167D01*
G01*
X118093205Y-135523538D01*
G75*
G02*
X118074538Y-135593205I-44167J-25500D01*
G01*
X115476462Y-137093205D01*
G75*
G02*
X115406795Y-137074538I-25500J44167D01*
G01*
G37*
X124798818Y-129920000D03*
X120399409Y-132460000D03*
X67627560Y-118253095D03*
X70755121Y-122256189D03*
G36*
G01*
X62363093Y-113951287D02*
X64727125Y-112104303D01*
G75*
G02*
X64798713Y-112113093I31399J-40189D01*
G01*
X66645697Y-114477125D01*
G75*
G02*
X66636907Y-114548713I-40189J-31399D01*
G01*
X64272875Y-116395697D01*
G75*
G02*
X64201287Y-116386907I-31399J40189D01*
G01*
X62354303Y-114022875D01*
G75*
G02*
X62363093Y-113951287I40189J31399D01*
G01*
G37*
X73882681Y-126259284D03*
X142550299Y-109718661D03*
G36*
G01*
X134663270Y-124617736D02*
X132147259Y-122983819D01*
G75*
G02*
X132132264Y-122913270I27777J42772D01*
G01*
X133766181Y-120397259D01*
G75*
G02*
X133836730Y-120382264I42772J-27777D01*
G01*
X136352741Y-122016181D01*
G75*
G02*
X136367736Y-122086730I-27777J-42772D01*
G01*
X134733819Y-124602741D01*
G75*
G02*
X134663270Y-124617736I-42772J27777D01*
G01*
G37*
X139783533Y-113979107D03*
X137016766Y-118239554D03*
X68965795Y-67734205D03*
X72557898Y-64142102D03*
G36*
G01*
X76186062Y-58392618D02*
X78307382Y-60513938D01*
G75*
G02*
X78307382Y-60586062I-36062J-36062D01*
G01*
X76186062Y-62707382D01*
G75*
G02*
X76113938Y-62707382I-36062J36062D01*
G01*
X73992618Y-60586062D01*
G75*
G02*
X73992618Y-60513938I36062J36062D01*
G01*
X76113938Y-58392618D01*
G75*
G02*
X76186062Y-58392618I36062J-36062D01*
G01*
G37*
X81293985Y-56745683D03*
G36*
G01*
X86483131Y-52353312D02*
X87868377Y-55014344D01*
G75*
G02*
X87846688Y-55083131I-45238J-23549D01*
G01*
X85185656Y-56468377D01*
G75*
G02*
X85116869Y-56446688I-23549J45238D01*
G01*
X83731623Y-53785656D01*
G75*
G02*
X83753312Y-53716869I45238J23549D01*
G01*
X86414344Y-52331623D01*
G75*
G02*
X86483131Y-52353312I23549J-45238D01*
G01*
G37*
X59750000Y-97080000D03*
G36*
G01*
X58250000Y-90449000D02*
X61250000Y-90449000D01*
G75*
G02*
X61301000Y-90500000I0J-51000D01*
G01*
X61301000Y-93500000D01*
G75*
G02*
X61250000Y-93551000I-51000J0D01*
G01*
X58250000Y-93551000D01*
G75*
G02*
X58199000Y-93500000I0J51000D01*
G01*
X58199000Y-90500000D01*
G75*
G02*
X58250000Y-90449000I51000J0D01*
G01*
G37*
G36*
G01*
X61576000Y-107899999D02*
X61576000Y-108550001D01*
G75*
G02*
X61525001Y-108601000I-50999J0D01*
G01*
X60304999Y-108601000D01*
G75*
G02*
X60254000Y-108550001I0J50999D01*
G01*
X60254000Y-107899999D01*
G75*
G02*
X60304999Y-107849000I50999J0D01*
G01*
X61525001Y-107849000D01*
G75*
G02*
X61576000Y-107899999I0J-50999D01*
G01*
G37*
G36*
G01*
X61576000Y-106949999D02*
X61576000Y-107600001D01*
G75*
G02*
X61525001Y-107651000I-50999J0D01*
G01*
X60304999Y-107651000D01*
G75*
G02*
X60254000Y-107600001I0J50999D01*
G01*
X60254000Y-106949999D01*
G75*
G02*
X60304999Y-106899000I50999J0D01*
G01*
X61525001Y-106899000D01*
G75*
G02*
X61576000Y-106949999I0J-50999D01*
G01*
G37*
G36*
G01*
X61576000Y-105999999D02*
X61576000Y-106650001D01*
G75*
G02*
X61525001Y-106701000I-50999J0D01*
G01*
X60304999Y-106701000D01*
G75*
G02*
X60254000Y-106650001I0J50999D01*
G01*
X60254000Y-105999999D01*
G75*
G02*
X60304999Y-105949000I50999J0D01*
G01*
X61525001Y-105949000D01*
G75*
G02*
X61576000Y-105999999I0J-50999D01*
G01*
G37*
G36*
G01*
X64196000Y-105999999D02*
X64196000Y-106650001D01*
G75*
G02*
X64145001Y-106701000I-50999J0D01*
G01*
X62924999Y-106701000D01*
G75*
G02*
X62874000Y-106650001I0J50999D01*
G01*
X62874000Y-105999999D01*
G75*
G02*
X62924999Y-105949000I50999J0D01*
G01*
X64145001Y-105949000D01*
G75*
G02*
X64196000Y-105999999I0J-50999D01*
G01*
G37*
G36*
G01*
X64196000Y-106949999D02*
X64196000Y-107600001D01*
G75*
G02*
X64145001Y-107651000I-50999J0D01*
G01*
X62924999Y-107651000D01*
G75*
G02*
X62874000Y-107600001I0J50999D01*
G01*
X62874000Y-106949999D01*
G75*
G02*
X62924999Y-106899000I50999J0D01*
G01*
X64145001Y-106899000D01*
G75*
G02*
X64196000Y-106949999I0J-50999D01*
G01*
G37*
G36*
G01*
X64196000Y-107899999D02*
X64196000Y-108550001D01*
G75*
G02*
X64145001Y-108601000I-50999J0D01*
G01*
X62924999Y-108601000D01*
G75*
G02*
X62874000Y-108550001I0J50999D01*
G01*
X62874000Y-107899999D01*
G75*
G02*
X62924999Y-107849000I50999J0D01*
G01*
X64145001Y-107849000D01*
G75*
G02*
X64196000Y-107899999I0J-50999D01*
G01*
G37*
G36*
G01*
X74758513Y-69877216D02*
X74077216Y-70558513D01*
G75*
G02*
X73696438Y-70558513I-190389J190389D01*
G01*
X73315661Y-70177736D01*
G75*
G02*
X73315661Y-69796958I190389J190389D01*
G01*
X73996958Y-69115661D01*
G75*
G02*
X74377736Y-69115661I190389J-190389D01*
G01*
X74758513Y-69496438D01*
G75*
G02*
X74758513Y-69877216I-190389J-190389D01*
G01*
G37*
G36*
G01*
X76084339Y-71203042D02*
X75403042Y-71884339D01*
G75*
G02*
X75022264Y-71884339I-190389J190389D01*
G01*
X74641487Y-71503562D01*
G75*
G02*
X74641487Y-71122784I190389J190389D01*
G01*
X75322784Y-70441487D01*
G75*
G02*
X75703562Y-70441487I190389J-190389D01*
G01*
X76084339Y-70822264D01*
G75*
G02*
X76084339Y-71203042I-190389J-190389D01*
G01*
G37*
G36*
G01*
X127599000Y-68681750D02*
X127599000Y-67718250D01*
G75*
G02*
X127868250Y-67449000I269250J0D01*
G01*
X128406750Y-67449000D01*
G75*
G02*
X128676000Y-67718250I0J-269250D01*
G01*
X128676000Y-68681750D01*
G75*
G02*
X128406750Y-68951000I-269250J0D01*
G01*
X127868250Y-68951000D01*
G75*
G02*
X127599000Y-68681750I0J269250D01*
G01*
G37*
G36*
G01*
X125724000Y-68681750D02*
X125724000Y-67718250D01*
G75*
G02*
X125993250Y-67449000I269250J0D01*
G01*
X126531750Y-67449000D01*
G75*
G02*
X126801000Y-67718250I0J-269250D01*
G01*
X126801000Y-68681750D01*
G75*
G02*
X126531750Y-68951000I-269250J0D01*
G01*
X125993250Y-68951000D01*
G75*
G02*
X125724000Y-68681750I0J269250D01*
G01*
G37*
G36*
G01*
X121201000Y-69518250D02*
X121201000Y-70481750D01*
G75*
G02*
X120931750Y-70751000I-269250J0D01*
G01*
X120393250Y-70751000D01*
G75*
G02*
X120124000Y-70481750I0J269250D01*
G01*
X120124000Y-69518250D01*
G75*
G02*
X120393250Y-69249000I269250J0D01*
G01*
X120931750Y-69249000D01*
G75*
G02*
X121201000Y-69518250I0J-269250D01*
G01*
G37*
G36*
G01*
X123076000Y-69518250D02*
X123076000Y-70481750D01*
G75*
G02*
X122806750Y-70751000I-269250J0D01*
G01*
X122268250Y-70751000D01*
G75*
G02*
X121999000Y-70481750I0J269250D01*
G01*
X121999000Y-69518250D01*
G75*
G02*
X122268250Y-69249000I269250J0D01*
G01*
X122806750Y-69249000D01*
G75*
G02*
X123076000Y-69518250I0J-269250D01*
G01*
G37*
G36*
G01*
X65699000Y-70581750D02*
X65699000Y-69618250D01*
G75*
G02*
X65968250Y-69349000I269250J0D01*
G01*
X66506750Y-69349000D01*
G75*
G02*
X66776000Y-69618250I0J-269250D01*
G01*
X66776000Y-70581750D01*
G75*
G02*
X66506750Y-70851000I-269250J0D01*
G01*
X65968250Y-70851000D01*
G75*
G02*
X65699000Y-70581750I0J269250D01*
G01*
G37*
G36*
G01*
X63824000Y-70581750D02*
X63824000Y-69618250D01*
G75*
G02*
X64093250Y-69349000I269250J0D01*
G01*
X64631750Y-69349000D01*
G75*
G02*
X64901000Y-69618250I0J-269250D01*
G01*
X64901000Y-70581750D01*
G75*
G02*
X64631750Y-70851000I-269250J0D01*
G01*
X64093250Y-70851000D01*
G75*
G02*
X63824000Y-70581750I0J269250D01*
G01*
G37*
G36*
G01*
X59418250Y-75499000D02*
X60381750Y-75499000D01*
G75*
G02*
X60651000Y-75768250I0J-269250D01*
G01*
X60651000Y-76306750D01*
G75*
G02*
X60381750Y-76576000I-269250J0D01*
G01*
X59418250Y-76576000D01*
G75*
G02*
X59149000Y-76306750I0J269250D01*
G01*
X59149000Y-75768250D01*
G75*
G02*
X59418250Y-75499000I269250J0D01*
G01*
G37*
G36*
G01*
X59418250Y-73624000D02*
X60381750Y-73624000D01*
G75*
G02*
X60651000Y-73893250I0J-269250D01*
G01*
X60651000Y-74431750D01*
G75*
G02*
X60381750Y-74701000I-269250J0D01*
G01*
X59418250Y-74701000D01*
G75*
G02*
X59149000Y-74431750I0J269250D01*
G01*
X59149000Y-73893250D01*
G75*
G02*
X59418250Y-73624000I269250J0D01*
G01*
G37*
G36*
G01*
X67118250Y-74599000D02*
X68081750Y-74599000D01*
G75*
G02*
X68351000Y-74868250I0J-269250D01*
G01*
X68351000Y-75406750D01*
G75*
G02*
X68081750Y-75676000I-269250J0D01*
G01*
X67118250Y-75676000D01*
G75*
G02*
X66849000Y-75406750I0J269250D01*
G01*
X66849000Y-74868250D01*
G75*
G02*
X67118250Y-74599000I269250J0D01*
G01*
G37*
G36*
G01*
X67118250Y-72724000D02*
X68081750Y-72724000D01*
G75*
G02*
X68351000Y-72993250I0J-269250D01*
G01*
X68351000Y-73531750D01*
G75*
G02*
X68081750Y-73801000I-269250J0D01*
G01*
X67118250Y-73801000D01*
G75*
G02*
X66849000Y-73531750I0J269250D01*
G01*
X66849000Y-72993250D01*
G75*
G02*
X67118250Y-72724000I269250J0D01*
G01*
G37*
G36*
G01*
X109999000Y-59081750D02*
X109999000Y-58118250D01*
G75*
G02*
X110268250Y-57849000I269250J0D01*
G01*
X110806750Y-57849000D01*
G75*
G02*
X111076000Y-58118250I0J-269250D01*
G01*
X111076000Y-59081750D01*
G75*
G02*
X110806750Y-59351000I-269250J0D01*
G01*
X110268250Y-59351000D01*
G75*
G02*
X109999000Y-59081750I0J269250D01*
G01*
G37*
G36*
G01*
X108124000Y-59081750D02*
X108124000Y-58118250D01*
G75*
G02*
X108393250Y-57849000I269250J0D01*
G01*
X108931750Y-57849000D01*
G75*
G02*
X109201000Y-58118250I0J-269250D01*
G01*
X109201000Y-59081750D01*
G75*
G02*
X108931750Y-59351000I-269250J0D01*
G01*
X108393250Y-59351000D01*
G75*
G02*
X108124000Y-59081750I0J269250D01*
G01*
G37*
G36*
G01*
X106199000Y-68281750D02*
X106199000Y-67318250D01*
G75*
G02*
X106468250Y-67049000I269250J0D01*
G01*
X107006750Y-67049000D01*
G75*
G02*
X107276000Y-67318250I0J-269250D01*
G01*
X107276000Y-68281750D01*
G75*
G02*
X107006750Y-68551000I-269250J0D01*
G01*
X106468250Y-68551000D01*
G75*
G02*
X106199000Y-68281750I0J269250D01*
G01*
G37*
G36*
G01*
X104324000Y-68281750D02*
X104324000Y-67318250D01*
G75*
G02*
X104593250Y-67049000I269250J0D01*
G01*
X105131750Y-67049000D01*
G75*
G02*
X105401000Y-67318250I0J-269250D01*
G01*
X105401000Y-68281750D01*
G75*
G02*
X105131750Y-68551000I-269250J0D01*
G01*
X104593250Y-68551000D01*
G75*
G02*
X104324000Y-68281750I0J269250D01*
G01*
G37*
G36*
G01*
X63301000Y-77918250D02*
X63301000Y-78881750D01*
G75*
G02*
X63031750Y-79151000I-269250J0D01*
G01*
X62493250Y-79151000D01*
G75*
G02*
X62224000Y-78881750I0J269250D01*
G01*
X62224000Y-77918250D01*
G75*
G02*
X62493250Y-77649000I269250J0D01*
G01*
X63031750Y-77649000D01*
G75*
G02*
X63301000Y-77918250I0J-269250D01*
G01*
G37*
G36*
G01*
X65176000Y-77918250D02*
X65176000Y-78881750D01*
G75*
G02*
X64906750Y-79151000I-269250J0D01*
G01*
X64368250Y-79151000D01*
G75*
G02*
X64099000Y-78881750I0J269250D01*
G01*
X64099000Y-77918250D01*
G75*
G02*
X64368250Y-77649000I269250J0D01*
G01*
X64906750Y-77649000D01*
G75*
G02*
X65176000Y-77918250I0J-269250D01*
G01*
G37*
G36*
G01*
X106199000Y-70681750D02*
X106199000Y-69718250D01*
G75*
G02*
X106468250Y-69449000I269250J0D01*
G01*
X107006750Y-69449000D01*
G75*
G02*
X107276000Y-69718250I0J-269250D01*
G01*
X107276000Y-70681750D01*
G75*
G02*
X107006750Y-70951000I-269250J0D01*
G01*
X106468250Y-70951000D01*
G75*
G02*
X106199000Y-70681750I0J269250D01*
G01*
G37*
G36*
G01*
X104324000Y-70681750D02*
X104324000Y-69718250D01*
G75*
G02*
X104593250Y-69449000I269250J0D01*
G01*
X105131750Y-69449000D01*
G75*
G02*
X105401000Y-69718250I0J-269250D01*
G01*
X105401000Y-70681750D01*
G75*
G02*
X105131750Y-70951000I-269250J0D01*
G01*
X104593250Y-70951000D01*
G75*
G02*
X104324000Y-70681750I0J269250D01*
G01*
G37*
G36*
G01*
X106199000Y-73081750D02*
X106199000Y-72118250D01*
G75*
G02*
X106468250Y-71849000I269250J0D01*
G01*
X107006750Y-71849000D01*
G75*
G02*
X107276000Y-72118250I0J-269250D01*
G01*
X107276000Y-73081750D01*
G75*
G02*
X107006750Y-73351000I-269250J0D01*
G01*
X106468250Y-73351000D01*
G75*
G02*
X106199000Y-73081750I0J269250D01*
G01*
G37*
G36*
G01*
X104324000Y-73081750D02*
X104324000Y-72118250D01*
G75*
G02*
X104593250Y-71849000I269250J0D01*
G01*
X105131750Y-71849000D01*
G75*
G02*
X105401000Y-72118250I0J-269250D01*
G01*
X105401000Y-73081750D01*
G75*
G02*
X105131750Y-73351000I-269250J0D01*
G01*
X104593250Y-73351000D01*
G75*
G02*
X104324000Y-73081750I0J269250D01*
G01*
G37*
G36*
G01*
X81001000Y-71768250D02*
X81001000Y-72731750D01*
G75*
G02*
X80731750Y-73001000I-269250J0D01*
G01*
X80193250Y-73001000D01*
G75*
G02*
X79924000Y-72731750I0J269250D01*
G01*
X79924000Y-71768250D01*
G75*
G02*
X80193250Y-71499000I269250J0D01*
G01*
X80731750Y-71499000D01*
G75*
G02*
X81001000Y-71768250I0J-269250D01*
G01*
G37*
G36*
G01*
X82876000Y-71768250D02*
X82876000Y-72731750D01*
G75*
G02*
X82606750Y-73001000I-269250J0D01*
G01*
X82068250Y-73001000D01*
G75*
G02*
X81799000Y-72731750I0J269250D01*
G01*
X81799000Y-71768250D01*
G75*
G02*
X82068250Y-71499000I269250J0D01*
G01*
X82606750Y-71499000D01*
G75*
G02*
X82876000Y-71768250I0J-269250D01*
G01*
G37*
G36*
G01*
X62981750Y-84301000D02*
X62018250Y-84301000D01*
G75*
G02*
X61749000Y-84031750I0J269250D01*
G01*
X61749000Y-83493250D01*
G75*
G02*
X62018250Y-83224000I269250J0D01*
G01*
X62981750Y-83224000D01*
G75*
G02*
X63251000Y-83493250I0J-269250D01*
G01*
X63251000Y-84031750D01*
G75*
G02*
X62981750Y-84301000I-269250J0D01*
G01*
G37*
G36*
G01*
X62981750Y-86176000D02*
X62018250Y-86176000D01*
G75*
G02*
X61749000Y-85906750I0J269250D01*
G01*
X61749000Y-85368250D01*
G75*
G02*
X62018250Y-85099000I269250J0D01*
G01*
X62981750Y-85099000D01*
G75*
G02*
X63251000Y-85368250I0J-269250D01*
G01*
X63251000Y-85906750D01*
G75*
G02*
X62981750Y-86176000I-269250J0D01*
G01*
G37*
G36*
G01*
X83001000Y-77118250D02*
X83001000Y-78081750D01*
G75*
G02*
X82731750Y-78351000I-269250J0D01*
G01*
X82193250Y-78351000D01*
G75*
G02*
X81924000Y-78081750I0J269250D01*
G01*
X81924000Y-77118250D01*
G75*
G02*
X82193250Y-76849000I269250J0D01*
G01*
X82731750Y-76849000D01*
G75*
G02*
X83001000Y-77118250I0J-269250D01*
G01*
G37*
G36*
G01*
X84876000Y-77118250D02*
X84876000Y-78081750D01*
G75*
G02*
X84606750Y-78351000I-269250J0D01*
G01*
X84068250Y-78351000D01*
G75*
G02*
X83799000Y-78081750I0J269250D01*
G01*
X83799000Y-77118250D01*
G75*
G02*
X84068250Y-76849000I269250J0D01*
G01*
X84606750Y-76849000D01*
G75*
G02*
X84876000Y-77118250I0J-269250D01*
G01*
G37*
G36*
G01*
X83001000Y-74518250D02*
X83001000Y-75481750D01*
G75*
G02*
X82731750Y-75751000I-269250J0D01*
G01*
X82193250Y-75751000D01*
G75*
G02*
X81924000Y-75481750I0J269250D01*
G01*
X81924000Y-74518250D01*
G75*
G02*
X82193250Y-74249000I269250J0D01*
G01*
X82731750Y-74249000D01*
G75*
G02*
X83001000Y-74518250I0J-269250D01*
G01*
G37*
G36*
G01*
X84876000Y-74518250D02*
X84876000Y-75481750D01*
G75*
G02*
X84606750Y-75751000I-269250J0D01*
G01*
X84068250Y-75751000D01*
G75*
G02*
X83799000Y-75481750I0J269250D01*
G01*
X83799000Y-74518250D01*
G75*
G02*
X84068250Y-74249000I269250J0D01*
G01*
X84606750Y-74249000D01*
G75*
G02*
X84876000Y-74518250I0J-269250D01*
G01*
G37*
G36*
G01*
X79799000Y-80481750D02*
X79799000Y-79518250D01*
G75*
G02*
X80068250Y-79249000I269250J0D01*
G01*
X80606750Y-79249000D01*
G75*
G02*
X80876000Y-79518250I0J-269250D01*
G01*
X80876000Y-80481750D01*
G75*
G02*
X80606750Y-80751000I-269250J0D01*
G01*
X80068250Y-80751000D01*
G75*
G02*
X79799000Y-80481750I0J269250D01*
G01*
G37*
G36*
G01*
X77924000Y-80481750D02*
X77924000Y-79518250D01*
G75*
G02*
X78193250Y-79249000I269250J0D01*
G01*
X78731750Y-79249000D01*
G75*
G02*
X79001000Y-79518250I0J-269250D01*
G01*
X79001000Y-80481750D01*
G75*
G02*
X78731750Y-80751000I-269250J0D01*
G01*
X78193250Y-80751000D01*
G75*
G02*
X77924000Y-80481750I0J269250D01*
G01*
G37*
G36*
G01*
X59449000Y-87881750D02*
X59449000Y-86918250D01*
G75*
G02*
X59718250Y-86649000I269250J0D01*
G01*
X60256750Y-86649000D01*
G75*
G02*
X60526000Y-86918250I0J-269250D01*
G01*
X60526000Y-87881750D01*
G75*
G02*
X60256750Y-88151000I-269250J0D01*
G01*
X59718250Y-88151000D01*
G75*
G02*
X59449000Y-87881750I0J269250D01*
G01*
G37*
G36*
G01*
X57574000Y-87881750D02*
X57574000Y-86918250D01*
G75*
G02*
X57843250Y-86649000I269250J0D01*
G01*
X58381750Y-86649000D01*
G75*
G02*
X58651000Y-86918250I0J-269250D01*
G01*
X58651000Y-87881750D01*
G75*
G02*
X58381750Y-88151000I-269250J0D01*
G01*
X57843250Y-88151000D01*
G75*
G02*
X57574000Y-87881750I0J269250D01*
G01*
G37*
G36*
G01*
X121999000Y-64981750D02*
X121999000Y-64018250D01*
G75*
G02*
X122268250Y-63749000I269250J0D01*
G01*
X122806750Y-63749000D01*
G75*
G02*
X123076000Y-64018250I0J-269250D01*
G01*
X123076000Y-64981750D01*
G75*
G02*
X122806750Y-65251000I-269250J0D01*
G01*
X122268250Y-65251000D01*
G75*
G02*
X121999000Y-64981750I0J269250D01*
G01*
G37*
G36*
G01*
X120124000Y-64981750D02*
X120124000Y-64018250D01*
G75*
G02*
X120393250Y-63749000I269250J0D01*
G01*
X120931750Y-63749000D01*
G75*
G02*
X121201000Y-64018250I0J-269250D01*
G01*
X121201000Y-64981750D01*
G75*
G02*
X120931750Y-65251000I-269250J0D01*
G01*
X120393250Y-65251000D01*
G75*
G02*
X120124000Y-64981750I0J269250D01*
G01*
G37*
G36*
G01*
X120981750Y-61101000D02*
X120018250Y-61101000D01*
G75*
G02*
X119749000Y-60831750I0J269250D01*
G01*
X119749000Y-60293250D01*
G75*
G02*
X120018250Y-60024000I269250J0D01*
G01*
X120981750Y-60024000D01*
G75*
G02*
X121251000Y-60293250I0J-269250D01*
G01*
X121251000Y-60831750D01*
G75*
G02*
X120981750Y-61101000I-269250J0D01*
G01*
G37*
G36*
G01*
X120981750Y-62976000D02*
X120018250Y-62976000D01*
G75*
G02*
X119749000Y-62706750I0J269250D01*
G01*
X119749000Y-62168250D01*
G75*
G02*
X120018250Y-61899000I269250J0D01*
G01*
X120981750Y-61899000D01*
G75*
G02*
X121251000Y-62168250I0J-269250D01*
G01*
X121251000Y-62706750D01*
G75*
G02*
X120981750Y-62976000I-269250J0D01*
G01*
G37*
G36*
G01*
X65449000Y-97675000D02*
X65449000Y-91325000D01*
G75*
G02*
X65500000Y-91274000I51000J0D01*
G01*
X72840000Y-91274000D01*
G75*
G02*
X72891000Y-91325000I0J-51000D01*
G01*
X72891000Y-97675000D01*
G75*
G02*
X72840000Y-97726000I-51000J0D01*
G01*
X65500000Y-97726000D01*
G75*
G02*
X65449000Y-97675000I0J51000D01*
G01*
G37*
G36*
G01*
X144109000Y-97675000D02*
X144109000Y-91325000D01*
G75*
G02*
X144160000Y-91274000I51000J0D01*
G01*
X151500000Y-91274000D01*
G75*
G02*
X151551000Y-91325000I0J-51000D01*
G01*
X151551000Y-97675000D01*
G75*
G02*
X151500000Y-97726000I-51000J0D01*
G01*
X144160000Y-97726000D01*
G75*
G02*
X144109000Y-97675000I0J51000D01*
G01*
G37*
D13*
X136100000Y-86500000D03*
X80900000Y-102500000D03*
D14*
X72570000Y-86500000D03*
D15*
G36*
X136396603Y-122042280D02*
G01*
X136397511Y-122044062D01*
X136397191Y-122045046D01*
X135804875Y-122957132D01*
X134707720Y-124646603D01*
X134704954Y-124647191D01*
X132103397Y-122957720D01*
X132102489Y-122955938D01*
X132102646Y-122955455D01*
X132107253Y-122955455D01*
X134705455Y-124642747D01*
X135801521Y-122954954D01*
X136392747Y-122044545D01*
X133794545Y-120357253D01*
X133704788Y-120495466D01*
X133674366Y-120542312D01*
X133656546Y-120569752D01*
X133626317Y-120616301D01*
X133626109Y-120616621D01*
X133596005Y-120662977D01*
X132933699Y-121682839D01*
X132899587Y-121735367D01*
X132810059Y-121873228D01*
X132781800Y-121916743D01*
X132758846Y-121952089D01*
X132698479Y-122045046D01*
X132107253Y-122955455D01*
X132102646Y-122955455D01*
X132102809Y-122954954D01*
X132695125Y-122042868D01*
X132755492Y-121949911D01*
X132778446Y-121914565D01*
X132806705Y-121871050D01*
X132896233Y-121733189D01*
X132930345Y-121680661D01*
X133592651Y-120660799D01*
X133622755Y-120614443D01*
X133622963Y-120614123D01*
X133653192Y-120567574D01*
X133671012Y-120540134D01*
X133701434Y-120493288D01*
X133792280Y-120353397D01*
X133795046Y-120352809D01*
X136396603Y-122042280D01*
G37*
G36*
X64197732Y-107650000D02*
G01*
X64198000Y-107651000D01*
X64198000Y-107849000D01*
X64197000Y-107850732D01*
X64196000Y-107851000D01*
X62874000Y-107851000D01*
X62872268Y-107850000D01*
X62872000Y-107849000D01*
X62872000Y-107651000D01*
X62873000Y-107649268D01*
X62874000Y-107649000D01*
X64196000Y-107649000D01*
X64197732Y-107650000D01*
G37*
G36*
X61577732Y-107650000D02*
G01*
X61578000Y-107651000D01*
X61578000Y-107849000D01*
X61577000Y-107850732D01*
X61576000Y-107851000D01*
X60254000Y-107851000D01*
X60252268Y-107850000D01*
X60252000Y-107849000D01*
X60252000Y-107651000D01*
X60253000Y-107649268D01*
X60254000Y-107649000D01*
X61576000Y-107649000D01*
X61577732Y-107650000D01*
G37*
G36*
X64197732Y-106700000D02*
G01*
X64198000Y-106701000D01*
X64198000Y-106899000D01*
X64197000Y-106900732D01*
X64196000Y-106901000D01*
X62874000Y-106901000D01*
X62872268Y-106900000D01*
X62872000Y-106899000D01*
X62872000Y-106701000D01*
X62873000Y-106699268D01*
X62874000Y-106699000D01*
X64196000Y-106699000D01*
X64197732Y-106700000D01*
G37*
G36*
X61577732Y-106700000D02*
G01*
X61578000Y-106701000D01*
X61578000Y-106899000D01*
X61577000Y-106900732D01*
X61576000Y-106901000D01*
X60254000Y-106901000D01*
X60252268Y-106900000D01*
X60252000Y-106899000D01*
X60252000Y-106701000D01*
X60253000Y-106699268D01*
X60254000Y-106699000D01*
X61576000Y-106699000D01*
X61577732Y-106700000D01*
G37*
G36*
X58725732Y-83793000D02*
G01*
X58726000Y-83794000D01*
X58726000Y-84956000D01*
X58725000Y-84957732D01*
X58724000Y-84958000D01*
X58526000Y-84958000D01*
X58524268Y-84957000D01*
X58524000Y-84956000D01*
X58524000Y-83794000D01*
X58525000Y-83792268D01*
X58526000Y-83792000D01*
X58724000Y-83792000D01*
X58725732Y-83793000D01*
G37*
G36*
X59675732Y-83793000D02*
G01*
X59676000Y-83794000D01*
X59676000Y-84956000D01*
X59675000Y-84957732D01*
X59674000Y-84958000D01*
X59476000Y-84958000D01*
X59474268Y-84957000D01*
X59474000Y-84956000D01*
X59474000Y-83794000D01*
X59475000Y-83792268D01*
X59476000Y-83792000D01*
X59674000Y-83792000D01*
X59675732Y-83793000D01*
G37*
G36*
X92167165Y-81053774D02*
G01*
X92168000Y-81055400D01*
X92168000Y-81244600D01*
X92167000Y-81246332D01*
X92165000Y-81246332D01*
X92164010Y-81244796D01*
X92163538Y-81240001D01*
X92162194Y-81235572D01*
X92160014Y-81231493D01*
X92157081Y-81227919D01*
X92153507Y-81224986D01*
X92149428Y-81222806D01*
X92144999Y-81221462D01*
X92140306Y-81221000D01*
X90519694Y-81221000D01*
X90515001Y-81221462D01*
X90510572Y-81222806D01*
X90506493Y-81224986D01*
X90502919Y-81227919D01*
X90499986Y-81231493D01*
X90497806Y-81235572D01*
X90496462Y-81240001D01*
X90495990Y-81244796D01*
X90494825Y-81246422D01*
X90492835Y-81246226D01*
X90492000Y-81244600D01*
X90492000Y-81055400D01*
X90493000Y-81053668D01*
X90495000Y-81053668D01*
X90495990Y-81055204D01*
X90496462Y-81059999D01*
X90497806Y-81064428D01*
X90499986Y-81068507D01*
X90502919Y-81072081D01*
X90506493Y-81075014D01*
X90510572Y-81077194D01*
X90515001Y-81078538D01*
X90519694Y-81079000D01*
X92140306Y-81079000D01*
X92144999Y-81078538D01*
X92149428Y-81077194D01*
X92153507Y-81075014D01*
X92157081Y-81072081D01*
X92160014Y-81068507D01*
X92162194Y-81064428D01*
X92163538Y-81059999D01*
X92164010Y-81055204D01*
X92165175Y-81053578D01*
X92167165Y-81053774D01*
G37*
G36*
X97907165Y-81053774D02*
G01*
X97908000Y-81055400D01*
X97908000Y-81244600D01*
X97907000Y-81246332D01*
X97905000Y-81246332D01*
X97904010Y-81244796D01*
X97903538Y-81240001D01*
X97902194Y-81235572D01*
X97900014Y-81231493D01*
X97897081Y-81227919D01*
X97893507Y-81224986D01*
X97889428Y-81222806D01*
X97884999Y-81221462D01*
X97880306Y-81221000D01*
X96259694Y-81221000D01*
X96255001Y-81221462D01*
X96250572Y-81222806D01*
X96246493Y-81224986D01*
X96242919Y-81227919D01*
X96239986Y-81231493D01*
X96237806Y-81235572D01*
X96236462Y-81240001D01*
X96235990Y-81244796D01*
X96234825Y-81246422D01*
X96232835Y-81246226D01*
X96232000Y-81244600D01*
X96232000Y-81055400D01*
X96233000Y-81053668D01*
X96235000Y-81053668D01*
X96235990Y-81055204D01*
X96236462Y-81059999D01*
X96237806Y-81064428D01*
X96239986Y-81068507D01*
X96242919Y-81072081D01*
X96246493Y-81075014D01*
X96250572Y-81077194D01*
X96255001Y-81078538D01*
X96259694Y-81079000D01*
X97880306Y-81079000D01*
X97884999Y-81078538D01*
X97889428Y-81077194D01*
X97893507Y-81075014D01*
X97897081Y-81072081D01*
X97900014Y-81068507D01*
X97902194Y-81064428D01*
X97903538Y-81059999D01*
X97904010Y-81055204D01*
X97905175Y-81053578D01*
X97907165Y-81053774D01*
G37*
G36*
X97907165Y-80403774D02*
G01*
X97908000Y-80405400D01*
X97908000Y-80594600D01*
X97907000Y-80596332D01*
X97905000Y-80596332D01*
X97904010Y-80594796D01*
X97903538Y-80590001D01*
X97902194Y-80585572D01*
X97900014Y-80581493D01*
X97897081Y-80577919D01*
X97893507Y-80574986D01*
X97889428Y-80572806D01*
X97884999Y-80571462D01*
X97880306Y-80571000D01*
X96259694Y-80571000D01*
X96255001Y-80571462D01*
X96250572Y-80572806D01*
X96246493Y-80574986D01*
X96242919Y-80577919D01*
X96239986Y-80581493D01*
X96237806Y-80585572D01*
X96236462Y-80590001D01*
X96235990Y-80594796D01*
X96234825Y-80596422D01*
X96232835Y-80596226D01*
X96232000Y-80594600D01*
X96232000Y-80405400D01*
X96233000Y-80403668D01*
X96235000Y-80403668D01*
X96235990Y-80405204D01*
X96236462Y-80409999D01*
X96237806Y-80414428D01*
X96239986Y-80418507D01*
X96242919Y-80422081D01*
X96246493Y-80425014D01*
X96250572Y-80427194D01*
X96255001Y-80428538D01*
X96259694Y-80429000D01*
X97880306Y-80429000D01*
X97884999Y-80428538D01*
X97889428Y-80427194D01*
X97893507Y-80425014D01*
X97897081Y-80422081D01*
X97900014Y-80418507D01*
X97902194Y-80414428D01*
X97903538Y-80409999D01*
X97904010Y-80405204D01*
X97905175Y-80403578D01*
X97907165Y-80403774D01*
G37*
G36*
X92167165Y-80403774D02*
G01*
X92168000Y-80405400D01*
X92168000Y-80594600D01*
X92167000Y-80596332D01*
X92165000Y-80596332D01*
X92164010Y-80594796D01*
X92163538Y-80590001D01*
X92162194Y-80585572D01*
X92160014Y-80581493D01*
X92157081Y-80577919D01*
X92153507Y-80574986D01*
X92149428Y-80572806D01*
X92144999Y-80571462D01*
X92140306Y-80571000D01*
X90519694Y-80571000D01*
X90515001Y-80571462D01*
X90510572Y-80572806D01*
X90506493Y-80574986D01*
X90502919Y-80577919D01*
X90499986Y-80581493D01*
X90497806Y-80585572D01*
X90496462Y-80590001D01*
X90495990Y-80594796D01*
X90494825Y-80596422D01*
X90492835Y-80596226D01*
X90492000Y-80594600D01*
X90492000Y-80405400D01*
X90493000Y-80403668D01*
X90495000Y-80403668D01*
X90495990Y-80405204D01*
X90496462Y-80409999D01*
X90497806Y-80414428D01*
X90499986Y-80418507D01*
X90502919Y-80422081D01*
X90506493Y-80425014D01*
X90510572Y-80427194D01*
X90515001Y-80428538D01*
X90519694Y-80429000D01*
X92140306Y-80429000D01*
X92144999Y-80428538D01*
X92149428Y-80427194D01*
X92153507Y-80425014D01*
X92157081Y-80422081D01*
X92160014Y-80418507D01*
X92162194Y-80414428D01*
X92163538Y-80409999D01*
X92164010Y-80405204D01*
X92165175Y-80403578D01*
X92167165Y-80403774D01*
G37*
G36*
X97907165Y-79753774D02*
G01*
X97908000Y-79755400D01*
X97908000Y-79944600D01*
X97907000Y-79946332D01*
X97905000Y-79946332D01*
X97904010Y-79944796D01*
X97903538Y-79940001D01*
X97902194Y-79935572D01*
X97900014Y-79931493D01*
X97897081Y-79927919D01*
X97893507Y-79924986D01*
X97889428Y-79922806D01*
X97884999Y-79921462D01*
X97880306Y-79921000D01*
X96259694Y-79921000D01*
X96255001Y-79921462D01*
X96250572Y-79922806D01*
X96246493Y-79924986D01*
X96242919Y-79927919D01*
X96239986Y-79931493D01*
X96237806Y-79935572D01*
X96236462Y-79940001D01*
X96235990Y-79944796D01*
X96234825Y-79946422D01*
X96232835Y-79946226D01*
X96232000Y-79944600D01*
X96232000Y-79755400D01*
X96233000Y-79753668D01*
X96235000Y-79753668D01*
X96235990Y-79755204D01*
X96236462Y-79759999D01*
X96237806Y-79764428D01*
X96239986Y-79768507D01*
X96242919Y-79772081D01*
X96246493Y-79775014D01*
X96250572Y-79777194D01*
X96255001Y-79778538D01*
X96259694Y-79779000D01*
X97880306Y-79779000D01*
X97884999Y-79778538D01*
X97889428Y-79777194D01*
X97893507Y-79775014D01*
X97897081Y-79772081D01*
X97900014Y-79768507D01*
X97902194Y-79764428D01*
X97903538Y-79759999D01*
X97904010Y-79755204D01*
X97905175Y-79753578D01*
X97907165Y-79753774D01*
G37*
G36*
X92167165Y-79753774D02*
G01*
X92168000Y-79755400D01*
X92168000Y-79944600D01*
X92167000Y-79946332D01*
X92165000Y-79946332D01*
X92164010Y-79944796D01*
X92163538Y-79940001D01*
X92162194Y-79935572D01*
X92160014Y-79931493D01*
X92157081Y-79927919D01*
X92153507Y-79924986D01*
X92149428Y-79922806D01*
X92144999Y-79921462D01*
X92140306Y-79921000D01*
X90519694Y-79921000D01*
X90515001Y-79921462D01*
X90510572Y-79922806D01*
X90506493Y-79924986D01*
X90502919Y-79927919D01*
X90499986Y-79931493D01*
X90497806Y-79935572D01*
X90496462Y-79940001D01*
X90495990Y-79944796D01*
X90494825Y-79946422D01*
X90492835Y-79946226D01*
X90492000Y-79944600D01*
X90492000Y-79755400D01*
X90493000Y-79753668D01*
X90495000Y-79753668D01*
X90495990Y-79755204D01*
X90496462Y-79759999D01*
X90497806Y-79764428D01*
X90499986Y-79768507D01*
X90502919Y-79772081D01*
X90506493Y-79775014D01*
X90510572Y-79777194D01*
X90515001Y-79778538D01*
X90519694Y-79779000D01*
X92140306Y-79779000D01*
X92144999Y-79778538D01*
X92149428Y-79777194D01*
X92153507Y-79775014D01*
X92157081Y-79772081D01*
X92160014Y-79768507D01*
X92162194Y-79764428D01*
X92163538Y-79759999D01*
X92164010Y-79755204D01*
X92165175Y-79753578D01*
X92167165Y-79753774D01*
G37*
G36*
X92167165Y-79103774D02*
G01*
X92168000Y-79105400D01*
X92168000Y-79294600D01*
X92167000Y-79296332D01*
X92165000Y-79296332D01*
X92164010Y-79294796D01*
X92163538Y-79290001D01*
X92162194Y-79285572D01*
X92160014Y-79281493D01*
X92157081Y-79277919D01*
X92153507Y-79274986D01*
X92149428Y-79272806D01*
X92144999Y-79271462D01*
X92140306Y-79271000D01*
X90519694Y-79271000D01*
X90515001Y-79271462D01*
X90510572Y-79272806D01*
X90506493Y-79274986D01*
X90502919Y-79277919D01*
X90499986Y-79281493D01*
X90497806Y-79285572D01*
X90496462Y-79290001D01*
X90495990Y-79294796D01*
X90494825Y-79296422D01*
X90492835Y-79296226D01*
X90492000Y-79294600D01*
X90492000Y-79105400D01*
X90493000Y-79103668D01*
X90495000Y-79103668D01*
X90495990Y-79105204D01*
X90496462Y-79109999D01*
X90497806Y-79114428D01*
X90499986Y-79118507D01*
X90502919Y-79122081D01*
X90506493Y-79125014D01*
X90510572Y-79127194D01*
X90515001Y-79128538D01*
X90519694Y-79129000D01*
X92140306Y-79129000D01*
X92144999Y-79128538D01*
X92149428Y-79127194D01*
X92153507Y-79125014D01*
X92157081Y-79122081D01*
X92160014Y-79118507D01*
X92162194Y-79114428D01*
X92163538Y-79109999D01*
X92164010Y-79105204D01*
X92165175Y-79103578D01*
X92167165Y-79103774D01*
G37*
G36*
X97907165Y-79103774D02*
G01*
X97908000Y-79105400D01*
X97908000Y-79294600D01*
X97907000Y-79296332D01*
X97905000Y-79296332D01*
X97904010Y-79294796D01*
X97903538Y-79290001D01*
X97902194Y-79285572D01*
X97900014Y-79281493D01*
X97897081Y-79277919D01*
X97893507Y-79274986D01*
X97889428Y-79272806D01*
X97884999Y-79271462D01*
X97880306Y-79271000D01*
X96259694Y-79271000D01*
X96255001Y-79271462D01*
X96250572Y-79272806D01*
X96246493Y-79274986D01*
X96242919Y-79277919D01*
X96239986Y-79281493D01*
X96237806Y-79285572D01*
X96236462Y-79290001D01*
X96235990Y-79294796D01*
X96234825Y-79296422D01*
X96232835Y-79296226D01*
X96232000Y-79294600D01*
X96232000Y-79105400D01*
X96233000Y-79103668D01*
X96235000Y-79103668D01*
X96235990Y-79105204D01*
X96236462Y-79109999D01*
X96237806Y-79114428D01*
X96239986Y-79118507D01*
X96242919Y-79122081D01*
X96246493Y-79125014D01*
X96250572Y-79127194D01*
X96255001Y-79128538D01*
X96259694Y-79129000D01*
X97880306Y-79129000D01*
X97884999Y-79128538D01*
X97889428Y-79127194D01*
X97893507Y-79125014D01*
X97897081Y-79122081D01*
X97900014Y-79118507D01*
X97902194Y-79114428D01*
X97903538Y-79109999D01*
X97904010Y-79105204D01*
X97905175Y-79103578D01*
X97907165Y-79103774D01*
G37*
G36*
X92167165Y-78453774D02*
G01*
X92168000Y-78455400D01*
X92168000Y-78644600D01*
X92167000Y-78646332D01*
X92165000Y-78646332D01*
X92164010Y-78644796D01*
X92163538Y-78640001D01*
X92162194Y-78635572D01*
X92160014Y-78631493D01*
X92157081Y-78627919D01*
X92153507Y-78624986D01*
X92149428Y-78622806D01*
X92144999Y-78621462D01*
X92140306Y-78621000D01*
X90519694Y-78621000D01*
X90515001Y-78621462D01*
X90510572Y-78622806D01*
X90506493Y-78624986D01*
X90502919Y-78627919D01*
X90499986Y-78631493D01*
X90497806Y-78635572D01*
X90496462Y-78640001D01*
X90495990Y-78644796D01*
X90494825Y-78646422D01*
X90492835Y-78646226D01*
X90492000Y-78644600D01*
X90492000Y-78455400D01*
X90493000Y-78453668D01*
X90495000Y-78453668D01*
X90495990Y-78455204D01*
X90496462Y-78459999D01*
X90497806Y-78464428D01*
X90499986Y-78468507D01*
X90502919Y-78472081D01*
X90506493Y-78475014D01*
X90510572Y-78477194D01*
X90515001Y-78478538D01*
X90519694Y-78479000D01*
X92140306Y-78479000D01*
X92144999Y-78478538D01*
X92149428Y-78477194D01*
X92153507Y-78475014D01*
X92157081Y-78472081D01*
X92160014Y-78468507D01*
X92162194Y-78464428D01*
X92163538Y-78459999D01*
X92164010Y-78455204D01*
X92165175Y-78453578D01*
X92167165Y-78453774D01*
G37*
G36*
X97907165Y-78453774D02*
G01*
X97908000Y-78455400D01*
X97908000Y-78644600D01*
X97907000Y-78646332D01*
X97905000Y-78646332D01*
X97904010Y-78644796D01*
X97903538Y-78640001D01*
X97902194Y-78635572D01*
X97900014Y-78631493D01*
X97897081Y-78627919D01*
X97893507Y-78624986D01*
X97889428Y-78622806D01*
X97884999Y-78621462D01*
X97880306Y-78621000D01*
X96259694Y-78621000D01*
X96255001Y-78621462D01*
X96250572Y-78622806D01*
X96246493Y-78624986D01*
X96242919Y-78627919D01*
X96239986Y-78631493D01*
X96237806Y-78635572D01*
X96236462Y-78640001D01*
X96235990Y-78644796D01*
X96234825Y-78646422D01*
X96232835Y-78646226D01*
X96232000Y-78644600D01*
X96232000Y-78455400D01*
X96233000Y-78453668D01*
X96235000Y-78453668D01*
X96235990Y-78455204D01*
X96236462Y-78459999D01*
X96237806Y-78464428D01*
X96239986Y-78468507D01*
X96242919Y-78472081D01*
X96246493Y-78475014D01*
X96250572Y-78477194D01*
X96255001Y-78478538D01*
X96259694Y-78479000D01*
X97880306Y-78479000D01*
X97884999Y-78478538D01*
X97889428Y-78477194D01*
X97893507Y-78475014D01*
X97897081Y-78472081D01*
X97900014Y-78468507D01*
X97902194Y-78464428D01*
X97903538Y-78459999D01*
X97904010Y-78455204D01*
X97905175Y-78453578D01*
X97907165Y-78453774D01*
G37*
G36*
X124307165Y-78128774D02*
G01*
X124308000Y-78130400D01*
X124308000Y-78319600D01*
X124307000Y-78321332D01*
X124305000Y-78321332D01*
X124304010Y-78319796D01*
X124303538Y-78315001D01*
X124302194Y-78310572D01*
X124300014Y-78306493D01*
X124297081Y-78302919D01*
X124293507Y-78299986D01*
X124289428Y-78297806D01*
X124284999Y-78296462D01*
X124280306Y-78296000D01*
X122659694Y-78296000D01*
X122655001Y-78296462D01*
X122650572Y-78297806D01*
X122646493Y-78299986D01*
X122642919Y-78302919D01*
X122639986Y-78306493D01*
X122637806Y-78310572D01*
X122636462Y-78315001D01*
X122635990Y-78319796D01*
X122634825Y-78321422D01*
X122632835Y-78321226D01*
X122632000Y-78319600D01*
X122632000Y-78130400D01*
X122633000Y-78128668D01*
X122635000Y-78128668D01*
X122635990Y-78130204D01*
X122636462Y-78134999D01*
X122637806Y-78139428D01*
X122639986Y-78143507D01*
X122642919Y-78147081D01*
X122646493Y-78150014D01*
X122650572Y-78152194D01*
X122655001Y-78153538D01*
X122659694Y-78154000D01*
X124280306Y-78154000D01*
X124284999Y-78153538D01*
X124289428Y-78152194D01*
X124293507Y-78150014D01*
X124297081Y-78147081D01*
X124300014Y-78143507D01*
X124302194Y-78139428D01*
X124303538Y-78134999D01*
X124304010Y-78130204D01*
X124305175Y-78128578D01*
X124307165Y-78128774D01*
G37*
G36*
X118567165Y-78128774D02*
G01*
X118568000Y-78130400D01*
X118568000Y-78319600D01*
X118567000Y-78321332D01*
X118565000Y-78321332D01*
X118564010Y-78319796D01*
X118563538Y-78315001D01*
X118562194Y-78310572D01*
X118560014Y-78306493D01*
X118557081Y-78302919D01*
X118553507Y-78299986D01*
X118549428Y-78297806D01*
X118544999Y-78296462D01*
X118540306Y-78296000D01*
X116919694Y-78296000D01*
X116915001Y-78296462D01*
X116910572Y-78297806D01*
X116906493Y-78299986D01*
X116902919Y-78302919D01*
X116899986Y-78306493D01*
X116897806Y-78310572D01*
X116896462Y-78315001D01*
X116895990Y-78319796D01*
X116894825Y-78321422D01*
X116892835Y-78321226D01*
X116892000Y-78319600D01*
X116892000Y-78130400D01*
X116893000Y-78128668D01*
X116895000Y-78128668D01*
X116895990Y-78130204D01*
X116896462Y-78134999D01*
X116897806Y-78139428D01*
X116899986Y-78143507D01*
X116902919Y-78147081D01*
X116906493Y-78150014D01*
X116910572Y-78152194D01*
X116915001Y-78153538D01*
X116919694Y-78154000D01*
X118540306Y-78154000D01*
X118544999Y-78153538D01*
X118549428Y-78152194D01*
X118553507Y-78150014D01*
X118557081Y-78147081D01*
X118560014Y-78143507D01*
X118562194Y-78139428D01*
X118563538Y-78134999D01*
X118564010Y-78130204D01*
X118565175Y-78128578D01*
X118567165Y-78128774D01*
G37*
G36*
X97907165Y-77803774D02*
G01*
X97908000Y-77805400D01*
X97908000Y-77994600D01*
X97907000Y-77996332D01*
X97905000Y-77996332D01*
X97904010Y-77994796D01*
X97903538Y-77990001D01*
X97902194Y-77985572D01*
X97900014Y-77981493D01*
X97897081Y-77977919D01*
X97893507Y-77974986D01*
X97889428Y-77972806D01*
X97884999Y-77971462D01*
X97880306Y-77971000D01*
X96259694Y-77971000D01*
X96255001Y-77971462D01*
X96250572Y-77972806D01*
X96246493Y-77974986D01*
X96242919Y-77977919D01*
X96239986Y-77981493D01*
X96237806Y-77985572D01*
X96236462Y-77990001D01*
X96235990Y-77994796D01*
X96234825Y-77996422D01*
X96232835Y-77996226D01*
X96232000Y-77994600D01*
X96232000Y-77805400D01*
X96233000Y-77803668D01*
X96235000Y-77803668D01*
X96235990Y-77805204D01*
X96236462Y-77809999D01*
X96237806Y-77814428D01*
X96239986Y-77818507D01*
X96242919Y-77822081D01*
X96246493Y-77825014D01*
X96250572Y-77827194D01*
X96255001Y-77828538D01*
X96259694Y-77829000D01*
X97880306Y-77829000D01*
X97884999Y-77828538D01*
X97889428Y-77827194D01*
X97893507Y-77825014D01*
X97897081Y-77822081D01*
X97900014Y-77818507D01*
X97902194Y-77814428D01*
X97903538Y-77809999D01*
X97904010Y-77805204D01*
X97905175Y-77803578D01*
X97907165Y-77803774D01*
G37*
G36*
X92167165Y-77803774D02*
G01*
X92168000Y-77805400D01*
X92168000Y-77994600D01*
X92167000Y-77996332D01*
X92165000Y-77996332D01*
X92164010Y-77994796D01*
X92163538Y-77990001D01*
X92162194Y-77985572D01*
X92160014Y-77981493D01*
X92157081Y-77977919D01*
X92153507Y-77974986D01*
X92149428Y-77972806D01*
X92144999Y-77971462D01*
X92140306Y-77971000D01*
X90519694Y-77971000D01*
X90515001Y-77971462D01*
X90510572Y-77972806D01*
X90506493Y-77974986D01*
X90502919Y-77977919D01*
X90499986Y-77981493D01*
X90497806Y-77985572D01*
X90496462Y-77990001D01*
X90495990Y-77994796D01*
X90494825Y-77996422D01*
X90492835Y-77996226D01*
X90492000Y-77994600D01*
X90492000Y-77805400D01*
X90493000Y-77803668D01*
X90495000Y-77803668D01*
X90495990Y-77805204D01*
X90496462Y-77809999D01*
X90497806Y-77814428D01*
X90499986Y-77818507D01*
X90502919Y-77822081D01*
X90506493Y-77825014D01*
X90510572Y-77827194D01*
X90515001Y-77828538D01*
X90519694Y-77829000D01*
X92140306Y-77829000D01*
X92144999Y-77828538D01*
X92149428Y-77827194D01*
X92153507Y-77825014D01*
X92157081Y-77822081D01*
X92160014Y-77818507D01*
X92162194Y-77814428D01*
X92163538Y-77809999D01*
X92164010Y-77805204D01*
X92165175Y-77803578D01*
X92167165Y-77803774D01*
G37*
G36*
X124307165Y-77478774D02*
G01*
X124308000Y-77480400D01*
X124308000Y-77669600D01*
X124307000Y-77671332D01*
X124305000Y-77671332D01*
X124304010Y-77669796D01*
X124303538Y-77665001D01*
X124302194Y-77660572D01*
X124300014Y-77656493D01*
X124297081Y-77652919D01*
X124293507Y-77649986D01*
X124289428Y-77647806D01*
X124284999Y-77646462D01*
X124280306Y-77646000D01*
X122659694Y-77646000D01*
X122655001Y-77646462D01*
X122650572Y-77647806D01*
X122646493Y-77649986D01*
X122642919Y-77652919D01*
X122639986Y-77656493D01*
X122637806Y-77660572D01*
X122636462Y-77665001D01*
X122635990Y-77669796D01*
X122634825Y-77671422D01*
X122632835Y-77671226D01*
X122632000Y-77669600D01*
X122632000Y-77480400D01*
X122633000Y-77478668D01*
X122635000Y-77478668D01*
X122635990Y-77480204D01*
X122636462Y-77484999D01*
X122637806Y-77489428D01*
X122639986Y-77493507D01*
X122642919Y-77497081D01*
X122646493Y-77500014D01*
X122650572Y-77502194D01*
X122655001Y-77503538D01*
X122659694Y-77504000D01*
X124280306Y-77504000D01*
X124284999Y-77503538D01*
X124289428Y-77502194D01*
X124293507Y-77500014D01*
X124297081Y-77497081D01*
X124300014Y-77493507D01*
X124302194Y-77489428D01*
X124303538Y-77484999D01*
X124304010Y-77480204D01*
X124305175Y-77478578D01*
X124307165Y-77478774D01*
G37*
G36*
X118567165Y-77478774D02*
G01*
X118568000Y-77480400D01*
X118568000Y-77669600D01*
X118567000Y-77671332D01*
X118565000Y-77671332D01*
X118564010Y-77669796D01*
X118563538Y-77665001D01*
X118562194Y-77660572D01*
X118560014Y-77656493D01*
X118557081Y-77652919D01*
X118553507Y-77649986D01*
X118549428Y-77647806D01*
X118544999Y-77646462D01*
X118540306Y-77646000D01*
X116919694Y-77646000D01*
X116915001Y-77646462D01*
X116910572Y-77647806D01*
X116906493Y-77649986D01*
X116902919Y-77652919D01*
X116899986Y-77656493D01*
X116897806Y-77660572D01*
X116896462Y-77665001D01*
X116895990Y-77669796D01*
X116894825Y-77671422D01*
X116892835Y-77671226D01*
X116892000Y-77669600D01*
X116892000Y-77480400D01*
X116893000Y-77478668D01*
X116895000Y-77478668D01*
X116895990Y-77480204D01*
X116896462Y-77484999D01*
X116897806Y-77489428D01*
X116899986Y-77493507D01*
X116902919Y-77497081D01*
X116906493Y-77500014D01*
X116910572Y-77502194D01*
X116915001Y-77503538D01*
X116919694Y-77504000D01*
X118540306Y-77504000D01*
X118544999Y-77503538D01*
X118549428Y-77502194D01*
X118553507Y-77500014D01*
X118557081Y-77497081D01*
X118560014Y-77493507D01*
X118562194Y-77489428D01*
X118563538Y-77484999D01*
X118564010Y-77480204D01*
X118565175Y-77478578D01*
X118567165Y-77478774D01*
G37*
G36*
X97907165Y-77153774D02*
G01*
X97908000Y-77155400D01*
X97908000Y-77344600D01*
X97907000Y-77346332D01*
X97905000Y-77346332D01*
X97904010Y-77344796D01*
X97903538Y-77340001D01*
X97902194Y-77335572D01*
X97900014Y-77331493D01*
X97897081Y-77327919D01*
X97893507Y-77324986D01*
X97889428Y-77322806D01*
X97884999Y-77321462D01*
X97880306Y-77321000D01*
X96259694Y-77321000D01*
X96255001Y-77321462D01*
X96250572Y-77322806D01*
X96246493Y-77324986D01*
X96242919Y-77327919D01*
X96239986Y-77331493D01*
X96237806Y-77335572D01*
X96236462Y-77340001D01*
X96235990Y-77344796D01*
X96234825Y-77346422D01*
X96232835Y-77346226D01*
X96232000Y-77344600D01*
X96232000Y-77155400D01*
X96233000Y-77153668D01*
X96235000Y-77153668D01*
X96235990Y-77155204D01*
X96236462Y-77159999D01*
X96237806Y-77164428D01*
X96239986Y-77168507D01*
X96242919Y-77172081D01*
X96246493Y-77175014D01*
X96250572Y-77177194D01*
X96255001Y-77178538D01*
X96259694Y-77179000D01*
X97880306Y-77179000D01*
X97884999Y-77178538D01*
X97889428Y-77177194D01*
X97893507Y-77175014D01*
X97897081Y-77172081D01*
X97900014Y-77168507D01*
X97902194Y-77164428D01*
X97903538Y-77159999D01*
X97904010Y-77155204D01*
X97905175Y-77153578D01*
X97907165Y-77153774D01*
G37*
G36*
X92167165Y-77153774D02*
G01*
X92168000Y-77155400D01*
X92168000Y-77344600D01*
X92167000Y-77346332D01*
X92165000Y-77346332D01*
X92164010Y-77344796D01*
X92163538Y-77340001D01*
X92162194Y-77335572D01*
X92160014Y-77331493D01*
X92157081Y-77327919D01*
X92153507Y-77324986D01*
X92149428Y-77322806D01*
X92144999Y-77321462D01*
X92140306Y-77321000D01*
X90519694Y-77321000D01*
X90515001Y-77321462D01*
X90510572Y-77322806D01*
X90506493Y-77324986D01*
X90502919Y-77327919D01*
X90499986Y-77331493D01*
X90497806Y-77335572D01*
X90496462Y-77340001D01*
X90495990Y-77344796D01*
X90494825Y-77346422D01*
X90492835Y-77346226D01*
X90492000Y-77344600D01*
X90492000Y-77155400D01*
X90493000Y-77153668D01*
X90495000Y-77153668D01*
X90495990Y-77155204D01*
X90496462Y-77159999D01*
X90497806Y-77164428D01*
X90499986Y-77168507D01*
X90502919Y-77172081D01*
X90506493Y-77175014D01*
X90510572Y-77177194D01*
X90515001Y-77178538D01*
X90519694Y-77179000D01*
X92140306Y-77179000D01*
X92144999Y-77178538D01*
X92149428Y-77177194D01*
X92153507Y-77175014D01*
X92157081Y-77172081D01*
X92160014Y-77168507D01*
X92162194Y-77164428D01*
X92163538Y-77159999D01*
X92164010Y-77155204D01*
X92165175Y-77153578D01*
X92167165Y-77153774D01*
G37*
G36*
X124307165Y-76828774D02*
G01*
X124308000Y-76830400D01*
X124308000Y-77019600D01*
X124307000Y-77021332D01*
X124305000Y-77021332D01*
X124304010Y-77019796D01*
X124303538Y-77015001D01*
X124302194Y-77010572D01*
X124300014Y-77006493D01*
X124297081Y-77002919D01*
X124293507Y-76999986D01*
X124289428Y-76997806D01*
X124284999Y-76996462D01*
X124280306Y-76996000D01*
X122659694Y-76996000D01*
X122655001Y-76996462D01*
X122650572Y-76997806D01*
X122646493Y-76999986D01*
X122642919Y-77002919D01*
X122639986Y-77006493D01*
X122637806Y-77010572D01*
X122636462Y-77015001D01*
X122635990Y-77019796D01*
X122634825Y-77021422D01*
X122632835Y-77021226D01*
X122632000Y-77019600D01*
X122632000Y-76830400D01*
X122633000Y-76828668D01*
X122635000Y-76828668D01*
X122635990Y-76830204D01*
X122636462Y-76834999D01*
X122637806Y-76839428D01*
X122639986Y-76843507D01*
X122642919Y-76847081D01*
X122646493Y-76850014D01*
X122650572Y-76852194D01*
X122655001Y-76853538D01*
X122659694Y-76854000D01*
X124280306Y-76854000D01*
X124284999Y-76853538D01*
X124289428Y-76852194D01*
X124293507Y-76850014D01*
X124297081Y-76847081D01*
X124300014Y-76843507D01*
X124302194Y-76839428D01*
X124303538Y-76834999D01*
X124304010Y-76830204D01*
X124305175Y-76828578D01*
X124307165Y-76828774D01*
G37*
G36*
X118567165Y-76828774D02*
G01*
X118568000Y-76830400D01*
X118568000Y-77019600D01*
X118567000Y-77021332D01*
X118565000Y-77021332D01*
X118564010Y-77019796D01*
X118563538Y-77015001D01*
X118562194Y-77010572D01*
X118560014Y-77006493D01*
X118557081Y-77002919D01*
X118553507Y-76999986D01*
X118549428Y-76997806D01*
X118544999Y-76996462D01*
X118540306Y-76996000D01*
X116919694Y-76996000D01*
X116915001Y-76996462D01*
X116910572Y-76997806D01*
X116906493Y-76999986D01*
X116902919Y-77002919D01*
X116899986Y-77006493D01*
X116897806Y-77010572D01*
X116896462Y-77015001D01*
X116895990Y-77019796D01*
X116894825Y-77021422D01*
X116892835Y-77021226D01*
X116892000Y-77019600D01*
X116892000Y-76830400D01*
X116893000Y-76828668D01*
X116895000Y-76828668D01*
X116895990Y-76830204D01*
X116896462Y-76834999D01*
X116897806Y-76839428D01*
X116899986Y-76843507D01*
X116902919Y-76847081D01*
X116906493Y-76850014D01*
X116910572Y-76852194D01*
X116915001Y-76853538D01*
X116919694Y-76854000D01*
X118540306Y-76854000D01*
X118544999Y-76853538D01*
X118549428Y-76852194D01*
X118553507Y-76850014D01*
X118557081Y-76847081D01*
X118560014Y-76843507D01*
X118562194Y-76839428D01*
X118563538Y-76834999D01*
X118564010Y-76830204D01*
X118565175Y-76828578D01*
X118567165Y-76828774D01*
G37*
G36*
X97907165Y-76503774D02*
G01*
X97908000Y-76505400D01*
X97908000Y-76694600D01*
X97907000Y-76696332D01*
X97905000Y-76696332D01*
X97904010Y-76694796D01*
X97903538Y-76690001D01*
X97902194Y-76685572D01*
X97900014Y-76681493D01*
X97897081Y-76677919D01*
X97893507Y-76674986D01*
X97889428Y-76672806D01*
X97884999Y-76671462D01*
X97880306Y-76671000D01*
X96259694Y-76671000D01*
X96255001Y-76671462D01*
X96250572Y-76672806D01*
X96246493Y-76674986D01*
X96242919Y-76677919D01*
X96239986Y-76681493D01*
X96237806Y-76685572D01*
X96236462Y-76690001D01*
X96235990Y-76694796D01*
X96234825Y-76696422D01*
X96232835Y-76696226D01*
X96232000Y-76694600D01*
X96232000Y-76505400D01*
X96233000Y-76503668D01*
X96235000Y-76503668D01*
X96235990Y-76505204D01*
X96236462Y-76509999D01*
X96237806Y-76514428D01*
X96239986Y-76518507D01*
X96242919Y-76522081D01*
X96246493Y-76525014D01*
X96250572Y-76527194D01*
X96255001Y-76528538D01*
X96259694Y-76529000D01*
X97880306Y-76529000D01*
X97884999Y-76528538D01*
X97889428Y-76527194D01*
X97893507Y-76525014D01*
X97897081Y-76522081D01*
X97900014Y-76518507D01*
X97902194Y-76514428D01*
X97903538Y-76509999D01*
X97904010Y-76505204D01*
X97905175Y-76503578D01*
X97907165Y-76503774D01*
G37*
G36*
X92167165Y-76503774D02*
G01*
X92168000Y-76505400D01*
X92168000Y-76694600D01*
X92167000Y-76696332D01*
X92165000Y-76696332D01*
X92164010Y-76694796D01*
X92163538Y-76690001D01*
X92162194Y-76685572D01*
X92160014Y-76681493D01*
X92157081Y-76677919D01*
X92153507Y-76674986D01*
X92149428Y-76672806D01*
X92144999Y-76671462D01*
X92140306Y-76671000D01*
X90519694Y-76671000D01*
X90515001Y-76671462D01*
X90510572Y-76672806D01*
X90506493Y-76674986D01*
X90502919Y-76677919D01*
X90499986Y-76681493D01*
X90497806Y-76685572D01*
X90496462Y-76690001D01*
X90495990Y-76694796D01*
X90494825Y-76696422D01*
X90492835Y-76696226D01*
X90492000Y-76694600D01*
X90492000Y-76505400D01*
X90493000Y-76503668D01*
X90495000Y-76503668D01*
X90495990Y-76505204D01*
X90496462Y-76509999D01*
X90497806Y-76514428D01*
X90499986Y-76518507D01*
X90502919Y-76522081D01*
X90506493Y-76525014D01*
X90510572Y-76527194D01*
X90515001Y-76528538D01*
X90519694Y-76529000D01*
X92140306Y-76529000D01*
X92144999Y-76528538D01*
X92149428Y-76527194D01*
X92153507Y-76525014D01*
X92157081Y-76522081D01*
X92160014Y-76518507D01*
X92162194Y-76514428D01*
X92163538Y-76509999D01*
X92164010Y-76505204D01*
X92165175Y-76503578D01*
X92167165Y-76503774D01*
G37*
G36*
X118567165Y-76178774D02*
G01*
X118568000Y-76180400D01*
X118568000Y-76369600D01*
X118567000Y-76371332D01*
X118565000Y-76371332D01*
X118564010Y-76369796D01*
X118563538Y-76365001D01*
X118562194Y-76360572D01*
X118560014Y-76356493D01*
X118557081Y-76352919D01*
X118553507Y-76349986D01*
X118549428Y-76347806D01*
X118544999Y-76346462D01*
X118540306Y-76346000D01*
X116919694Y-76346000D01*
X116915001Y-76346462D01*
X116910572Y-76347806D01*
X116906493Y-76349986D01*
X116902919Y-76352919D01*
X116899986Y-76356493D01*
X116897806Y-76360572D01*
X116896462Y-76365001D01*
X116895990Y-76369796D01*
X116894825Y-76371422D01*
X116892835Y-76371226D01*
X116892000Y-76369600D01*
X116892000Y-76180400D01*
X116893000Y-76178668D01*
X116895000Y-76178668D01*
X116895990Y-76180204D01*
X116896462Y-76184999D01*
X116897806Y-76189428D01*
X116899986Y-76193507D01*
X116902919Y-76197081D01*
X116906493Y-76200014D01*
X116910572Y-76202194D01*
X116915001Y-76203538D01*
X116919694Y-76204000D01*
X118540306Y-76204000D01*
X118544999Y-76203538D01*
X118549428Y-76202194D01*
X118553507Y-76200014D01*
X118557081Y-76197081D01*
X118560014Y-76193507D01*
X118562194Y-76189428D01*
X118563538Y-76184999D01*
X118564010Y-76180204D01*
X118565175Y-76178578D01*
X118567165Y-76178774D01*
G37*
G36*
X124307165Y-76178774D02*
G01*
X124308000Y-76180400D01*
X124308000Y-76369600D01*
X124307000Y-76371332D01*
X124305000Y-76371332D01*
X124304010Y-76369796D01*
X124303538Y-76365001D01*
X124302194Y-76360572D01*
X124300014Y-76356493D01*
X124297081Y-76352919D01*
X124293507Y-76349986D01*
X124289428Y-76347806D01*
X124284999Y-76346462D01*
X124280306Y-76346000D01*
X122659694Y-76346000D01*
X122655001Y-76346462D01*
X122650572Y-76347806D01*
X122646493Y-76349986D01*
X122642919Y-76352919D01*
X122639986Y-76356493D01*
X122637806Y-76360572D01*
X122636462Y-76365001D01*
X122635990Y-76369796D01*
X122634825Y-76371422D01*
X122632835Y-76371226D01*
X122632000Y-76369600D01*
X122632000Y-76180400D01*
X122633000Y-76178668D01*
X122635000Y-76178668D01*
X122635990Y-76180204D01*
X122636462Y-76184999D01*
X122637806Y-76189428D01*
X122639986Y-76193507D01*
X122642919Y-76197081D01*
X122646493Y-76200014D01*
X122650572Y-76202194D01*
X122655001Y-76203538D01*
X122659694Y-76204000D01*
X124280306Y-76204000D01*
X124284999Y-76203538D01*
X124289428Y-76202194D01*
X124293507Y-76200014D01*
X124297081Y-76197081D01*
X124300014Y-76193507D01*
X124302194Y-76189428D01*
X124303538Y-76184999D01*
X124304010Y-76180204D01*
X124305175Y-76178578D01*
X124307165Y-76178774D01*
G37*
G36*
X92167165Y-75853774D02*
G01*
X92168000Y-75855400D01*
X92168000Y-76044600D01*
X92167000Y-76046332D01*
X92165000Y-76046332D01*
X92164010Y-76044796D01*
X92163538Y-76040001D01*
X92162194Y-76035572D01*
X92160014Y-76031493D01*
X92157081Y-76027919D01*
X92153507Y-76024986D01*
X92149428Y-76022806D01*
X92144999Y-76021462D01*
X92140306Y-76021000D01*
X90519694Y-76021000D01*
X90515001Y-76021462D01*
X90510572Y-76022806D01*
X90506493Y-76024986D01*
X90502919Y-76027919D01*
X90499986Y-76031493D01*
X90497806Y-76035572D01*
X90496462Y-76040001D01*
X90495990Y-76044796D01*
X90494825Y-76046422D01*
X90492835Y-76046226D01*
X90492000Y-76044600D01*
X90492000Y-75855400D01*
X90493000Y-75853668D01*
X90495000Y-75853668D01*
X90495990Y-75855204D01*
X90496462Y-75859999D01*
X90497806Y-75864428D01*
X90499986Y-75868507D01*
X90502919Y-75872081D01*
X90506493Y-75875014D01*
X90510572Y-75877194D01*
X90515001Y-75878538D01*
X90519694Y-75879000D01*
X92140306Y-75879000D01*
X92144999Y-75878538D01*
X92149428Y-75877194D01*
X92153507Y-75875014D01*
X92157081Y-75872081D01*
X92160014Y-75868507D01*
X92162194Y-75864428D01*
X92163538Y-75859999D01*
X92164010Y-75855204D01*
X92165175Y-75853578D01*
X92167165Y-75853774D01*
G37*
G36*
X97907165Y-75853774D02*
G01*
X97908000Y-75855400D01*
X97908000Y-76044600D01*
X97907000Y-76046332D01*
X97905000Y-76046332D01*
X97904010Y-76044796D01*
X97903538Y-76040001D01*
X97902194Y-76035572D01*
X97900014Y-76031493D01*
X97897081Y-76027919D01*
X97893507Y-76024986D01*
X97889428Y-76022806D01*
X97884999Y-76021462D01*
X97880306Y-76021000D01*
X96259694Y-76021000D01*
X96255001Y-76021462D01*
X96250572Y-76022806D01*
X96246493Y-76024986D01*
X96242919Y-76027919D01*
X96239986Y-76031493D01*
X96237806Y-76035572D01*
X96236462Y-76040001D01*
X96235990Y-76044796D01*
X96234825Y-76046422D01*
X96232835Y-76046226D01*
X96232000Y-76044600D01*
X96232000Y-75855400D01*
X96233000Y-75853668D01*
X96235000Y-75853668D01*
X96235990Y-75855204D01*
X96236462Y-75859999D01*
X96237806Y-75864428D01*
X96239986Y-75868507D01*
X96242919Y-75872081D01*
X96246493Y-75875014D01*
X96250572Y-75877194D01*
X96255001Y-75878538D01*
X96259694Y-75879000D01*
X97880306Y-75879000D01*
X97884999Y-75878538D01*
X97889428Y-75877194D01*
X97893507Y-75875014D01*
X97897081Y-75872081D01*
X97900014Y-75868507D01*
X97902194Y-75864428D01*
X97903538Y-75859999D01*
X97904010Y-75855204D01*
X97905175Y-75853578D01*
X97907165Y-75853774D01*
G37*
G36*
X64600732Y-74693000D02*
G01*
X64601000Y-74694000D01*
X64601000Y-75856000D01*
X64600000Y-75857732D01*
X64599000Y-75858000D01*
X64401000Y-75858000D01*
X64399268Y-75857000D01*
X64399000Y-75856000D01*
X64399000Y-74694000D01*
X64400000Y-74692268D01*
X64401000Y-74692000D01*
X64599000Y-74692000D01*
X64600732Y-74693000D01*
G37*
G36*
X63650732Y-74693000D02*
G01*
X63651000Y-74694000D01*
X63651000Y-75856000D01*
X63650000Y-75857732D01*
X63649000Y-75858000D01*
X63451000Y-75858000D01*
X63449268Y-75857000D01*
X63449000Y-75856000D01*
X63449000Y-74694000D01*
X63450000Y-74692268D01*
X63451000Y-74692000D01*
X63649000Y-74692000D01*
X63650732Y-74693000D01*
G37*
G36*
X124307165Y-75528774D02*
G01*
X124308000Y-75530400D01*
X124308000Y-75719600D01*
X124307000Y-75721332D01*
X124305000Y-75721332D01*
X124304010Y-75719796D01*
X124303538Y-75715001D01*
X124302194Y-75710572D01*
X124300014Y-75706493D01*
X124297081Y-75702919D01*
X124293507Y-75699986D01*
X124289428Y-75697806D01*
X124284999Y-75696462D01*
X124280306Y-75696000D01*
X122659694Y-75696000D01*
X122655001Y-75696462D01*
X122650572Y-75697806D01*
X122646493Y-75699986D01*
X122642919Y-75702919D01*
X122639986Y-75706493D01*
X122637806Y-75710572D01*
X122636462Y-75715001D01*
X122635990Y-75719796D01*
X122634825Y-75721422D01*
X122632835Y-75721226D01*
X122632000Y-75719600D01*
X122632000Y-75530400D01*
X122633000Y-75528668D01*
X122635000Y-75528668D01*
X122635990Y-75530204D01*
X122636462Y-75534999D01*
X122637806Y-75539428D01*
X122639986Y-75543507D01*
X122642919Y-75547081D01*
X122646493Y-75550014D01*
X122650572Y-75552194D01*
X122655001Y-75553538D01*
X122659694Y-75554000D01*
X124280306Y-75554000D01*
X124284999Y-75553538D01*
X124289428Y-75552194D01*
X124293507Y-75550014D01*
X124297081Y-75547081D01*
X124300014Y-75543507D01*
X124302194Y-75539428D01*
X124303538Y-75534999D01*
X124304010Y-75530204D01*
X124305175Y-75528578D01*
X124307165Y-75528774D01*
G37*
G36*
X118567165Y-75528774D02*
G01*
X118568000Y-75530400D01*
X118568000Y-75719600D01*
X118567000Y-75721332D01*
X118565000Y-75721332D01*
X118564010Y-75719796D01*
X118563538Y-75715001D01*
X118562194Y-75710572D01*
X118560014Y-75706493D01*
X118557081Y-75702919D01*
X118553507Y-75699986D01*
X118549428Y-75697806D01*
X118544999Y-75696462D01*
X118540306Y-75696000D01*
X116919694Y-75696000D01*
X116915001Y-75696462D01*
X116910572Y-75697806D01*
X116906493Y-75699986D01*
X116902919Y-75702919D01*
X116899986Y-75706493D01*
X116897806Y-75710572D01*
X116896462Y-75715001D01*
X116895990Y-75719796D01*
X116894825Y-75721422D01*
X116892835Y-75721226D01*
X116892000Y-75719600D01*
X116892000Y-75530400D01*
X116893000Y-75528668D01*
X116895000Y-75528668D01*
X116895990Y-75530204D01*
X116896462Y-75534999D01*
X116897806Y-75539428D01*
X116899986Y-75543507D01*
X116902919Y-75547081D01*
X116906493Y-75550014D01*
X116910572Y-75552194D01*
X116915001Y-75553538D01*
X116919694Y-75554000D01*
X118540306Y-75554000D01*
X118544999Y-75553538D01*
X118549428Y-75552194D01*
X118553507Y-75550014D01*
X118557081Y-75547081D01*
X118560014Y-75543507D01*
X118562194Y-75539428D01*
X118563538Y-75534999D01*
X118564010Y-75530204D01*
X118565175Y-75528578D01*
X118567165Y-75528774D01*
G37*
G36*
X92167165Y-75203774D02*
G01*
X92168000Y-75205400D01*
X92168000Y-75394600D01*
X92167000Y-75396332D01*
X92165000Y-75396332D01*
X92164010Y-75394796D01*
X92163538Y-75390001D01*
X92162194Y-75385572D01*
X92160014Y-75381493D01*
X92157081Y-75377919D01*
X92153507Y-75374986D01*
X92149428Y-75372806D01*
X92144999Y-75371462D01*
X92140306Y-75371000D01*
X90519694Y-75371000D01*
X90515001Y-75371462D01*
X90510572Y-75372806D01*
X90506493Y-75374986D01*
X90502919Y-75377919D01*
X90499986Y-75381493D01*
X90497806Y-75385572D01*
X90496462Y-75390001D01*
X90495990Y-75394796D01*
X90494825Y-75396422D01*
X90492835Y-75396226D01*
X90492000Y-75394600D01*
X90492000Y-75205400D01*
X90493000Y-75203668D01*
X90495000Y-75203668D01*
X90495990Y-75205204D01*
X90496462Y-75209999D01*
X90497806Y-75214428D01*
X90499986Y-75218507D01*
X90502919Y-75222081D01*
X90506493Y-75225014D01*
X90510572Y-75227194D01*
X90515001Y-75228538D01*
X90519694Y-75229000D01*
X92140306Y-75229000D01*
X92144999Y-75228538D01*
X92149428Y-75227194D01*
X92153507Y-75225014D01*
X92157081Y-75222081D01*
X92160014Y-75218507D01*
X92162194Y-75214428D01*
X92163538Y-75209999D01*
X92164010Y-75205204D01*
X92165175Y-75203578D01*
X92167165Y-75203774D01*
G37*
G36*
X97907165Y-75203774D02*
G01*
X97908000Y-75205400D01*
X97908000Y-75394600D01*
X97907000Y-75396332D01*
X97905000Y-75396332D01*
X97904010Y-75394796D01*
X97903538Y-75390001D01*
X97902194Y-75385572D01*
X97900014Y-75381493D01*
X97897081Y-75377919D01*
X97893507Y-75374986D01*
X97889428Y-75372806D01*
X97884999Y-75371462D01*
X97880306Y-75371000D01*
X96259694Y-75371000D01*
X96255001Y-75371462D01*
X96250572Y-75372806D01*
X96246493Y-75374986D01*
X96242919Y-75377919D01*
X96239986Y-75381493D01*
X96237806Y-75385572D01*
X96236462Y-75390001D01*
X96235990Y-75394796D01*
X96234825Y-75396422D01*
X96232835Y-75396226D01*
X96232000Y-75394600D01*
X96232000Y-75205400D01*
X96233000Y-75203668D01*
X96235000Y-75203668D01*
X96235990Y-75205204D01*
X96236462Y-75209999D01*
X96237806Y-75214428D01*
X96239986Y-75218507D01*
X96242919Y-75222081D01*
X96246493Y-75225014D01*
X96250572Y-75227194D01*
X96255001Y-75228538D01*
X96259694Y-75229000D01*
X97880306Y-75229000D01*
X97884999Y-75228538D01*
X97889428Y-75227194D01*
X97893507Y-75225014D01*
X97897081Y-75222081D01*
X97900014Y-75218507D01*
X97902194Y-75214428D01*
X97903538Y-75209999D01*
X97904010Y-75205204D01*
X97905175Y-75203578D01*
X97907165Y-75203774D01*
G37*
G36*
X124307165Y-74878774D02*
G01*
X124308000Y-74880400D01*
X124308000Y-75069600D01*
X124307000Y-75071332D01*
X124305000Y-75071332D01*
X124304010Y-75069796D01*
X124303538Y-75065001D01*
X124302194Y-75060572D01*
X124300014Y-75056493D01*
X124297081Y-75052919D01*
X124293507Y-75049986D01*
X124289428Y-75047806D01*
X124284999Y-75046462D01*
X124280306Y-75046000D01*
X122659694Y-75046000D01*
X122655001Y-75046462D01*
X122650572Y-75047806D01*
X122646493Y-75049986D01*
X122642919Y-75052919D01*
X122639986Y-75056493D01*
X122637806Y-75060572D01*
X122636462Y-75065001D01*
X122635990Y-75069796D01*
X122634825Y-75071422D01*
X122632835Y-75071226D01*
X122632000Y-75069600D01*
X122632000Y-74880400D01*
X122633000Y-74878668D01*
X122635000Y-74878668D01*
X122635990Y-74880204D01*
X122636462Y-74884999D01*
X122637806Y-74889428D01*
X122639986Y-74893507D01*
X122642919Y-74897081D01*
X122646493Y-74900014D01*
X122650572Y-74902194D01*
X122655001Y-74903538D01*
X122659694Y-74904000D01*
X124280306Y-74904000D01*
X124284999Y-74903538D01*
X124289428Y-74902194D01*
X124293507Y-74900014D01*
X124297081Y-74897081D01*
X124300014Y-74893507D01*
X124302194Y-74889428D01*
X124303538Y-74884999D01*
X124304010Y-74880204D01*
X124305175Y-74878578D01*
X124307165Y-74878774D01*
G37*
G36*
X118567165Y-74878774D02*
G01*
X118568000Y-74880400D01*
X118568000Y-75069600D01*
X118567000Y-75071332D01*
X118565000Y-75071332D01*
X118564010Y-75069796D01*
X118563538Y-75065001D01*
X118562194Y-75060572D01*
X118560014Y-75056493D01*
X118557081Y-75052919D01*
X118553507Y-75049986D01*
X118549428Y-75047806D01*
X118544999Y-75046462D01*
X118540306Y-75046000D01*
X116919694Y-75046000D01*
X116915001Y-75046462D01*
X116910572Y-75047806D01*
X116906493Y-75049986D01*
X116902919Y-75052919D01*
X116899986Y-75056493D01*
X116897806Y-75060572D01*
X116896462Y-75065001D01*
X116895990Y-75069796D01*
X116894825Y-75071422D01*
X116892835Y-75071226D01*
X116892000Y-75069600D01*
X116892000Y-74880400D01*
X116893000Y-74878668D01*
X116895000Y-74878668D01*
X116895990Y-74880204D01*
X116896462Y-74884999D01*
X116897806Y-74889428D01*
X116899986Y-74893507D01*
X116902919Y-74897081D01*
X116906493Y-74900014D01*
X116910572Y-74902194D01*
X116915001Y-74903538D01*
X116919694Y-74904000D01*
X118540306Y-74904000D01*
X118544999Y-74903538D01*
X118549428Y-74902194D01*
X118553507Y-74900014D01*
X118557081Y-74897081D01*
X118560014Y-74893507D01*
X118562194Y-74889428D01*
X118563538Y-74884999D01*
X118564010Y-74880204D01*
X118565175Y-74878578D01*
X118567165Y-74878774D01*
G37*
G36*
X97907165Y-74553774D02*
G01*
X97908000Y-74555400D01*
X97908000Y-74744600D01*
X97907000Y-74746332D01*
X97905000Y-74746332D01*
X97904010Y-74744796D01*
X97903538Y-74740001D01*
X97902194Y-74735572D01*
X97900014Y-74731493D01*
X97897081Y-74727919D01*
X97893507Y-74724986D01*
X97889428Y-74722806D01*
X97884999Y-74721462D01*
X97880306Y-74721000D01*
X96259694Y-74721000D01*
X96255001Y-74721462D01*
X96250572Y-74722806D01*
X96246493Y-74724986D01*
X96242919Y-74727919D01*
X96239986Y-74731493D01*
X96237806Y-74735572D01*
X96236462Y-74740001D01*
X96235990Y-74744796D01*
X96234825Y-74746422D01*
X96232835Y-74746226D01*
X96232000Y-74744600D01*
X96232000Y-74555400D01*
X96233000Y-74553668D01*
X96235000Y-74553668D01*
X96235990Y-74555204D01*
X96236462Y-74559999D01*
X96237806Y-74564428D01*
X96239986Y-74568507D01*
X96242919Y-74572081D01*
X96246493Y-74575014D01*
X96250572Y-74577194D01*
X96255001Y-74578538D01*
X96259694Y-74579000D01*
X97880306Y-74579000D01*
X97884999Y-74578538D01*
X97889428Y-74577194D01*
X97893507Y-74575014D01*
X97897081Y-74572081D01*
X97900014Y-74568507D01*
X97902194Y-74564428D01*
X97903538Y-74559999D01*
X97904010Y-74555204D01*
X97905175Y-74553578D01*
X97907165Y-74553774D01*
G37*
G36*
X92167165Y-74553774D02*
G01*
X92168000Y-74555400D01*
X92168000Y-74744600D01*
X92167000Y-74746332D01*
X92165000Y-74746332D01*
X92164010Y-74744796D01*
X92163538Y-74740001D01*
X92162194Y-74735572D01*
X92160014Y-74731493D01*
X92157081Y-74727919D01*
X92153507Y-74724986D01*
X92149428Y-74722806D01*
X92144999Y-74721462D01*
X92140306Y-74721000D01*
X90519694Y-74721000D01*
X90515001Y-74721462D01*
X90510572Y-74722806D01*
X90506493Y-74724986D01*
X90502919Y-74727919D01*
X90499986Y-74731493D01*
X90497806Y-74735572D01*
X90496462Y-74740001D01*
X90495990Y-74744796D01*
X90494825Y-74746422D01*
X90492835Y-74746226D01*
X90492000Y-74744600D01*
X90492000Y-74555400D01*
X90493000Y-74553668D01*
X90495000Y-74553668D01*
X90495990Y-74555204D01*
X90496462Y-74559999D01*
X90497806Y-74564428D01*
X90499986Y-74568507D01*
X90502919Y-74572081D01*
X90506493Y-74575014D01*
X90510572Y-74577194D01*
X90515001Y-74578538D01*
X90519694Y-74579000D01*
X92140306Y-74579000D01*
X92144999Y-74578538D01*
X92149428Y-74577194D01*
X92153507Y-74575014D01*
X92157081Y-74572081D01*
X92160014Y-74568507D01*
X92162194Y-74564428D01*
X92163538Y-74559999D01*
X92164010Y-74555204D01*
X92165175Y-74553578D01*
X92167165Y-74553774D01*
G37*
G36*
X97907165Y-73903774D02*
G01*
X97908000Y-73905400D01*
X97908000Y-74094600D01*
X97907000Y-74096332D01*
X97905000Y-74096332D01*
X97904010Y-74094796D01*
X97903538Y-74090001D01*
X97902194Y-74085572D01*
X97900014Y-74081493D01*
X97897081Y-74077919D01*
X97893507Y-74074986D01*
X97889428Y-74072806D01*
X97884999Y-74071462D01*
X97880306Y-74071000D01*
X96259694Y-74071000D01*
X96255001Y-74071462D01*
X96250572Y-74072806D01*
X96246493Y-74074986D01*
X96242919Y-74077919D01*
X96239986Y-74081493D01*
X96237806Y-74085572D01*
X96236462Y-74090001D01*
X96235990Y-74094796D01*
X96234825Y-74096422D01*
X96232835Y-74096226D01*
X96232000Y-74094600D01*
X96232000Y-73905400D01*
X96233000Y-73903668D01*
X96235000Y-73903668D01*
X96235990Y-73905204D01*
X96236462Y-73909999D01*
X96237806Y-73914428D01*
X96239986Y-73918507D01*
X96242919Y-73922081D01*
X96246493Y-73925014D01*
X96250572Y-73927194D01*
X96255001Y-73928538D01*
X96259694Y-73929000D01*
X97880306Y-73929000D01*
X97884999Y-73928538D01*
X97889428Y-73927194D01*
X97893507Y-73925014D01*
X97897081Y-73922081D01*
X97900014Y-73918507D01*
X97902194Y-73914428D01*
X97903538Y-73909999D01*
X97904010Y-73905204D01*
X97905175Y-73903578D01*
X97907165Y-73903774D01*
G37*
G36*
X92167165Y-73903774D02*
G01*
X92168000Y-73905400D01*
X92168000Y-74094600D01*
X92167000Y-74096332D01*
X92165000Y-74096332D01*
X92164010Y-74094796D01*
X92163538Y-74090001D01*
X92162194Y-74085572D01*
X92160014Y-74081493D01*
X92157081Y-74077919D01*
X92153507Y-74074986D01*
X92149428Y-74072806D01*
X92144999Y-74071462D01*
X92140306Y-74071000D01*
X90519694Y-74071000D01*
X90515001Y-74071462D01*
X90510572Y-74072806D01*
X90506493Y-74074986D01*
X90502919Y-74077919D01*
X90499986Y-74081493D01*
X90497806Y-74085572D01*
X90496462Y-74090001D01*
X90495990Y-74094796D01*
X90494825Y-74096422D01*
X90492835Y-74096226D01*
X90492000Y-74094600D01*
X90492000Y-73905400D01*
X90493000Y-73903668D01*
X90495000Y-73903668D01*
X90495990Y-73905204D01*
X90496462Y-73909999D01*
X90497806Y-73914428D01*
X90499986Y-73918507D01*
X90502919Y-73922081D01*
X90506493Y-73925014D01*
X90510572Y-73927194D01*
X90515001Y-73928538D01*
X90519694Y-73929000D01*
X92140306Y-73929000D01*
X92144999Y-73928538D01*
X92149428Y-73927194D01*
X92153507Y-73925014D01*
X92157081Y-73922081D01*
X92160014Y-73918507D01*
X92162194Y-73914428D01*
X92163538Y-73909999D01*
X92164010Y-73905204D01*
X92165175Y-73903578D01*
X92167165Y-73903774D01*
G37*
G36*
X92167165Y-73253774D02*
G01*
X92168000Y-73255400D01*
X92168000Y-73444600D01*
X92167000Y-73446332D01*
X92165000Y-73446332D01*
X92164010Y-73444796D01*
X92163538Y-73440001D01*
X92162194Y-73435572D01*
X92160014Y-73431493D01*
X92157081Y-73427919D01*
X92153507Y-73424986D01*
X92149428Y-73422806D01*
X92144999Y-73421462D01*
X92140306Y-73421000D01*
X90519694Y-73421000D01*
X90515001Y-73421462D01*
X90510572Y-73422806D01*
X90506493Y-73424986D01*
X90502919Y-73427919D01*
X90499986Y-73431493D01*
X90497806Y-73435572D01*
X90496462Y-73440001D01*
X90495990Y-73444796D01*
X90494825Y-73446422D01*
X90492835Y-73446226D01*
X90492000Y-73444600D01*
X90492000Y-73255400D01*
X90493000Y-73253668D01*
X90495000Y-73253668D01*
X90495990Y-73255204D01*
X90496462Y-73259999D01*
X90497806Y-73264428D01*
X90499986Y-73268507D01*
X90502919Y-73272081D01*
X90506493Y-73275014D01*
X90510572Y-73277194D01*
X90515001Y-73278538D01*
X90519694Y-73279000D01*
X92140306Y-73279000D01*
X92144999Y-73278538D01*
X92149428Y-73277194D01*
X92153507Y-73275014D01*
X92157081Y-73272081D01*
X92160014Y-73268507D01*
X92162194Y-73264428D01*
X92163538Y-73259999D01*
X92164010Y-73255204D01*
X92165175Y-73253578D01*
X92167165Y-73253774D01*
G37*
G36*
X97907165Y-73253774D02*
G01*
X97908000Y-73255400D01*
X97908000Y-73444600D01*
X97907000Y-73446332D01*
X97905000Y-73446332D01*
X97904010Y-73444796D01*
X97903538Y-73440001D01*
X97902194Y-73435572D01*
X97900014Y-73431493D01*
X97897081Y-73427919D01*
X97893507Y-73424986D01*
X97889428Y-73422806D01*
X97884999Y-73421462D01*
X97880306Y-73421000D01*
X96259694Y-73421000D01*
X96255001Y-73421462D01*
X96250572Y-73422806D01*
X96246493Y-73424986D01*
X96242919Y-73427919D01*
X96239986Y-73431493D01*
X96237806Y-73435572D01*
X96236462Y-73440001D01*
X96235990Y-73444796D01*
X96234825Y-73446422D01*
X96232835Y-73446226D01*
X96232000Y-73444600D01*
X96232000Y-73255400D01*
X96233000Y-73253668D01*
X96235000Y-73253668D01*
X96235990Y-73255204D01*
X96236462Y-73259999D01*
X96237806Y-73264428D01*
X96239986Y-73268507D01*
X96242919Y-73272081D01*
X96246493Y-73275014D01*
X96250572Y-73277194D01*
X96255001Y-73278538D01*
X96259694Y-73279000D01*
X97880306Y-73279000D01*
X97884999Y-73278538D01*
X97889428Y-73277194D01*
X97893507Y-73275014D01*
X97897081Y-73272081D01*
X97900014Y-73268507D01*
X97902194Y-73264428D01*
X97903538Y-73259999D01*
X97904010Y-73255204D01*
X97905175Y-73253578D01*
X97907165Y-73253774D01*
G37*
G36*
X78284110Y-68621900D02*
G01*
X78388761Y-68726551D01*
X78389279Y-68728483D01*
X78388761Y-68729379D01*
X77538820Y-69579320D01*
X77536888Y-69579838D01*
X77535992Y-69579320D01*
X77431341Y-69474669D01*
X77430823Y-69472737D01*
X77431341Y-69471841D01*
X78281282Y-68621900D01*
X78283214Y-68621382D01*
X78284110Y-68621900D01*
G37*
G36*
X77930556Y-68268347D02*
G01*
X77946815Y-68284606D01*
X77946826Y-68284616D01*
X78035208Y-68372998D01*
X78035726Y-68374930D01*
X78035208Y-68375826D01*
X77185267Y-69225767D01*
X77183335Y-69226285D01*
X77182439Y-69225767D01*
X77166180Y-69209508D01*
X77166169Y-69209498D01*
X77077787Y-69121116D01*
X77077269Y-69119184D01*
X77077787Y-69118288D01*
X77927728Y-68268347D01*
X77929660Y-68267829D01*
X77930556Y-68268347D01*
G37*
G36*
X77577003Y-67914793D02*
G01*
X77665385Y-68003175D01*
X77665390Y-68003181D01*
X77681654Y-68019445D01*
X77682172Y-68021377D01*
X77681654Y-68022273D01*
X76831713Y-68872214D01*
X76829781Y-68872732D01*
X76828885Y-68872214D01*
X76740503Y-68783832D01*
X76740498Y-68783826D01*
X76724234Y-68767562D01*
X76723716Y-68765630D01*
X76724234Y-68764734D01*
X77574175Y-67914793D01*
X77576107Y-67914275D01*
X77577003Y-67914793D01*
G37*
G36*
X77223450Y-67561240D02*
G01*
X77328101Y-67665891D01*
X77328619Y-67667823D01*
X77328101Y-67668719D01*
X76478160Y-68518660D01*
X76476228Y-68519178D01*
X76475332Y-68518660D01*
X76370681Y-68414009D01*
X76370163Y-68412077D01*
X76370681Y-68411181D01*
X77220622Y-67561240D01*
X77222554Y-67560722D01*
X77223450Y-67561240D01*
G37*
G36*
X81324669Y-65581341D02*
G01*
X81429320Y-65685992D01*
X81429838Y-65687924D01*
X81429320Y-65688820D01*
X80579379Y-66538761D01*
X80577447Y-66539279D01*
X80576551Y-66538761D01*
X80471900Y-66434110D01*
X80471382Y-66432178D01*
X80471900Y-66431282D01*
X81321841Y-65581341D01*
X81323773Y-65580823D01*
X81324669Y-65581341D01*
G37*
G36*
X80971116Y-65227787D02*
G01*
X81059498Y-65316169D01*
X81059503Y-65316175D01*
X81075767Y-65332439D01*
X81076285Y-65334371D01*
X81075767Y-65335267D01*
X80225826Y-66185208D01*
X80223894Y-66185726D01*
X80222998Y-66185208D01*
X80134616Y-66096826D01*
X80134611Y-66096820D01*
X80118347Y-66080556D01*
X80117829Y-66078624D01*
X80118347Y-66077728D01*
X80968288Y-65227787D01*
X80970220Y-65227269D01*
X80971116Y-65227787D01*
G37*
G36*
X80617562Y-64874234D02*
G01*
X80633821Y-64890493D01*
X80633832Y-64890503D01*
X80722214Y-64978885D01*
X80722732Y-64980817D01*
X80722214Y-64981713D01*
X79872273Y-65831654D01*
X79870341Y-65832172D01*
X79869445Y-65831654D01*
X79853186Y-65815395D01*
X79853175Y-65815385D01*
X79764793Y-65727003D01*
X79764275Y-65725071D01*
X79764793Y-65724175D01*
X80614734Y-64874234D01*
X80616666Y-64873716D01*
X80617562Y-64874234D01*
G37*
G36*
X80264009Y-64520681D02*
G01*
X80368660Y-64625332D01*
X80369178Y-64627264D01*
X80368660Y-64628160D01*
X79518719Y-65478101D01*
X79516787Y-65478619D01*
X79515891Y-65478101D01*
X79411240Y-65373450D01*
X79410722Y-65371518D01*
X79411240Y-65370622D01*
X80261181Y-64520681D01*
X80263113Y-64520163D01*
X80264009Y-64520681D01*
G37*
G36*
X97230452Y-49470551D02*
G01*
X97230884Y-49472503D01*
X97229410Y-49473855D01*
X94750500Y-50023416D01*
X94748592Y-50022814D01*
X94748067Y-50021463D01*
X94748067Y-50021462D01*
X94749634Y-50019509D01*
X97228544Y-49469949D01*
X97230452Y-49470551D01*
G37*
M02*
